<svg xmlns="http://www.w3.org/2000/svg" xmlns:xlink="http://www.w3.org/1999/xlink" width="500" zoomAndPan="magnify" viewBox="0 0 375 149.999998" height="200" preserveAspectRatio="xMidYMid meet" version="1.0"><defs><filter x="0%" y="0%" width="100%" height="100%" id="8ceef96198"><feColorMatrix values="0 0 0 0 1 0 0 0 0 1 0 0 0 0 1 0 0 0 1 0" color-interpolation-filters="sRGB"/></filter><g/><clipPath id="46f8a11024"><path d="M 43 129.777344 L 206 129.777344 L 206 145.527344 L 43 145.527344 Z M 43 129.777344 " clip-rule="nonzero"/></clipPath><clipPath id="5a933627d4"><path d="M 78.363281 130.402344 L 210.613281 130.402344 L 210.613281 146.332031 L 78.363281 146.332031 Z M 78.363281 130.402344 " clip-rule="nonzero"/></clipPath><clipPath id="9d6bc4363c"><path d="M 307.347656 126.675781 L 331 126.675781 L 331 149.925781 L 307.347656 149.925781 Z M 307.347656 126.675781 " clip-rule="nonzero"/></clipPath><clipPath id="dfa992e53b"><path d="M 313 126.675781 L 335.847656 126.675781 L 335.847656 149.925781 L 313 149.925781 Z M 313 126.675781 " clip-rule="nonzero"/></clipPath><mask id="a2dc52500c"><g filter="url(#8ceef96198)"><rect x="-37.5" width="450" fill="#000000" y="-15" height="179.999997" fill-opacity="0.4"/></g></mask><clipPath id="35477165c9"><path d="M 0.398438 0.828125 L 280.898438 0.828125 L 280.898438 105.828125 L 0.398438 105.828125 Z M 0.398438 0.828125 " clip-rule="nonzero"/></clipPath><clipPath id="94381f0356"><rect x="0" width="282" y="0" height="107"/></clipPath><clipPath id="c6b345a26a"><path d="M 104.015625 0.046875 L 266.015625 0.046875 L 266.015625 132.339844 L 104.015625 132.339844 Z M 104.015625 0.046875 " clip-rule="nonzero"/></clipPath></defs><rect x="-37.5" width="450" fill="#ffffff" y="-15" height="179.999997" fill-opacity="1"/><rect x="-37.5" width="450" fill="#000000" y="-15" height="179.999997" fill-opacity="1"/><g clip-path="url(#46f8a11024)"><path fill="#ffffff" d="M 205.585938 137.671875 C 205.585938 137.667969 205.585938 137.660156 205.585938 137.65625 C 205.585938 137.640625 205.582031 137.625 205.578125 137.609375 C 205.574219 137.582031 205.566406 137.554688 205.558594 137.527344 C 205.554688 137.507812 205.546875 137.488281 205.539062 137.46875 C 205.53125 137.445312 205.519531 137.421875 205.507812 137.394531 C 205.5 137.375 205.488281 137.359375 205.476562 137.339844 C 205.464844 137.316406 205.449219 137.296875 205.433594 137.277344 C 205.421875 137.257812 205.40625 137.242188 205.394531 137.226562 C 205.375 137.207031 205.359375 137.1875 205.339844 137.171875 C 205.324219 137.15625 205.308594 137.144531 205.292969 137.128906 C 205.273438 137.113281 205.253906 137.097656 205.230469 137.082031 C 205.210938 137.070312 205.191406 137.0625 205.171875 137.050781 C 205.152344 137.039062 205.128906 137.027344 205.105469 137.019531 C 205.082031 137.007812 205.058594 137 205.039062 136.996094 C 205.019531 136.988281 205.003906 136.980469 204.988281 136.976562 L 175.40625 129.816406 C 175.402344 129.816406 175.402344 129.816406 175.398438 129.816406 C 175.390625 129.816406 175.382812 129.816406 175.375 129.8125 C 175.335938 129.804688 175.292969 129.800781 175.253906 129.796875 C 175.238281 129.796875 175.222656 129.796875 175.207031 129.796875 C 175.171875 129.800781 175.140625 129.800781 175.109375 129.804688 C 175.09375 129.808594 175.078125 129.8125 175.058594 129.816406 C 175.027344 129.820312 175 129.828125 174.96875 129.839844 C 174.953125 129.84375 174.9375 129.851562 174.921875 129.855469 C 174.890625 129.867188 174.863281 129.882812 174.835938 129.898438 C 174.820312 129.90625 174.808594 129.914062 174.792969 129.921875 C 174.765625 129.941406 174.738281 129.960938 174.710938 129.984375 C 174.699219 129.992188 174.6875 130 174.679688 130.011719 C 174.644531 130.042969 174.613281 130.078125 174.582031 130.117188 C 174.574219 130.128906 174.570312 130.140625 174.5625 130.152344 C 174.542969 130.175781 174.527344 130.203125 174.511719 130.230469 C 174.511719 130.234375 174.507812 130.238281 174.507812 130.246094 C 174.503906 130.25 174.5 130.253906 174.5 130.257812 C 174.492188 130.273438 174.492188 130.285156 174.484375 130.300781 C 174.472656 130.328125 174.460938 130.359375 174.453125 130.386719 C 174.449219 130.40625 174.445312 130.425781 174.441406 130.441406 C 174.4375 130.472656 174.433594 130.503906 174.429688 130.535156 C 174.429688 130.550781 174.429688 130.570312 174.429688 130.585938 C 174.429688 130.621094 174.429688 130.65625 174.433594 130.6875 C 174.4375 130.703125 174.4375 130.714844 174.441406 130.726562 C 174.449219 130.773438 174.460938 130.820312 174.476562 130.863281 C 174.492188 130.910156 174.515625 130.957031 174.542969 131 C 174.546875 131.003906 174.550781 131.011719 174.554688 131.019531 C 174.578125 131.050781 174.601562 131.082031 174.625 131.113281 C 174.636719 131.125 174.648438 131.136719 174.664062 131.148438 C 174.675781 131.164062 174.691406 131.179688 174.707031 131.195312 L 181.082031 136.558594 L 79.09375 136.558594 L 79.09375 136.179688 C 79.09375 135.523438 78.558594 134.992188 77.902344 134.992188 C 77.246094 134.992188 76.714844 135.523438 76.714844 136.179688 L 76.714844 136.558594 L 76.222656 136.558594 L 76.222656 136.179688 C 76.222656 135.523438 75.691406 134.992188 75.035156 134.992188 C 74.378906 134.992188 73.847656 135.523438 73.847656 136.179688 L 73.847656 136.558594 L 73.40625 136.558594 L 68.820312 131.75 C 68.683594 131.605469 68.496094 131.519531 68.300781 131.503906 L 43.914062 129.796875 C 43.574219 129.773438 43.253906 129.972656 43.125 130.292969 C 42.996094 130.609375 43.085938 130.972656 43.347656 131.195312 L 49.722656 136.558594 L 46.441406 136.558594 C 45.785156 136.558594 45.25 137.09375 45.25 137.75 C 45.25 138.40625 45.785156 138.9375 46.441406 138.9375 L 49.722656 138.9375 L 43.347656 144.300781 C 43.089844 144.519531 42.996094 144.886719 43.125 145.203125 C 43.246094 145.503906 43.539062 145.699219 43.859375 145.699219 C 43.878906 145.699219 43.898438 145.699219 43.914062 145.699219 L 68.300781 143.992188 C 68.496094 143.976562 68.683594 143.890625 68.820312 143.75 L 73.40625 138.9375 L 73.847656 138.9375 L 73.847656 139.316406 C 73.847656 139.972656 74.378906 140.507812 75.035156 140.507812 C 75.691406 140.507812 76.222656 139.972656 76.222656 139.316406 L 76.222656 138.9375 L 76.714844 138.9375 L 76.714844 139.316406 C 76.714844 139.972656 77.246094 140.507812 77.902344 140.507812 C 78.5625 140.507812 79.09375 139.972656 79.09375 139.316406 L 79.09375 138.9375 L 181.078125 138.9375 L 174.707031 144.300781 C 174.691406 144.316406 174.679688 144.332031 174.664062 144.34375 C 174.652344 144.359375 174.636719 144.371094 174.625 144.382812 C 174.601562 144.414062 174.578125 144.445312 174.558594 144.476562 C 174.550781 144.484375 174.546875 144.492188 174.542969 144.496094 C 174.515625 144.539062 174.492188 144.585938 174.476562 144.628906 C 174.476562 144.632812 174.476562 144.632812 174.476562 144.632812 C 174.460938 144.675781 174.449219 144.722656 174.441406 144.769531 C 174.4375 144.78125 174.4375 144.792969 174.433594 144.808594 C 174.429688 144.839844 174.429688 144.875 174.429688 144.910156 C 174.429688 144.925781 174.429688 144.941406 174.429688 144.960938 C 174.433594 144.992188 174.4375 145.023438 174.441406 145.050781 C 174.445312 145.070312 174.449219 145.089844 174.453125 145.109375 C 174.460938 145.136719 174.472656 145.167969 174.484375 145.195312 C 174.492188 145.210938 174.492188 145.222656 174.5 145.238281 C 174.5 145.242188 174.503906 145.246094 174.507812 145.253906 C 174.511719 145.257812 174.511719 145.261719 174.511719 145.265625 C 174.519531 145.277344 174.527344 145.289062 174.535156 145.300781 C 174.542969 145.316406 174.554688 145.335938 174.5625 145.351562 C 174.574219 145.367188 174.589844 145.382812 174.601562 145.398438 C 174.613281 145.414062 174.621094 145.425781 174.632812 145.4375 C 174.648438 145.457031 174.667969 145.472656 174.683594 145.488281 C 174.691406 145.496094 174.703125 145.507812 174.710938 145.511719 C 174.734375 145.53125 174.757812 145.550781 174.78125 145.566406 C 174.789062 145.570312 174.792969 145.574219 174.800781 145.578125 C 174.828125 145.597656 174.859375 145.613281 174.890625 145.628906 C 174.894531 145.628906 174.894531 145.628906 174.894531 145.628906 C 174.996094 145.675781 175.105469 145.699219 175.21875 145.699219 C 175.226562 145.699219 175.234375 145.695312 175.242188 145.695312 C 175.292969 145.695312 175.34375 145.6875 175.394531 145.675781 C 175.398438 145.675781 175.402344 145.675781 175.40625 145.675781 L 204.988281 138.515625 C 205 138.511719 205.011719 138.507812 205.023438 138.503906 C 205.054688 138.496094 205.082031 138.484375 205.109375 138.472656 C 205.128906 138.464844 205.148438 138.457031 205.164062 138.445312 C 205.1875 138.433594 205.210938 138.421875 205.234375 138.410156 C 205.253906 138.394531 205.269531 138.382812 205.289062 138.367188 C 205.308594 138.351562 205.324219 138.339844 205.34375 138.324219 C 205.359375 138.304688 205.375 138.289062 205.394531 138.269531 C 205.40625 138.253906 205.421875 138.234375 205.4375 138.21875 C 205.449219 138.199219 205.464844 138.175781 205.476562 138.15625 C 205.488281 138.136719 205.5 138.117188 205.507812 138.097656 C 205.519531 138.074219 205.53125 138.050781 205.539062 138.027344 C 205.546875 138.003906 205.554688 137.988281 205.5625 137.964844 C 205.566406 137.9375 205.574219 137.910156 205.578125 137.882812 C 205.582031 137.867188 205.585938 137.855469 205.589844 137.839844 C 205.589844 137.832031 205.585938 137.828125 205.589844 137.820312 C 205.589844 137.796875 205.589844 137.773438 205.589844 137.746094 C 205.589844 137.71875 205.589844 137.695312 205.585938 137.671875 Z M 63.550781 142.734375 L 60.898438 142.921875 L 64.714844 138.9375 L 67.15625 138.9375 L 63.613281 142.65625 C 63.585938 142.679688 63.570312 142.707031 63.550781 142.734375 Z M 55.925781 143.269531 L 60.085938 138.9375 L 62.519531 138.9375 L 58.546875 143.085938 Z M 50.957031 143.617188 L 55.460938 138.9375 L 57.890625 138.9375 L 53.574219 143.433594 Z M 53.574219 132.0625 L 57.890625 136.558594 L 55.460938 136.558594 L 50.957031 131.878906 Z M 58.546875 132.410156 L 62.519531 136.558594 L 60.085938 136.558594 L 55.925781 132.226562 Z M 63.609375 132.839844 L 67.15625 136.558594 L 64.714844 136.558594 L 60.898438 132.574219 L 63.546875 132.757812 C 63.566406 132.785156 63.585938 132.816406 63.609375 132.839844 Z M 71.214844 136.558594 L 69.34375 136.558594 L 65.878906 132.921875 L 67.886719 133.0625 Z M 46.230469 131.546875 L 48.601562 131.714844 L 53.261719 136.558594 L 52.183594 136.558594 Z M 52.179688 138.9375 L 53.261719 138.9375 L 48.601562 143.78125 L 46.230469 143.949219 Z M 67.886719 142.433594 L 65.878906 142.574219 L 69.34375 138.9375 L 71.214844 138.9375 Z M 196.523438 138.9375 L 183.023438 142.203125 L 190.15625 138.9375 Z M 190.15625 136.558594 L 183.023438 133.292969 L 196.523438 136.558594 Z M 180.183594 133.734375 L 186.351562 136.558594 L 183.539062 136.558594 Z M 186.351562 138.9375 L 180.183594 141.761719 L 183.539062 138.9375 Z M 186.351562 138.9375 " fill-opacity="1" fill-rule="nonzero"/></g><g clip-path="url(#5a933627d4)"><path fill="#000000" d="M 78.363281 130.402344 L 210.605469 130.402344 L 210.605469 146.332031 L 78.363281 146.332031 Z M 78.363281 130.402344 " fill-opacity="1" fill-rule="nonzero"/></g><g clip-path="url(#9d6bc4363c)"><path fill="#ffffff" d="M 330.355469 137.890625 L 307.5 126.691406 L 314.007812 138.292969 L 307.390625 149.996094 Z M 330.355469 137.890625 " fill-opacity="1" fill-rule="nonzero"/></g><g clip-path="url(#dfa992e53b)"><path fill="#ffffff" d="M 313.34375 149.984375 C 313.28125 149.984375 313.21875 149.960938 313.171875 149.914062 C 313.101562 149.835938 313.085938 149.726562 313.132812 149.632812 L 319.539062 138.285156 L 313.25 127.050781 C 313.195312 126.957031 313.210938 126.847656 313.28125 126.769531 C 313.351562 126.691406 313.457031 126.675781 313.550781 126.722656 L 335.925781 137.6875 C 336.003906 137.726562 336.058594 137.804688 336.058594 137.890625 C 336.058594 137.972656 336.011719 138.058594 335.933594 138.097656 L 313.449219 149.960938 C 313.417969 149.976562 313.378906 149.984375 313.34375 149.984375 Z M 314.015625 127.46875 L 320.011719 138.167969 C 320.050781 138.238281 320.050781 138.324219 320.011719 138.390625 L 313.929688 149.179688 L 335.316406 137.90625 Z M 314.015625 127.46875 " fill-opacity="1" fill-rule="nonzero"/></g><g mask="url(#a2dc52500c)"><g transform="matrix(1, 0, 0, 1, 47, 30)"><g clip-path="url(#94381f0356)"><g clip-path="url(#35477165c9)"><path fill="#ffa100" d="M 280.949219 105.722656 L 0.5 105.722656 L 78.890625 97.597656 L 36.8125 80.5625 L 92.285156 88.351562 L 47.570312 54.621094 L 99.175781 76.53125 L 64.660156 32.320312 L 108.8125 66.835938 L 86.90625 15.230469 L 120.691406 60 L 112.90625 4.472656 L 133.917969 56.46875 L 140.753906 0.828125 L 147.589844 56.46875 L 168.601562 4.472656 L 160.8125 60 L 194.546875 15.230469 L 172.636719 66.835938 L 216.847656 32.320312 L 182.328125 76.53125 L 233.9375 54.621094 L 189.164062 88.351562 L 244.695312 80.5625 L 202.558594 97.597656 Z M 280.949219 105.722656 " fill-opacity="1" fill-rule="evenodd"/></g></g></g></g><g clip-path="url(#c6b345a26a)"><path fill="#ffbf00" d="M 185.34375 2.601562 L 189.523438 13.398438 L 185.34375 10.9375 Z M 264.964844 42.683594 C 260.753906 37.449219 255.550781 42.925781 255.550781 42.925781 C 261.519531 39.519531 263.925781 43.429688 264.226562 44.589844 C 265.128906 48.089844 262.484375 50.054688 260.40625 50.28125 C 253.570312 51.023438 249.257812 45.921875 247.84375 44.6875 C 240.347656 38.140625 237.03125 26.503906 222.625 19.449219 C 219.949219 18.136719 217.222656 17.386719 214.527344 17.050781 C 220.984375 14.714844 229.691406 15.625 229.691406 15.625 C 219.996094 11.308594 207.832031 16.300781 205.515625 17.332031 C 196.667969 18.867188 189.210938 23.566406 186.355469 25.558594 L 186.355469 12.101562 L 190.636719 14.589844 L 184.695312 0.046875 L 178.753906 14.589844 L 183.035156 12.101562 L 183.035156 24.984375 C 179.722656 22.78125 172.796875 18.734375 164.710938 17.332031 C 162.398438 16.300781 150.234375 11.308594 140.539062 15.625 C 140.539062 15.625 149.246094 14.714844 155.703125 17.050781 C 153.003906 17.386719 150.277344 18.136719 147.601562 19.449219 C 133.195312 26.503906 129.882812 38.140625 122.386719 44.6875 C 120.972656 45.921875 116.65625 51.023438 109.820312 50.28125 C 107.742188 50.054688 105.097656 48.089844 106 44.589844 C 106.300781 43.429688 108.707031 39.519531 114.679688 42.925781 C 114.679688 42.925781 109.472656 37.449219 105.265625 42.683594 C 102.738281 45.828125 103.949219 51.699219 109.820312 52.910156 C 109.824219 52.914062 109.824219 52.914062 109.828125 52.914062 C 110.296875 53.011719 110.753906 53.152344 111.183594 53.359375 C 112.035156 53.769531 113.480469 54.472656 114.292969 54.890625 C 115.503906 55.5 116.957031 56.277344 118.605469 57.207031 C 120.261719 58.125 122.09375 59.226562 124.078125 60.449219 C 125.058594 61.082031 126.097656 61.714844 127.140625 62.421875 C 127.664062 62.769531 128.195312 63.121094 128.738281 63.480469 C 129.273438 63.851562 129.816406 64.226562 130.367188 64.605469 C 130.640625 64.796875 130.917969 64.988281 131.195312 65.183594 C 131.472656 65.378906 131.75 65.578125 132.027344 65.78125 C 132.582031 66.183594 133.148438 66.589844 133.71875 67 C 134.277344 67.421875 134.847656 67.847656 135.417969 68.28125 C 135.992188 68.714844 136.574219 69.144531 137.144531 69.601562 C 137.714844 70.054688 138.292969 70.511719 138.875 70.972656 C 139.460938 71.429688 140.027344 71.917969 140.609375 72.394531 C 141.183594 72.875 141.777344 73.347656 142.351562 73.847656 C 142.925781 74.347656 143.5 74.847656 144.082031 75.351562 C 144.367188 75.605469 144.660156 75.855469 144.949219 76.109375 C 145.230469 76.371094 145.519531 76.628906 145.804688 76.890625 C 146.371094 77.414062 146.945312 77.9375 147.519531 78.460938 C 148.085938 78.988281 148.640625 79.535156 149.203125 80.074219 C 149.761719 80.621094 150.335938 81.148438 150.882812 81.707031 C 153.078125 83.921875 155.238281 86.179688 157.261719 88.492188 C 157.769531 89.070312 158.273438 89.644531 158.773438 90.21875 C 159.027344 90.503906 159.273438 90.792969 159.511719 91.089844 C 159.753906 91.382812 159.992188 91.671875 160.230469 91.964844 C 160.710938 92.546875 161.183594 93.125 161.65625 93.699219 C 162.132812 94.273438 162.566406 94.871094 163.019531 95.445312 C 163.464844 96.027344 163.910156 96.601562 164.347656 97.171875 L 164.675781 97.601562 L 164.988281 98.035156 C 165.195312 98.324219 165.402344 98.613281 165.609375 98.898438 C 166.019531 99.472656 166.425781 100.039062 166.828125 100.597656 C 167.027344 100.878906 167.234375 101.15625 167.425781 101.4375 C 167.613281 101.71875 167.800781 102 167.988281 102.28125 C 168.726562 103.402344 169.46875 104.480469 170.148438 105.546875 C 170.8125 106.621094 171.457031 107.664062 172.070312 108.660156 C 172.222656 108.910156 172.382812 109.15625 172.523438 109.40625 C 172.667969 109.65625 172.808594 109.902344 172.945312 110.148438 C 173.222656 110.636719 173.492188 111.113281 173.757812 111.578125 C 174.019531 112.042969 174.277344 112.496094 174.527344 112.9375 C 174.652344 113.160156 174.777344 113.375 174.894531 113.589844 C 175.007812 113.808594 175.121094 114.023438 175.230469 114.234375 C 175.667969 115.082031 176.082031 115.875 176.460938 116.609375 C 176.839844 117.34375 177.199219 118.011719 177.480469 118.636719 C 178.644531 121.121094 179.3125 122.539062 179.3125 122.539062 C 179.3125 122.539062 178.683594 121.101562 177.582031 118.589844 C 177.320312 117.953125 176.980469 117.277344 176.621094 116.53125 C 176.257812 115.785156 175.867188 114.980469 175.453125 114.121094 C 175.347656 113.90625 175.242188 113.6875 175.132812 113.464844 C 175.019531 113.246094 174.902344 113.027344 174.785156 112.800781 C 174.542969 112.355469 174.300781 111.890625 174.046875 111.417969 C 173.796875 110.945312 173.539062 110.460938 173.273438 109.960938 C 173.140625 109.714844 173.007812 109.460938 172.871094 109.207031 C 172.734375 108.953125 172.582031 108.707031 172.4375 108.449219 C 171.84375 107.429688 171.230469 106.371094 170.59375 105.269531 C 169.9375 104.183594 169.222656 103.082031 168.507812 101.9375 C 168.328125 101.648438 168.148438 101.363281 167.96875 101.070312 C 167.78125 100.785156 167.582031 100.503906 167.390625 100.214844 C 167.003906 99.640625 166.609375 99.0625 166.210938 98.472656 C 166.011719 98.179688 165.8125 97.886719 165.609375 97.589844 L 165.308594 97.144531 L 164.988281 96.707031 C 164.5625 96.121094 164.132812 95.527344 163.699219 94.933594 C 163.261719 94.339844 162.839844 93.726562 162.378906 93.136719 C 161.917969 92.546875 161.457031 91.953125 160.988281 91.351562 C 160.757812 91.054688 160.523438 90.753906 160.289062 90.453125 C 160.058594 90.148438 159.820312 89.851562 159.570312 89.558594 C 159.082031 88.964844 158.589844 88.371094 158.09375 87.777344 C 156.117188 85.390625 154.003906 83.054688 151.847656 80.761719 C 151.3125 80.1875 150.746094 79.636719 150.199219 79.070312 C 149.644531 78.511719 149.101562 77.945312 148.542969 77.398438 C 147.976562 76.851562 147.414062 76.308594 146.851562 75.765625 C 146.570312 75.496094 146.289062 75.222656 146.011719 74.953125 C 145.722656 74.691406 145.4375 74.425781 145.152344 74.164062 C 144.582031 73.640625 144.011719 73.117188 143.445312 72.597656 C 142.878906 72.074219 142.296875 71.582031 141.726562 71.082031 C 141.152344 70.582031 140.589844 70.074219 140.011719 69.597656 C 139.4375 69.113281 138.863281 68.636719 138.296875 68.164062 C 137.734375 67.683594 137.15625 67.230469 136.589844 66.78125 C 136.023438 66.328125 135.457031 65.878906 134.902344 65.4375 C 134.335938 65.003906 133.777344 64.578125 133.222656 64.15625 C 132.945312 63.945312 132.671875 63.734375 132.398438 63.527344 C 132.121094 63.324219 131.847656 63.121094 131.574219 62.921875 C 131.027344 62.523438 130.488281 62.125 129.953125 61.738281 C 129.414062 61.359375 128.882812 60.984375 128.363281 60.617188 C 127.324219 59.875 126.289062 59.203125 125.308594 58.535156 C 123.328125 57.238281 121.496094 56.066406 119.835938 55.085938 C 118.34375 54.191406 117.007812 53.429688 115.863281 52.804688 C 119.183594 52.082031 122.679688 50.332031 126.148438 47.648438 C 129.042969 45.410156 131.636719 42.492188 134.25 39.464844 C 133.492188 42.039062 133.097656 44.796875 133.382812 47.59375 C 133.382812 47.59375 133.957031 44.945312 135.195312 41.664062 C 137.257812 36.195312 140.875 31.414062 145.632812 28.015625 C 150.957031 24.210938 157.46875 22.214844 166.585938 24.625 C 164.429688 24.773438 162.261719 25.207031 160.191406 26.0625 C 160.191406 26.0625 160.421875 26.046875 160.84375 26.027344 C 167.976562 25.699219 175.054688 27.472656 181.183594 31.136719 C 181.789062 31.5 182.40625 31.878906 183.035156 32.273438 L 183.035156 123.792969 L 179.5 125.976562 C 179.332031 126.078125 179.230469 126.265625 179.230469 126.464844 L 179.230469 126.472656 C 179.230469 126.914062 179.707031 127.191406 180.089844 126.96875 L 184.117188 124.644531 L 184.117188 125.964844 L 179.515625 128.625 C 179.339844 128.726562 179.230469 128.914062 179.230469 129.121094 C 179.230469 129.5625 179.707031 129.835938 180.089844 129.617188 L 184.117188 127.289062 L 184.117188 128.613281 L 179.515625 131.269531 C 179.339844 131.371094 179.230469 131.5625 179.230469 131.765625 C 179.230469 132.207031 179.707031 132.484375 180.089844 132.261719 L 184.117188 129.933594 L 184.117188 130.710938 C 184.117188 131.03125 184.375 131.289062 184.695312 131.289062 C 185.011719 131.289062 185.269531 131.03125 185.269531 130.710938 L 185.269531 129.933594 L 189.300781 132.261719 C 189.683594 132.484375 190.160156 132.207031 190.160156 131.765625 C 190.160156 131.5625 190.050781 131.371094 189.875 131.269531 L 185.269531 128.613281 L 185.269531 127.289062 L 189.300781 129.617188 C 189.683594 129.835938 190.160156 129.5625 190.160156 129.121094 C 190.160156 128.914062 190.050781 128.726562 189.875 128.625 L 185.269531 125.964844 L 185.269531 124.644531 L 189.300781 126.96875 C 189.683594 127.191406 190.160156 126.914062 190.160156 126.472656 L 190.160156 126.464844 C 190.160156 126.265625 190.058594 126.078125 189.886719 125.976562 L 186.355469 123.792969 L 186.355469 32.808594 C 187.269531 32.21875 188.167969 31.660156 189.046875 31.136719 C 195.175781 27.472656 202.253906 25.699219 209.382812 26.027344 C 209.804688 26.046875 210.039062 26.0625 210.039062 26.0625 C 207.96875 25.207031 205.800781 24.773438 203.644531 24.625 C 212.757812 22.214844 219.269531 24.210938 224.597656 28.015625 C 229.355469 31.414062 232.96875 36.195312 235.03125 41.664062 C 236.269531 44.945312 236.84375 47.59375 236.84375 47.59375 C 237.128906 44.796875 236.738281 42.039062 235.980469 39.464844 C 238.589844 42.492188 241.1875 45.410156 244.082031 47.648438 C 247.550781 50.332031 251.046875 52.082031 254.363281 52.804688 C 253.21875 53.429688 251.882812 54.191406 250.390625 55.085938 C 248.730469 56.066406 246.902344 57.238281 244.917969 58.535156 C 243.941406 59.203125 242.902344 59.875 241.867188 60.617188 C 241.34375 60.984375 240.8125 61.359375 240.273438 61.738281 C 239.742188 62.125 239.203125 62.523438 238.65625 62.921875 C 238.382812 63.121094 238.105469 63.324219 237.828125 63.527344 C 237.554688 63.734375 237.28125 63.945312 237.003906 64.15625 C 236.453125 64.578125 235.890625 65.003906 235.328125 65.4375 C 234.769531 65.878906 234.207031 66.328125 233.640625 66.78125 C 233.070312 67.230469 232.496094 67.683594 231.933594 68.164062 C 231.363281 68.636719 230.792969 69.113281 230.214844 69.597656 C 229.636719 70.074219 229.078125 70.582031 228.503906 71.082031 C 227.933594 71.582031 227.347656 72.074219 226.78125 72.597656 C 226.214844 73.117188 225.644531 73.640625 225.074219 74.164062 C 224.789062 74.425781 224.503906 74.691406 224.21875 74.953125 C 223.9375 75.222656 223.65625 75.496094 223.378906 75.765625 C 222.816406 76.308594 222.253906 76.851562 221.6875 77.398438 C 221.128906 77.945312 220.582031 78.511719 220.03125 79.070312 C 219.480469 79.636719 218.917969 80.1875 218.382812 80.761719 C 216.222656 83.054688 214.109375 85.390625 212.132812 87.777344 C 211.640625 88.371094 211.148438 88.964844 210.65625 89.558594 C 210.410156 89.851562 210.171875 90.148438 209.941406 90.453125 C 209.703125 90.753906 209.472656 91.054688 209.238281 91.351562 C 208.773438 91.953125 208.308594 92.546875 207.851562 93.136719 C 207.386719 93.726562 206.964844 94.339844 206.527344 94.933594 C 206.09375 95.527344 205.664062 96.121094 205.238281 96.707031 L 204.917969 97.144531 L 204.617188 97.589844 C 204.414062 97.886719 204.214844 98.179688 204.015625 98.472656 C 203.617188 99.0625 203.226562 99.640625 202.835938 100.214844 C 202.644531 100.503906 202.445312 100.785156 202.261719 101.070312 C 202.078125 101.363281 201.898438 101.648438 201.71875 101.9375 C 201.003906 103.082031 200.289062 104.183594 199.636719 105.269531 C 199 106.371094 198.382812 107.429688 197.792969 108.449219 C 197.644531 108.707031 197.496094 108.953125 197.359375 109.207031 C 197.222656 109.460938 197.089844 109.714844 196.957031 109.960938 C 196.691406 110.460938 196.433594 110.945312 196.179688 111.417969 C 195.929688 111.890625 195.683594 112.355469 195.445312 112.800781 C 195.328125 113.027344 195.210938 113.246094 195.09375 113.464844 C 194.988281 113.6875 194.882812 113.90625 194.777344 114.121094 C 194.359375 114.980469 193.96875 115.785156 193.609375 116.53125 C 193.25 117.277344 192.90625 117.953125 192.644531 118.589844 C 191.546875 121.101562 190.917969 122.539062 190.917969 122.539062 C 190.917969 122.539062 191.582031 121.121094 192.75 118.636719 C 193.03125 118.011719 193.386719 117.34375 193.769531 116.609375 C 194.148438 115.875 194.558594 115.082031 194.996094 114.234375 C 195.105469 114.023438 195.21875 113.808594 195.332031 113.589844 C 195.453125 113.375 195.574219 113.160156 195.699219 112.9375 C 195.949219 112.496094 196.207031 112.042969 196.472656 111.578125 C 196.734375 111.113281 197.003906 110.636719 197.28125 110.148438 C 197.421875 109.902344 197.5625 109.65625 197.703125 109.40625 C 197.847656 109.15625 198.003906 108.910156 198.15625 108.660156 C 198.773438 107.664062 199.414062 106.621094 200.078125 105.546875 C 200.757812 104.480469 201.5 103.402344 202.242188 102.28125 C 202.425781 102 202.613281 101.71875 202.804688 101.4375 C 202.996094 101.15625 203.199219 100.878906 203.398438 100.597656 C 203.800781 100.039062 204.207031 99.472656 204.621094 98.898438 C 204.824219 98.613281 205.03125 98.324219 205.238281 98.035156 L 205.550781 97.601562 L 205.878906 97.171875 C 206.320312 96.601562 206.761719 96.027344 207.210938 95.445312 C 207.660156 94.871094 208.09375 94.273438 208.570312 93.699219 C 209.042969 93.125 209.519531 92.546875 209.996094 91.964844 C 210.238281 91.671875 210.476562 91.382812 210.71875 91.089844 C 210.953125 90.792969 211.199219 90.503906 211.453125 90.21875 C 211.957031 89.644531 212.460938 89.070312 212.964844 88.492188 C 214.992188 86.179688 217.148438 83.921875 219.347656 81.707031 C 219.894531 81.148438 220.464844 80.621094 221.023438 80.074219 C 221.585938 79.535156 222.140625 78.988281 222.710938 78.460938 C 223.28125 77.9375 223.855469 77.414062 224.425781 76.890625 C 224.710938 76.628906 224.996094 76.371094 225.28125 76.109375 C 225.570312 75.855469 225.859375 75.605469 226.148438 75.351562 C 226.726562 74.847656 227.304688 74.347656 227.878906 73.847656 C 228.449219 73.347656 229.042969 72.875 229.621094 72.394531 C 230.203125 71.917969 230.769531 71.429688 231.351562 70.972656 C 231.933594 70.511719 232.511719 70.054688 233.085938 69.601562 C 233.65625 69.144531 234.234375 68.714844 234.808594 68.28125 C 235.382812 67.847656 235.949219 67.421875 236.511719 67 C 237.082031 66.589844 237.644531 66.183594 238.199219 65.78125 C 238.480469 65.578125 238.757812 65.378906 239.03125 65.183594 C 239.308594 64.988281 239.585938 64.796875 239.863281 64.605469 C 240.414062 64.226562 240.957031 63.851562 241.488281 63.480469 C 242.03125 63.121094 242.5625 62.769531 243.089844 62.421875 C 244.128906 61.714844 245.167969 61.082031 246.148438 60.449219 C 248.136719 59.226562 249.96875 58.125 251.621094 57.207031 C 253.269531 56.277344 254.726562 55.5 255.933594 54.890625 C 256.75 54.472656 258.191406 53.769531 259.042969 53.359375 C 259.476562 53.152344 259.933594 53.011719 260.402344 52.914062 C 260.402344 52.914062 260.40625 52.914062 260.40625 52.910156 C 266.277344 51.699219 267.492188 45.828125 264.964844 42.683594 " fill-opacity="1" fill-rule="nonzero"/></g><g fill="#ff8a00" fill-opacity="0.302"><g transform="translate(80.285198, 133.721571)"><g><path d="M 2.234375 -39.15625 L 9.515625 -39.15625 C 12.304688 -39.15625 14.445312 -38.367188 15.9375 -36.796875 C 17.4375 -35.234375 18.1875 -32.757812 18.1875 -29.375 L 18.1875 -25.453125 C 18.1875 -23.804688 18.035156 -22.488281 17.734375 -21.5 C 17.429688 -20.519531 17.113281 -19.726562 16.78125 -19.125 C 16.375 -18.457031 15.910156 -17.957031 15.390625 -17.625 L 19.015625 0 L 12.59375 0 L 9.515625 -15.65625 L 8.390625 -15.65625 L 8.390625 0 L 2.234375 0 Z M 9.515625 -21.25 C 10.222656 -21.25 10.816406 -21.546875 11.296875 -22.140625 C 11.785156 -22.742188 12.03125 -23.753906 12.03125 -25.171875 L 12.03125 -29.640625 C 12.03125 -31.054688 11.785156 -32.0625 11.296875 -32.65625 C 10.816406 -33.257812 10.222656 -33.5625 9.515625 -33.5625 L 8.390625 -33.5625 L 8.390625 -21.25 Z M 9.515625 -21.25 "/></g></g></g><g fill="#ff8a00" fill-opacity="0.302"><g transform="translate(102.489709, 133.721571)"><g><path d="M 5.59375 -39.15625 L 13.984375 -39.15625 L 18.734375 0 L 12.59375 0 L 11.796875 -7.828125 L 7.15625 -7.828125 L 6.4375 0 L 0.28125 0 Z M 11.25 -13.703125 L 9.953125 -26.578125 C 9.847656 -27.835938 9.773438 -28.960938 9.734375 -29.953125 C 9.691406 -30.941406 9.65625 -31.863281 9.625 -32.71875 L 9.390625 -32.71875 C 9.359375 -31.863281 9.304688 -30.941406 9.234375 -29.953125 C 9.160156 -28.960938 9.066406 -27.835938 8.953125 -26.578125 L 7.71875 -13.703125 Z M 11.25 -13.703125 "/></g></g></g><g fill="#ff8a00" fill-opacity="0.302"><g transform="translate(123.855272, 133.721571)"><g><path d="M 3.078125 -39.15625 L 10.0625 -39.15625 L 12.3125 -22.65625 L 13.09375 -16.78125 L 13.25 -16.78125 C 13.332031 -17.445312 13.410156 -18.117188 13.484375 -18.796875 C 13.554688 -19.390625 13.628906 -20.019531 13.703125 -20.6875 C 13.773438 -21.363281 13.867188 -22.019531 13.984375 -22.65625 L 16.5 -39.15625 L 23.5 -39.15625 L 24.609375 0 L 18.453125 0 L 18.453125 -17.90625 C 18.453125 -18.875 18.453125 -20 18.453125 -21.28125 C 18.453125 -22.570312 18.472656 -23.796875 18.515625 -24.953125 C 18.554688 -26.296875 18.59375 -27.675781 18.625 -29.09375 L 18.453125 -29.09375 L 15.109375 -6.71875 L 10.90625 -6.71875 L 7.828125 -29.09375 L 7.65625 -29.09375 C 7.65625 -27.675781 7.675781 -26.296875 7.71875 -24.953125 C 7.757812 -23.796875 7.785156 -22.570312 7.796875 -21.28125 C 7.816406 -20 7.828125 -18.875 7.828125 -17.90625 L 7.828125 0 L 1.671875 0 Z M 3.078125 -39.15625 "/></g></g></g><g fill="#ff8a00" fill-opacity="0.302"><g transform="translate(152.491697, 133.721571)"><g><path d="M 5.59375 -39.15625 L 13.984375 -39.15625 L 18.734375 0 L 12.59375 0 L 11.796875 -7.828125 L 7.15625 -7.828125 L 6.4375 0 L 0.28125 0 Z M 11.25 -13.703125 L 9.953125 -26.578125 C 9.847656 -27.835938 9.773438 -28.960938 9.734375 -29.953125 C 9.691406 -30.941406 9.65625 -31.863281 9.625 -32.71875 L 9.390625 -32.71875 C 9.359375 -31.863281 9.304688 -30.941406 9.234375 -29.953125 C 9.160156 -28.960938 9.066406 -27.835938 8.953125 -26.578125 L 7.71875 -13.703125 Z M 11.25 -13.703125 "/></g></g></g><g fill="#ff8a00" fill-opacity="0.502"><g transform="translate(82.311452, 133.178634)"><g><path d="M 2.234375 -39.15625 L 9.515625 -39.15625 C 12.304688 -39.15625 14.445312 -38.367188 15.9375 -36.796875 C 17.4375 -35.234375 18.1875 -32.757812 18.1875 -29.375 L 18.1875 -25.453125 C 18.1875 -23.804688 18.035156 -22.488281 17.734375 -21.5 C 17.429688 -20.519531 17.113281 -19.726562 16.78125 -19.125 C 16.375 -18.457031 15.910156 -17.957031 15.390625 -17.625 L 19.015625 0 L 12.59375 0 L 9.515625 -15.65625 L 8.390625 -15.65625 L 8.390625 0 L 2.234375 0 Z M 9.515625 -21.25 C 10.222656 -21.25 10.816406 -21.546875 11.296875 -22.140625 C 11.785156 -22.742188 12.03125 -23.753906 12.03125 -25.171875 L 12.03125 -29.640625 C 12.03125 -31.054688 11.785156 -32.0625 11.296875 -32.65625 C 10.816406 -33.257812 10.222656 -33.5625 9.515625 -33.5625 L 8.390625 -33.5625 L 8.390625 -21.25 Z M 9.515625 -21.25 "/></g></g></g><g fill="#ff8a00" fill-opacity="0.502"><g transform="translate(104.515963, 133.178634)"><g><path d="M 5.59375 -39.15625 L 13.984375 -39.15625 L 18.734375 0 L 12.59375 0 L 11.796875 -7.828125 L 7.15625 -7.828125 L 6.4375 0 L 0.28125 0 Z M 11.25 -13.703125 L 9.953125 -26.578125 C 9.847656 -27.835938 9.773438 -28.960938 9.734375 -29.953125 C 9.691406 -30.941406 9.65625 -31.863281 9.625 -32.71875 L 9.390625 -32.71875 C 9.359375 -31.863281 9.304688 -30.941406 9.234375 -29.953125 C 9.160156 -28.960938 9.066406 -27.835938 8.953125 -26.578125 L 7.71875 -13.703125 Z M 11.25 -13.703125 "/></g></g></g><g fill="#ff8a00" fill-opacity="0.502"><g transform="translate(125.881526, 133.178634)"><g><path d="M 3.078125 -39.15625 L 10.0625 -39.15625 L 12.3125 -22.65625 L 13.09375 -16.78125 L 13.25 -16.78125 C 13.332031 -17.445312 13.410156 -18.117188 13.484375 -18.796875 C 13.554688 -19.390625 13.628906 -20.019531 13.703125 -20.6875 C 13.773438 -21.363281 13.867188 -22.019531 13.984375 -22.65625 L 16.5 -39.15625 L 23.5 -39.15625 L 24.609375 0 L 18.453125 0 L 18.453125 -17.90625 C 18.453125 -18.875 18.453125 -20 18.453125 -21.28125 C 18.453125 -22.570312 18.472656 -23.796875 18.515625 -24.953125 C 18.554688 -26.296875 18.59375 -27.675781 18.625 -29.09375 L 18.453125 -29.09375 L 15.109375 -6.71875 L 10.90625 -6.71875 L 7.828125 -29.09375 L 7.65625 -29.09375 C 7.65625 -27.675781 7.675781 -26.296875 7.71875 -24.953125 C 7.757812 -23.796875 7.785156 -22.570312 7.796875 -21.28125 C 7.816406 -20 7.828125 -18.875 7.828125 -17.90625 L 7.828125 0 L 1.671875 0 Z M 3.078125 -39.15625 "/></g></g></g><g fill="#ff8a00" fill-opacity="0.502"><g transform="translate(154.517951, 133.178634)"><g><path d="M 5.59375 -39.15625 L 13.984375 -39.15625 L 18.734375 0 L 12.59375 0 L 11.796875 -7.828125 L 7.15625 -7.828125 L 6.4375 0 L 0.28125 0 Z M 11.25 -13.703125 L 9.953125 -26.578125 C 9.847656 -27.835938 9.773438 -28.960938 9.734375 -29.953125 C 9.691406 -30.941406 9.65625 -31.863281 9.625 -32.71875 L 9.390625 -32.71875 C 9.359375 -31.863281 9.304688 -30.941406 9.234375 -29.953125 C 9.160156 -28.960938 9.066406 -27.835938 8.953125 -26.578125 L 7.71875 -13.703125 Z M 11.25 -13.703125 "/></g></g></g><g fill="#ffffff" fill-opacity="1"><g transform="translate(84.337706, 132.635703)"><g><path d="M 2.234375 -39.15625 L 9.515625 -39.15625 C 12.304688 -39.15625 14.445312 -38.367188 15.9375 -36.796875 C 17.4375 -35.234375 18.1875 -32.757812 18.1875 -29.375 L 18.1875 -25.453125 C 18.1875 -23.804688 18.035156 -22.488281 17.734375 -21.5 C 17.429688 -20.519531 17.113281 -19.726562 16.78125 -19.125 C 16.375 -18.457031 15.910156 -17.957031 15.390625 -17.625 L 19.015625 0 L 12.59375 0 L 9.515625 -15.65625 L 8.390625 -15.65625 L 8.390625 0 L 2.234375 0 Z M 9.515625 -21.25 C 10.222656 -21.25 10.816406 -21.546875 11.296875 -22.140625 C 11.785156 -22.742188 12.03125 -23.753906 12.03125 -25.171875 L 12.03125 -29.640625 C 12.03125 -31.054688 11.785156 -32.0625 11.296875 -32.65625 C 10.816406 -33.257812 10.222656 -33.5625 9.515625 -33.5625 L 8.390625 -33.5625 L 8.390625 -21.25 Z M 9.515625 -21.25 "/></g></g></g><g fill="#ffffff" fill-opacity="1"><g transform="translate(106.542218, 132.635703)"><g><path d="M 5.59375 -39.15625 L 13.984375 -39.15625 L 18.734375 0 L 12.59375 0 L 11.796875 -7.828125 L 7.15625 -7.828125 L 6.4375 0 L 0.28125 0 Z M 11.25 -13.703125 L 9.953125 -26.578125 C 9.847656 -27.835938 9.773438 -28.960938 9.734375 -29.953125 C 9.691406 -30.941406 9.65625 -31.863281 9.625 -32.71875 L 9.390625 -32.71875 C 9.359375 -31.863281 9.304688 -30.941406 9.234375 -29.953125 C 9.160156 -28.960938 9.066406 -27.835938 8.953125 -26.578125 L 7.71875 -13.703125 Z M 11.25 -13.703125 "/></g></g></g><g fill="#ffffff" fill-opacity="1"><g transform="translate(127.90778, 132.635703)"><g><path d="M 3.078125 -39.15625 L 10.0625 -39.15625 L 12.3125 -22.65625 L 13.09375 -16.78125 L 13.25 -16.78125 C 13.332031 -17.445312 13.410156 -18.117188 13.484375 -18.796875 C 13.554688 -19.390625 13.628906 -20.019531 13.703125 -20.6875 C 13.773438 -21.363281 13.867188 -22.019531 13.984375 -22.65625 L 16.5 -39.15625 L 23.5 -39.15625 L 24.609375 0 L 18.453125 0 L 18.453125 -17.90625 C 18.453125 -18.875 18.453125 -20 18.453125 -21.28125 C 18.453125 -22.570312 18.472656 -23.796875 18.515625 -24.953125 C 18.554688 -26.296875 18.59375 -27.675781 18.625 -29.09375 L 18.453125 -29.09375 L 15.109375 -6.71875 L 10.90625 -6.71875 L 7.828125 -29.09375 L 7.65625 -29.09375 C 7.65625 -27.675781 7.675781 -26.296875 7.71875 -24.953125 C 7.757812 -23.796875 7.785156 -22.570312 7.796875 -21.28125 C 7.816406 -20 7.828125 -18.875 7.828125 -17.90625 L 7.828125 0 L 1.671875 0 Z M 3.078125 -39.15625 "/></g></g></g><g fill="#ffffff" fill-opacity="1"><g transform="translate(156.544205, 132.635703)"><g><path d="M 5.59375 -39.15625 L 13.984375 -39.15625 L 18.734375 0 L 12.59375 0 L 11.796875 -7.828125 L 7.15625 -7.828125 L 6.4375 0 L 0.28125 0 Z M 11.25 -13.703125 L 9.953125 -26.578125 C 9.847656 -27.835938 9.773438 -28.960938 9.734375 -29.953125 C 9.691406 -30.941406 9.65625 -31.863281 9.625 -32.71875 L 9.390625 -32.71875 C 9.359375 -31.863281 9.304688 -30.941406 9.234375 -29.953125 C 9.160156 -28.960938 9.066406 -27.835938 8.953125 -26.578125 L 7.71875 -13.703125 Z M 11.25 -13.703125 "/></g></g></g><g fill="#ff8a00" fill-opacity="0.302"><g transform="translate(196.704543, 133.721571)"><g><path d="M 2.234375 -39.15625 L 9.515625 -39.15625 C 12.304688 -39.15625 14.445312 -38.367188 15.9375 -36.796875 C 17.4375 -35.234375 18.1875 -32.757812 18.1875 -29.375 L 18.1875 -25.453125 C 18.1875 -23.804688 18.035156 -22.488281 17.734375 -21.5 C 17.429688 -20.519531 17.113281 -19.726562 16.78125 -19.125 C 16.375 -18.457031 15.910156 -17.957031 15.390625 -17.625 L 19.015625 0 L 12.59375 0 L 9.515625 -15.65625 L 8.390625 -15.65625 L 8.390625 0 L 2.234375 0 Z M 9.515625 -21.25 C 10.222656 -21.25 10.816406 -21.546875 11.296875 -22.140625 C 11.785156 -22.742188 12.03125 -23.753906 12.03125 -25.171875 L 12.03125 -29.640625 C 12.03125 -31.054688 11.785156 -32.0625 11.296875 -32.65625 C 10.816406 -33.257812 10.222656 -33.5625 9.515625 -33.5625 L 8.390625 -33.5625 L 8.390625 -21.25 Z M 9.515625 -21.25 "/></g></g></g><g fill="#ff8a00" fill-opacity="0.302"><g transform="translate(218.909054, 133.721571)"><g><path d="M 2.234375 -39.15625 L 14.265625 -39.15625 L 14.265625 -33.28125 L 8.390625 -33.28125 L 8.390625 -22.65625 L 13.703125 -22.65625 L 13.703125 -16.78125 L 8.390625 -16.78125 L 8.390625 -5.875 L 14.546875 -5.875 L 14.546875 0 L 2.234375 0 Z M 2.234375 -39.15625 "/></g></g></g><g fill="#ff8a00" fill-opacity="0.302"><g transform="translate(236.918833, 133.721571)"><g><path d="M 5.59375 -39.15625 L 13.984375 -39.15625 L 18.734375 0 L 12.59375 0 L 11.796875 -7.828125 L 7.15625 -7.828125 L 6.4375 0 L 0.28125 0 Z M 11.25 -13.703125 L 9.953125 -26.578125 C 9.847656 -27.835938 9.773438 -28.960938 9.734375 -29.953125 C 9.691406 -30.941406 9.65625 -31.863281 9.625 -32.71875 L 9.390625 -32.71875 C 9.359375 -31.863281 9.304688 -30.941406 9.234375 -29.953125 C 9.160156 -28.960938 9.066406 -27.835938 8.953125 -26.578125 L 7.71875 -13.703125 Z M 11.25 -13.703125 "/></g></g></g><g fill="#ff8a00" fill-opacity="0.302"><g transform="translate(258.284396, 133.721571)"><g><path d="M 2.234375 -39.15625 L 8.390625 -39.15625 L 8.390625 -5.875 L 14.546875 -5.875 L 14.546875 0 L 2.234375 0 Z M 2.234375 -39.15625 "/></g></g></g><g fill="#ff8a00" fill-opacity="0.302"><g transform="translate(275.175579, 133.721571)"><g><path d="M 3.078125 -39.15625 L 10.0625 -39.15625 L 12.3125 -22.65625 L 13.09375 -16.78125 L 13.25 -16.78125 C 13.332031 -17.445312 13.410156 -18.117188 13.484375 -18.796875 C 13.554688 -19.390625 13.628906 -20.019531 13.703125 -20.6875 C 13.773438 -21.363281 13.867188 -22.019531 13.984375 -22.65625 L 16.5 -39.15625 L 23.5 -39.15625 L 24.609375 0 L 18.453125 0 L 18.453125 -17.90625 C 18.453125 -18.875 18.453125 -20 18.453125 -21.28125 C 18.453125 -22.570312 18.472656 -23.796875 18.515625 -24.953125 C 18.554688 -26.296875 18.59375 -27.675781 18.625 -29.09375 L 18.453125 -29.09375 L 15.109375 -6.71875 L 10.90625 -6.71875 L 7.828125 -29.09375 L 7.65625 -29.09375 C 7.65625 -27.675781 7.675781 -26.296875 7.71875 -24.953125 C 7.757812 -23.796875 7.785156 -22.570312 7.796875 -21.28125 C 7.816406 -20 7.828125 -18.875 7.828125 -17.90625 L 7.828125 0 L 1.671875 0 Z M 3.078125 -39.15625 "/></g></g></g><g fill="#ff8a00" fill-opacity="0.502"><g transform="translate(194.6783, 133.178634)"><g><path d="M 2.234375 -39.15625 L 9.515625 -39.15625 C 12.304688 -39.15625 14.445312 -38.367188 15.9375 -36.796875 C 17.4375 -35.234375 18.1875 -32.757812 18.1875 -29.375 L 18.1875 -25.453125 C 18.1875 -23.804688 18.035156 -22.488281 17.734375 -21.5 C 17.429688 -20.519531 17.113281 -19.726562 16.78125 -19.125 C 16.375 -18.457031 15.910156 -17.957031 15.390625 -17.625 L 19.015625 0 L 12.59375 0 L 9.515625 -15.65625 L 8.390625 -15.65625 L 8.390625 0 L 2.234375 0 Z M 9.515625 -21.25 C 10.222656 -21.25 10.816406 -21.546875 11.296875 -22.140625 C 11.785156 -22.742188 12.03125 -23.753906 12.03125 -25.171875 L 12.03125 -29.640625 C 12.03125 -31.054688 11.785156 -32.0625 11.296875 -32.65625 C 10.816406 -33.257812 10.222656 -33.5625 9.515625 -33.5625 L 8.390625 -33.5625 L 8.390625 -21.25 Z M 9.515625 -21.25 "/></g></g></g><g fill="#ff8a00" fill-opacity="0.502"><g transform="translate(216.882811, 133.178634)"><g><path d="M 2.234375 -39.15625 L 14.265625 -39.15625 L 14.265625 -33.28125 L 8.390625 -33.28125 L 8.390625 -22.65625 L 13.703125 -22.65625 L 13.703125 -16.78125 L 8.390625 -16.78125 L 8.390625 -5.875 L 14.546875 -5.875 L 14.546875 0 L 2.234375 0 Z M 2.234375 -39.15625 "/></g></g></g><g fill="#ff8a00" fill-opacity="0.502"><g transform="translate(234.89259, 133.178634)"><g><path d="M 5.59375 -39.15625 L 13.984375 -39.15625 L 18.734375 0 L 12.59375 0 L 11.796875 -7.828125 L 7.15625 -7.828125 L 6.4375 0 L 0.28125 0 Z M 11.25 -13.703125 L 9.953125 -26.578125 C 9.847656 -27.835938 9.773438 -28.960938 9.734375 -29.953125 C 9.691406 -30.941406 9.65625 -31.863281 9.625 -32.71875 L 9.390625 -32.71875 C 9.359375 -31.863281 9.304688 -30.941406 9.234375 -29.953125 C 9.160156 -28.960938 9.066406 -27.835938 8.953125 -26.578125 L 7.71875 -13.703125 Z M 11.25 -13.703125 "/></g></g></g><g fill="#ff8a00" fill-opacity="0.502"><g transform="translate(256.258152, 133.178634)"><g><path d="M 2.234375 -39.15625 L 8.390625 -39.15625 L 8.390625 -5.875 L 14.546875 -5.875 L 14.546875 0 L 2.234375 0 Z M 2.234375 -39.15625 "/></g></g></g><g fill="#ff8a00" fill-opacity="0.502"><g transform="translate(273.149336, 133.178634)"><g><path d="M 3.078125 -39.15625 L 10.0625 -39.15625 L 12.3125 -22.65625 L 13.09375 -16.78125 L 13.25 -16.78125 C 13.332031 -17.445312 13.410156 -18.117188 13.484375 -18.796875 C 13.554688 -19.390625 13.628906 -20.019531 13.703125 -20.6875 C 13.773438 -21.363281 13.867188 -22.019531 13.984375 -22.65625 L 16.5 -39.15625 L 23.5 -39.15625 L 24.609375 0 L 18.453125 0 L 18.453125 -17.90625 C 18.453125 -18.875 18.453125 -20 18.453125 -21.28125 C 18.453125 -22.570312 18.472656 -23.796875 18.515625 -24.953125 C 18.554688 -26.296875 18.59375 -27.675781 18.625 -29.09375 L 18.453125 -29.09375 L 15.109375 -6.71875 L 10.90625 -6.71875 L 7.828125 -29.09375 L 7.65625 -29.09375 C 7.65625 -27.675781 7.675781 -26.296875 7.71875 -24.953125 C 7.757812 -23.796875 7.785156 -22.570312 7.796875 -21.28125 C 7.816406 -20 7.828125 -18.875 7.828125 -17.90625 L 7.828125 0 L 1.671875 0 Z M 3.078125 -39.15625 "/></g></g></g><g fill="#ffffff" fill-opacity="1"><g transform="translate(192.65204, 132.635703)"><g><path d="M 2.234375 -39.15625 L 9.515625 -39.15625 C 12.304688 -39.15625 14.445312 -38.367188 15.9375 -36.796875 C 17.4375 -35.234375 18.1875 -32.757812 18.1875 -29.375 L 18.1875 -25.453125 C 18.1875 -23.804688 18.035156 -22.488281 17.734375 -21.5 C 17.429688 -20.519531 17.113281 -19.726562 16.78125 -19.125 C 16.375 -18.457031 15.910156 -17.957031 15.390625 -17.625 L 19.015625 0 L 12.59375 0 L 9.515625 -15.65625 L 8.390625 -15.65625 L 8.390625 0 L 2.234375 0 Z M 9.515625 -21.25 C 10.222656 -21.25 10.816406 -21.546875 11.296875 -22.140625 C 11.785156 -22.742188 12.03125 -23.753906 12.03125 -25.171875 L 12.03125 -29.640625 C 12.03125 -31.054688 11.785156 -32.0625 11.296875 -32.65625 C 10.816406 -33.257812 10.222656 -33.5625 9.515625 -33.5625 L 8.390625 -33.5625 L 8.390625 -21.25 Z M 9.515625 -21.25 "/></g></g></g><g fill="#ffffff" fill-opacity="1"><g transform="translate(214.856551, 132.635703)"><g><path d="M 2.234375 -39.15625 L 14.265625 -39.15625 L 14.265625 -33.28125 L 8.390625 -33.28125 L 8.390625 -22.65625 L 13.703125 -22.65625 L 13.703125 -16.78125 L 8.390625 -16.78125 L 8.390625 -5.875 L 14.546875 -5.875 L 14.546875 0 L 2.234375 0 Z M 2.234375 -39.15625 "/></g></g></g><g fill="#ffffff" fill-opacity="1"><g transform="translate(232.86633, 132.635703)"><g><path d="M 5.59375 -39.15625 L 13.984375 -39.15625 L 18.734375 0 L 12.59375 0 L 11.796875 -7.828125 L 7.15625 -7.828125 L 6.4375 0 L 0.28125 0 Z M 11.25 -13.703125 L 9.953125 -26.578125 C 9.847656 -27.835938 9.773438 -28.960938 9.734375 -29.953125 C 9.691406 -30.941406 9.65625 -31.863281 9.625 -32.71875 L 9.390625 -32.71875 C 9.359375 -31.863281 9.304688 -30.941406 9.234375 -29.953125 C 9.160156 -28.960938 9.066406 -27.835938 8.953125 -26.578125 L 7.71875 -13.703125 Z M 11.25 -13.703125 "/></g></g></g><g fill="#ffffff" fill-opacity="1"><g transform="translate(254.231893, 132.635703)"><g><path d="M 2.234375 -39.15625 L 8.390625 -39.15625 L 8.390625 -5.875 L 14.546875 -5.875 L 14.546875 0 L 2.234375 0 Z M 2.234375 -39.15625 "/></g></g></g><g fill="#ffffff" fill-opacity="1"><g transform="translate(271.123076, 132.635703)"><g><path d="M 3.078125 -39.15625 L 10.0625 -39.15625 L 12.3125 -22.65625 L 13.09375 -16.78125 L 13.25 -16.78125 C 13.332031 -17.445312 13.410156 -18.117188 13.484375 -18.796875 C 13.554688 -19.390625 13.628906 -20.019531 13.703125 -20.6875 C 13.773438 -21.363281 13.867188 -22.019531 13.984375 -22.65625 L 16.5 -39.15625 L 23.5 -39.15625 L 24.609375 0 L 18.453125 0 L 18.453125 -17.90625 C 18.453125 -18.875 18.453125 -20 18.453125 -21.28125 C 18.453125 -22.570312 18.472656 -23.796875 18.515625 -24.953125 C 18.554688 -26.296875 18.59375 -27.675781 18.625 -29.09375 L 18.453125 -29.09375 L 15.109375 -6.71875 L 10.90625 -6.71875 L 7.828125 -29.09375 L 7.65625 -29.09375 C 7.65625 -27.675781 7.675781 -26.296875 7.71875 -24.953125 C 7.757812 -23.796875 7.785156 -22.570312 7.796875 -21.28125 C 7.816406 -20 7.828125 -18.875 7.828125 -17.90625 L 7.828125 0 L 1.671875 0 Z M 3.078125 -39.15625 "/></g></g></g><path stroke-linecap="butt" transform="matrix(0.75, 0.000083696, -0.000083696, 0.75, 78.365389, 136.838797)" fill="none" stroke-linejoin="miter" d="M -0.00258693 2.001396 L 316.81514 2.002499 " stroke="#ffffff" stroke-width="4" stroke-opacity="1" stroke-miterlimit="4"/><path stroke-linecap="round" transform="matrix(0.75, 0.000083696, -0.000083696, 0.75, 78.365389, 136.838797)" fill-opacity="1" fill="#ffffff" fill-rule="nonzero" stroke-linejoin="round" d="M 317.81447 -3.997613 L 325.81514 2.001495 L 317.81581 8.002388 Z M 317.81447 -3.997613 " stroke="#ffffff" stroke-width="4" stroke-opacity="1" stroke-miterlimit="4"/></svg>