<svg xmlns="http://www.w3.org/2000/svg" xmlns:xlink="http://www.w3.org/1999/xlink" width="500" zoomAndPan="magnify" viewBox="0 0 375 374.999991" height="500" preserveAspectRatio="xMidYMid meet" version="1.0"><defs><filter x="0%" y="0%" width="100%" height="100%" id="9b84a791b4"><feColorMatrix values="0 0 0 0 1 0 0 0 0 1 0 0 0 0 1 0 0 0 1 0" color-interpolation-filters="sRGB"/></filter><g/><clipPath id="0c6505f62a"><path d="M 1 235.375 L 209 235.375 L 209 255.625 L 1 255.625 Z M 1 235.375 " clip-rule="nonzero"/></clipPath><clipPath id="45f90b02b3"><path d="M 46.363281 236.171875 L 214.902344 236.171875 L 214.902344 256.472656 L 46.363281 256.472656 Z M 46.363281 236.171875 " clip-rule="nonzero"/></clipPath><clipPath id="b14e1f01cd"><path d="M 338.175781 231.425781 L 368 231.425781 L 368 261.425781 L 338.175781 261.425781 Z M 338.175781 231.425781 " clip-rule="nonzero"/></clipPath><clipPath id="2a4a07fd91"><path d="M 345 231.425781 L 374.925781 231.425781 L 374.925781 261.425781 L 345 261.425781 Z M 345 231.425781 " clip-rule="nonzero"/></clipPath><mask id="c7bae9c6c5"><g filter="url(#9b84a791b4)"><rect x="-37.5" width="450" fill="#000000" y="-37.499999" height="449.999989" fill-opacity="0.4"/></g></mask><clipPath id="9489810865"><path d="M 1 0.277344 L 358.652344 0.277344 L 358.652344 133.777344 L 1 133.777344 Z M 1 0.277344 " clip-rule="nonzero"/></clipPath><clipPath id="42773ca62a"><rect x="0" width="359" y="0" height="135"/></clipPath><clipPath id="a6db141edd"><path d="M 79.050781 70.046875 L 285.753906 70.046875 L 285.753906 238.644531 L 79.050781 238.644531 Z M 79.050781 70.046875 " clip-rule="nonzero"/></clipPath></defs><rect x="-37.5" width="450" fill="#ffffff" y="-37.499999" height="449.999989" fill-opacity="1"/><rect x="-37.5" width="450" fill="#000000" y="-37.499999" height="449.999989" fill-opacity="1"/><g clip-path="url(#0c6505f62a)"><path fill="#ffffff" d="M 208.496094 245.4375 C 208.496094 245.429688 208.496094 245.421875 208.496094 245.414062 C 208.492188 245.394531 208.488281 245.378906 208.484375 245.359375 C 208.476562 245.324219 208.472656 245.289062 208.460938 245.253906 C 208.453125 245.226562 208.445312 245.203125 208.433594 245.179688 C 208.421875 245.148438 208.410156 245.117188 208.394531 245.085938 C 208.382812 245.0625 208.371094 245.039062 208.355469 245.015625 C 208.335938 244.988281 208.320312 244.957031 208.300781 244.933594 C 208.285156 244.910156 208.265625 244.890625 208.25 244.871094 C 208.226562 244.847656 208.207031 244.820312 208.183594 244.796875 C 208.164062 244.78125 208.140625 244.761719 208.121094 244.746094 C 208.09375 244.726562 208.070312 244.707031 208.039062 244.6875 C 208.015625 244.671875 207.992188 244.660156 207.96875 244.644531 C 207.941406 244.628906 207.910156 244.617188 207.882812 244.605469 C 207.851562 244.589844 207.824219 244.582031 207.796875 244.574219 C 207.773438 244.566406 207.753906 244.558594 207.730469 244.550781 L 170.03125 235.425781 C 170.027344 235.425781 170.023438 235.425781 170.023438 235.425781 C 170.011719 235.425781 170.003906 235.425781 169.992188 235.421875 C 169.941406 235.410156 169.890625 235.402344 169.835938 235.402344 C 169.816406 235.402344 169.796875 235.402344 169.777344 235.402344 C 169.734375 235.402344 169.695312 235.40625 169.652344 235.410156 C 169.632812 235.414062 169.609375 235.417969 169.589844 235.421875 C 169.550781 235.429688 169.511719 235.441406 169.472656 235.453125 C 169.453125 235.460938 169.433594 235.46875 169.414062 235.476562 C 169.375 235.492188 169.339844 235.511719 169.300781 235.53125 C 169.285156 235.539062 169.265625 235.550781 169.25 235.558594 C 169.214844 235.582031 169.175781 235.609375 169.144531 235.640625 C 169.128906 235.648438 169.117188 235.660156 169.101562 235.671875 C 169.058594 235.714844 169.019531 235.757812 168.980469 235.808594 C 168.972656 235.824219 168.964844 235.835938 168.953125 235.851562 C 168.933594 235.886719 168.910156 235.917969 168.890625 235.953125 C 168.890625 235.960938 168.886719 235.964844 168.886719 235.972656 C 168.882812 235.976562 168.875 235.984375 168.875 235.988281 C 168.867188 236.007812 168.863281 236.023438 168.855469 236.042969 C 168.839844 236.078125 168.828125 236.117188 168.820312 236.152344 C 168.8125 236.175781 168.808594 236.199219 168.804688 236.222656 C 168.796875 236.261719 168.789062 236.300781 168.789062 236.339844 C 168.785156 236.363281 168.785156 236.386719 168.785156 236.40625 C 168.785156 236.449219 168.789062 236.492188 168.792969 236.535156 C 168.796875 236.554688 168.796875 236.570312 168.800781 236.585938 C 168.808594 236.644531 168.824219 236.703125 168.84375 236.757812 C 168.84375 236.757812 168.847656 236.761719 168.847656 236.761719 C 168.867188 236.820312 168.894531 236.878906 168.929688 236.933594 C 168.933594 236.941406 168.941406 236.949219 168.945312 236.957031 C 168.972656 237 169.003906 237.039062 169.035156 237.078125 C 169.050781 237.09375 169.066406 237.109375 169.082031 237.125 C 169.101562 237.144531 169.121094 237.164062 169.140625 237.183594 L 177.261719 244.019531 L 47.28125 244.019531 L 47.28125 243.535156 C 47.28125 242.699219 46.605469 242.019531 45.765625 242.019531 C 44.929688 242.019531 44.253906 242.699219 44.253906 243.535156 L 44.253906 244.019531 L 43.625 244.019531 L 43.625 243.535156 C 43.625 242.699219 42.945312 242.019531 42.109375 242.019531 C 41.273438 242.019531 40.59375 242.699219 40.59375 243.535156 L 40.59375 244.019531 L 40.035156 244.019531 L 34.191406 237.886719 C 34.019531 237.707031 33.777344 237.59375 33.53125 237.578125 L 2.449219 235.402344 C 2.015625 235.371094 1.609375 235.625 1.445312 236.03125 C 1.28125 236.433594 1.394531 236.902344 1.730469 237.183594 L 9.851562 244.019531 L 5.667969 244.019531 C 4.832031 244.019531 4.152344 244.699219 4.152344 245.535156 C 4.152344 246.371094 4.832031 247.050781 5.667969 247.050781 L 9.851562 247.050781 L 1.730469 253.886719 C 1.394531 254.167969 1.28125 254.632812 1.445312 255.039062 C 1.597656 255.417969 1.972656 255.667969 2.378906 255.667969 C 2.402344 255.667969 2.425781 255.667969 2.449219 255.664062 L 33.53125 253.492188 C 33.78125 253.472656 34.019531 253.363281 34.191406 253.179688 L 40.035156 247.046875 L 40.597656 247.046875 L 40.597656 247.535156 C 40.597656 248.371094 41.273438 249.050781 42.109375 249.050781 C 42.949219 249.050781 43.625 248.371094 43.625 247.535156 L 43.625 247.046875 L 44.253906 247.046875 L 44.253906 247.535156 C 44.253906 248.371094 44.933594 249.050781 45.769531 249.050781 C 46.605469 249.050781 47.28125 248.371094 47.28125 247.535156 L 47.28125 247.046875 L 177.261719 247.046875 L 169.140625 253.886719 C 169.121094 253.902344 169.105469 253.921875 169.085938 253.941406 C 169.070312 253.957031 169.050781 253.972656 169.035156 253.992188 C 169.003906 254.03125 168.976562 254.070312 168.949219 254.109375 C 168.941406 254.117188 168.933594 254.128906 168.929688 254.136719 C 168.894531 254.191406 168.867188 254.246094 168.847656 254.304688 C 168.847656 254.308594 168.847656 254.308594 168.84375 254.308594 C 168.824219 254.367188 168.808594 254.421875 168.800781 254.480469 C 168.796875 254.496094 168.796875 254.515625 168.792969 254.53125 C 168.789062 254.574219 168.785156 254.617188 168.785156 254.660156 C 168.785156 254.683594 168.785156 254.703125 168.789062 254.726562 C 168.792969 254.765625 168.796875 254.804688 168.804688 254.84375 C 168.808594 254.867188 168.8125 254.890625 168.820312 254.914062 C 168.828125 254.953125 168.84375 254.992188 168.855469 255.027344 C 168.863281 255.042969 168.867188 255.0625 168.875 255.078125 C 168.878906 255.085938 168.882812 255.09375 168.886719 255.097656 C 168.890625 255.105469 168.890625 255.109375 168.890625 255.113281 C 168.902344 255.128906 168.910156 255.144531 168.917969 255.160156 C 168.933594 255.179688 168.945312 255.203125 168.957031 255.222656 C 168.972656 255.246094 168.988281 255.265625 169.003906 255.285156 C 169.019531 255.300781 169.03125 255.320312 169.042969 255.335938 C 169.066406 255.355469 169.089844 255.378906 169.109375 255.398438 C 169.121094 255.410156 169.132812 255.421875 169.144531 255.429688 C 169.171875 255.457031 169.203125 255.476562 169.234375 255.496094 C 169.242188 255.503906 169.25 255.507812 169.257812 255.511719 C 169.296875 255.535156 169.335938 255.558594 169.375 255.578125 C 169.378906 255.578125 169.378906 255.578125 169.378906 255.578125 C 169.507812 255.636719 169.648438 255.667969 169.792969 255.667969 C 169.800781 255.667969 169.8125 255.664062 169.820312 255.664062 C 169.886719 255.660156 169.953125 255.65625 170.015625 255.640625 C 170.019531 255.640625 170.023438 255.640625 170.03125 255.636719 L 207.730469 246.511719 C 207.75 246.507812 207.761719 246.503906 207.777344 246.496094 C 207.816406 246.484375 207.851562 246.476562 207.886719 246.460938 C 207.910156 246.449219 207.933594 246.4375 207.957031 246.425781 C 207.988281 246.410156 208.015625 246.394531 208.042969 246.375 C 208.070312 246.359375 208.09375 246.34375 208.117188 246.324219 C 208.140625 246.304688 208.164062 246.285156 208.183594 246.265625 C 208.207031 246.246094 208.226562 246.222656 208.246094 246.199219 C 208.265625 246.175781 208.285156 246.15625 208.300781 246.132812 C 208.320312 246.105469 208.339844 246.082031 208.355469 246.054688 C 208.371094 246.03125 208.382812 246.003906 208.398438 245.980469 C 208.410156 245.949219 208.421875 245.917969 208.433594 245.886719 C 208.445312 245.863281 208.453125 245.839844 208.460938 245.8125 C 208.472656 245.777344 208.476562 245.742188 208.484375 245.707031 C 208.488281 245.6875 208.492188 245.671875 208.496094 245.652344 C 208.496094 245.644531 208.496094 245.636719 208.496094 245.628906 C 208.5 245.597656 208.5 245.566406 208.5 245.53125 C 208.5 245.5 208.5 245.46875 208.496094 245.4375 Z M 27.472656 251.890625 L 24.09375 252.128906 L 28.957031 247.046875 L 32.066406 247.046875 L 27.550781 251.789062 C 27.523438 251.820312 27.496094 251.855469 27.472656 251.890625 Z M 17.757812 252.570312 L 23.058594 247.046875 L 26.160156 247.046875 L 21.09375 252.335938 Z M 11.425781 253.011719 L 17.164062 247.046875 L 20.261719 247.046875 L 14.761719 252.78125 Z M 14.757812 238.289062 L 20.261719 244.019531 L 17.164062 244.019531 L 11.425781 238.054688 Z M 21.097656 238.730469 L 26.160156 244.019531 L 23.0625 244.019531 L 17.757812 238.496094 Z M 27.550781 239.28125 L 32.066406 244.019531 L 28.957031 244.019531 L 24.09375 238.941406 L 27.472656 239.175781 C 27.496094 239.210938 27.519531 239.246094 27.550781 239.28125 Z M 37.246094 244.019531 L 34.855469 244.019531 L 30.441406 239.382812 L 33 239.5625 Z M 5.398438 237.632812 L 8.421875 237.84375 L 14.363281 244.019531 L 12.984375 244.019531 Z M 12.984375 247.046875 L 14.363281 247.046875 L 8.421875 253.222656 L 5.402344 253.433594 Z M 33 251.503906 L 30.441406 251.683594 L 34.855469 247.046875 L 37.246094 247.046875 Z M 196.945312 247.046875 L 179.738281 251.210938 L 188.828125 247.046875 Z M 188.832031 244.019531 L 179.738281 239.855469 L 196.945312 244.019531 Z M 176.121094 240.417969 L 183.980469 244.019531 L 180.398438 244.019531 Z M 183.980469 247.046875 L 176.121094 250.648438 L 180.398438 247.046875 Z M 183.980469 247.046875 " fill-opacity="1" fill-rule="nonzero"/></g><g clip-path="url(#45f90b02b3)"><path fill="#000000" d="M 46.363281 236.171875 L 214.890625 236.171875 L 214.890625 256.472656 L 46.363281 256.472656 Z M 46.363281 236.171875 " fill-opacity="1" fill-rule="nonzero"/></g><g clip-path="url(#b14e1f01cd)"><path fill="#ffffff" d="M 367.496094 245.714844 L 338.371094 231.445312 L 346.664062 246.226562 L 338.230469 261.144531 Z M 367.496094 245.714844 " fill-opacity="1" fill-rule="nonzero"/></g><g clip-path="url(#2a4a07fd91)"><path fill="#ffffff" d="M 345.8125 261.125 C 345.734375 261.125 345.65625 261.09375 345.597656 261.035156 C 345.507812 260.9375 345.488281 260.800781 345.546875 260.679688 L 353.710938 246.214844 L 345.695312 231.898438 C 345.625 231.78125 345.648438 231.640625 345.734375 231.542969 C 345.824219 231.445312 345.960938 231.425781 346.082031 231.484375 L 374.597656 245.457031 C 374.695312 245.507812 374.765625 245.605469 374.765625 245.714844 C 374.765625 245.820312 374.703125 245.929688 374.605469 245.980469 L 345.953125 261.09375 C 345.914062 261.113281 345.863281 261.125 345.8125 261.125 Z M 346.671875 232.429688 L 354.3125 246.066406 C 354.363281 246.15625 354.363281 246.265625 354.3125 246.355469 L 346.5625 260.097656 L 373.816406 245.734375 Z M 346.671875 232.429688 " fill-opacity="1" fill-rule="nonzero"/></g><g mask="url(#c7bae9c6c5)"><g transform="matrix(1, 0, 0, 1, 6, 109)"><g clip-path="url(#42773ca62a)"><g clip-path="url(#9489810865)"><path fill="#ffa100" d="M 358.425781 133.953125 L 1.03125 133.953125 L 100.929688 123.597656 L 47.300781 101.890625 L 117.996094 111.816406 L 61.011719 68.828125 L 126.78125 96.75 L 82.792969 40.40625 L 139.0625 84.394531 L 111.140625 18.628906 L 154.199219 75.683594 L 144.273438 4.917969 L 171.050781 71.183594 L 179.765625 0.277344 L 188.476562 71.183594 L 215.253906 4.917969 L 205.328125 75.683594 L 248.316406 18.628906 L 220.394531 84.394531 L 276.738281 40.40625 L 232.75 96.75 L 298.515625 68.828125 L 241.460938 111.816406 L 312.226562 101.890625 L 258.527344 123.597656 Z M 358.425781 133.953125 " fill-opacity="1" fill-rule="evenodd"/></g></g></g></g><g clip-path="url(#a6db141edd)"><path fill="#ffbf00" d="M 182.695312 73.304688 L 188.023438 87.066406 L 182.695312 83.925781 Z M 284.164062 124.386719 C 278.800781 117.714844 272.167969 124.695312 272.167969 124.695312 C 279.777344 120.351562 282.84375 125.335938 283.226562 126.8125 C 284.375 131.273438 281.003906 133.78125 278.355469 134.066406 C 269.644531 135.011719 264.144531 128.511719 262.347656 126.941406 C 252.792969 118.597656 248.566406 103.765625 230.207031 94.773438 C 226.796875 93.101562 223.324219 92.144531 219.886719 91.71875 C 228.117188 88.738281 239.210938 89.898438 239.210938 89.898438 C 226.855469 84.402344 211.351562 90.761719 208.402344 92.078125 C 197.128906 94.03125 187.621094 100.019531 183.988281 102.558594 L 183.988281 85.414062 L 189.441406 88.582031 L 181.871094 70.046875 L 174.296875 88.582031 L 179.753906 85.414062 L 179.753906 101.832031 C 175.535156 99.019531 166.707031 93.863281 156.402344 92.078125 C 153.453125 90.761719 137.953125 84.402344 125.597656 89.898438 C 125.597656 89.898438 136.691406 88.738281 144.921875 91.71875 C 141.480469 92.144531 138.007812 93.101562 134.597656 94.773438 C 116.242188 103.765625 112.015625 118.597656 102.460938 126.941406 C 100.660156 128.511719 95.160156 135.011719 86.449219 134.066406 C 83.800781 133.78125 80.429688 131.273438 81.582031 126.8125 C 81.960938 125.335938 85.03125 120.351562 92.640625 124.695312 C 92.640625 124.695312 86.007812 117.714844 80.640625 124.386719 C 77.421875 128.390625 78.96875 135.871094 86.449219 137.421875 C 86.453125 137.421875 86.453125 137.421875 86.457031 137.421875 C 87.054688 137.542969 87.636719 137.726562 88.1875 137.992188 C 89.273438 138.515625 91.113281 139.40625 92.152344 139.941406 C 93.691406 140.71875 95.542969 141.707031 97.644531 142.890625 C 99.753906 144.0625 102.085938 145.46875 104.621094 147.027344 C 105.867188 147.832031 107.191406 148.640625 108.519531 149.539062 C 109.1875 149.980469 109.867188 150.429688 110.558594 150.890625 C 111.238281 151.359375 111.929688 151.839844 112.632812 152.324219 C 112.984375 152.566406 113.335938 152.808594 113.691406 153.058594 C 114.042969 153.308594 114.394531 153.5625 114.75 153.820312 C 115.457031 154.332031 116.175781 154.847656 116.902344 155.375 C 117.617188 155.914062 118.339844 156.457031 119.074219 157.007812 C 119.800781 157.558594 120.542969 158.109375 121.269531 158.691406 C 122 159.269531 122.734375 159.851562 123.476562 160.4375 C 124.222656 161.019531 124.945312 161.640625 125.6875 162.246094 C 126.421875 162.863281 127.175781 163.460938 127.902344 164.101562 C 128.636719 164.738281 129.371094 165.375 130.109375 166.019531 C 130.476562 166.339844 130.847656 166.660156 131.214844 166.984375 C 131.578125 167.316406 131.941406 167.648438 132.304688 167.980469 C 133.03125 168.644531 133.761719 169.3125 134.492188 169.980469 C 135.21875 170.652344 135.921875 171.351562 136.640625 172.039062 C 137.351562 172.730469 138.082031 173.40625 138.777344 174.117188 C 141.578125 176.9375 144.328125 179.816406 146.910156 182.761719 C 147.554688 183.5 148.195312 184.234375 148.835938 184.964844 C 149.160156 185.328125 149.472656 185.695312 149.773438 186.074219 C 150.082031 186.445312 150.386719 186.816406 150.691406 187.1875 C 151.300781 187.929688 151.90625 188.667969 152.511719 189.402344 C 153.117188 190.128906 153.667969 190.890625 154.246094 191.625 C 154.816406 192.367188 155.378906 193.101562 155.9375 193.828125 L 156.355469 194.371094 L 156.753906 194.925781 C 157.019531 195.292969 157.285156 195.660156 157.546875 196.027344 C 158.070312 196.757812 158.589844 197.476562 159.101562 198.191406 C 159.355469 198.550781 159.617188 198.902344 159.859375 199.257812 C 160.101562 199.621094 160.339844 199.980469 160.578125 200.335938 C 161.519531 201.761719 162.464844 203.136719 163.332031 204.496094 C 164.179688 205.867188 164.996094 207.195312 165.78125 208.464844 C 165.976562 208.785156 166.175781 209.097656 166.359375 209.414062 C 166.539062 209.734375 166.71875 210.050781 166.894531 210.359375 C 167.25 210.980469 167.59375 211.589844 167.929688 212.183594 C 168.265625 212.777344 168.59375 213.355469 168.914062 213.917969 C 169.070312 214.199219 169.226562 214.476562 169.382812 214.75 C 169.527344 215.027344 169.667969 215.300781 169.808594 215.570312 C 170.367188 216.652344 170.890625 217.660156 171.375 218.597656 C 171.859375 219.53125 172.316406 220.382812 172.671875 221.183594 C 174.160156 224.34375 175.007812 226.152344 175.007812 226.152344 C 175.007812 226.152344 174.207031 224.320312 172.804688 221.121094 C 172.46875 220.3125 172.035156 219.445312 171.578125 218.496094 C 171.117188 217.546875 170.621094 216.523438 170.089844 215.425781 C 169.957031 215.152344 169.820312 214.871094 169.683594 214.589844 C 169.539062 214.3125 169.390625 214.03125 169.238281 213.746094 C 168.933594 213.171875 168.621094 212.585938 168.300781 211.980469 C 167.976562 211.378906 167.648438 210.757812 167.3125 210.125 C 167.144531 209.808594 166.972656 209.488281 166.800781 209.164062 C 166.625 208.839844 166.433594 208.523438 166.246094 208.195312 C 165.492188 206.898438 164.707031 205.546875 163.898438 204.148438 C 163.0625 202.761719 162.152344 201.355469 161.242188 199.894531 C 161.011719 199.53125 160.78125 199.164062 160.550781 198.796875 C 160.316406 198.429688 160.0625 198.070312 159.816406 197.703125 C 159.320312 196.972656 158.820312 196.230469 158.3125 195.484375 C 158.058594 195.109375 157.804688 194.734375 157.546875 194.355469 L 157.164062 193.789062 L 156.757812 193.230469 C 156.214844 192.484375 155.667969 191.730469 155.113281 190.972656 C 154.554688 190.214844 154.019531 189.433594 153.429688 188.683594 C 152.84375 187.933594 152.253906 187.171875 151.660156 186.410156 C 151.363281 186.027344 151.066406 185.644531 150.765625 185.261719 C 150.472656 184.875 150.167969 184.492188 149.851562 184.121094 C 149.226562 183.367188 148.601562 182.609375 147.96875 181.851562 C 145.449219 178.8125 142.757812 175.835938 140.007812 172.914062 C 139.324219 172.179688 138.605469 171.476562 137.90625 170.757812 C 137.203125 170.046875 136.507812 169.324219 135.792969 168.625 C 135.074219 167.929688 134.355469 167.234375 133.640625 166.542969 C 133.28125 166.199219 132.925781 165.855469 132.570312 165.511719 C 132.203125 165.171875 131.839844 164.839844 131.476562 164.503906 C 130.75 163.835938 130.023438 163.167969 129.300781 162.507812 C 128.582031 161.84375 127.835938 161.214844 127.109375 160.574219 C 126.375 159.941406 125.664062 159.289062 124.925781 158.683594 C 124.191406 158.070312 123.460938 157.460938 122.738281 156.855469 C 122.019531 156.246094 121.289062 155.667969 120.5625 155.09375 C 119.839844 154.515625 119.121094 153.945312 118.410156 153.378906 C 117.691406 152.832031 116.976562 152.285156 116.273438 151.75 C 115.921875 151.480469 115.570312 151.210938 115.222656 150.945312 C 114.871094 150.6875 114.519531 150.429688 114.171875 150.175781 C 113.472656 149.667969 112.785156 149.164062 112.109375 148.667969 C 111.421875 148.183594 110.742188 147.707031 110.078125 147.238281 C 108.753906 146.292969 107.4375 145.4375 106.1875 144.585938 C 103.660156 142.933594 101.328125 141.441406 99.214844 140.191406 C 97.3125 139.050781 95.609375 138.082031 94.152344 137.28125 C 98.382812 136.363281 102.835938 134.132812 107.257812 130.714844 C 110.945312 127.859375 114.253906 124.140625 117.582031 120.28125 C 116.613281 123.566406 116.117188 127.078125 116.476562 130.640625 C 116.476562 130.640625 117.207031 127.265625 118.785156 123.085938 C 121.417969 116.117188 126.023438 110.023438 132.085938 105.695312 C 138.875 100.84375 147.175781 98.300781 158.789062 101.371094 C 156.042969 101.558594 153.277344 102.113281 150.640625 103.203125 C 150.640625 103.203125 150.9375 103.179688 151.472656 103.15625 C 160.5625 102.742188 169.582031 105 177.390625 109.667969 C 178.167969 110.132812 178.953125 110.617188 179.753906 111.117188 L 179.753906 227.75 L 175.25 230.53125 C 175.035156 230.664062 174.902344 230.898438 174.902344 231.152344 L 174.902344 231.167969 C 174.902344 231.730469 175.511719 232.082031 176 231.800781 L 181.132812 228.835938 L 181.132812 230.519531 L 175.269531 233.90625 C 175.042969 234.039062 174.902344 234.277344 174.902344 234.539062 C 174.902344 235.101562 175.511719 235.453125 176 235.171875 L 181.132812 232.207031 L 181.132812 233.890625 L 175.269531 237.28125 C 175.042969 237.410156 174.902344 237.652344 174.902344 237.914062 C 174.902344 238.472656 175.511719 238.824219 176 238.542969 L 181.132812 235.578125 L 181.132812 236.570312 C 181.132812 236.972656 181.464844 237.304688 181.867188 237.304688 C 182.273438 237.304688 182.601562 236.972656 182.601562 236.570312 L 182.601562 235.578125 L 187.738281 238.542969 C 188.226562 238.824219 188.835938 238.472656 188.835938 237.914062 C 188.835938 237.652344 188.695312 237.410156 188.46875 237.28125 L 182.601562 233.890625 L 182.601562 232.207031 L 187.738281 235.171875 C 188.226562 235.453125 188.835938 235.101562 188.835938 234.539062 C 188.835938 234.277344 188.695312 234.039062 188.46875 233.90625 L 182.601562 230.519531 L 182.601562 228.835938 L 187.738281 231.800781 C 188.226562 232.082031 188.835938 231.730469 188.835938 231.167969 L 188.835938 231.152344 C 188.835938 230.898438 188.703125 230.664062 188.488281 230.53125 L 183.988281 227.75 L 183.988281 111.796875 C 185.152344 111.050781 186.296875 110.339844 187.414062 109.667969 C 195.222656 105 204.246094 102.742188 213.332031 103.15625 C 213.871094 103.179688 214.167969 103.203125 214.167969 103.203125 C 211.527344 102.113281 208.765625 101.558594 206.015625 101.371094 C 217.632812 98.300781 225.933594 100.84375 232.71875 105.695312 C 238.78125 110.023438 243.390625 116.117188 246.019531 123.085938 C 247.597656 127.265625 248.328125 130.640625 248.328125 130.640625 C 248.691406 127.078125 248.191406 123.566406 247.226562 120.28125 C 250.550781 124.140625 253.863281 127.859375 257.550781 130.714844 C 261.96875 134.132812 266.425781 136.363281 270.65625 137.28125 C 269.195312 138.082031 267.496094 139.050781 265.59375 140.191406 C 263.476562 141.441406 261.144531 142.933594 258.617188 144.585938 C 257.371094 145.4375 256.050781 146.292969 254.726562 147.238281 C 254.0625 147.707031 253.386719 148.183594 252.699219 148.667969 C 252.023438 149.164062 251.335938 149.667969 250.636719 150.175781 C 250.289062 150.429688 249.9375 150.6875 249.582031 150.945312 C 249.234375 151.210938 248.886719 151.480469 248.53125 151.75 C 247.828125 152.285156 247.117188 152.832031 246.394531 153.378906 C 245.683594 153.945312 244.964844 154.515625 244.242188 155.09375 C 243.519531 155.667969 242.785156 156.246094 242.066406 156.855469 C 241.34375 157.460938 240.617188 158.070312 239.882812 158.683594 C 239.144531 159.289062 238.429688 159.941406 237.699219 160.574219 C 236.972656 161.214844 236.226562 161.84375 235.503906 162.507812 C 234.785156 163.167969 234.058594 163.835938 233.328125 164.503906 C 232.964844 164.839844 232.601562 165.171875 232.238281 165.511719 C 231.882812 165.855469 231.523438 166.199219 231.164062 166.542969 C 230.449219 167.234375 229.730469 167.929688 229.011719 168.625 C 228.300781 169.324219 227.605469 170.046875 226.898438 170.757812 C 226.199219 171.476562 225.484375 172.179688 224.800781 172.914062 C 222.050781 175.835938 219.355469 178.8125 216.835938 181.851562 C 216.207031 182.609375 215.578125 183.367188 214.957031 184.121094 C 214.640625 184.492188 214.335938 184.875 214.039062 185.261719 C 213.742188 185.644531 213.445312 186.027344 213.148438 186.410156 C 212.554688 187.171875 211.964844 187.933594 211.378906 188.683594 C 210.789062 189.433594 210.25 190.214844 209.691406 190.972656 C 209.140625 191.730469 208.59375 192.484375 208.050781 193.230469 L 207.644531 193.789062 L 207.257812 194.355469 C 207 194.734375 206.746094 195.109375 206.492188 195.484375 C 205.984375 196.230469 205.484375 196.972656 204.988281 197.703125 C 204.742188 198.070312 204.492188 198.429688 204.253906 198.796875 C 204.023438 199.164062 203.792969 199.53125 203.5625 199.894531 C 202.652344 201.355469 201.742188 202.761719 200.910156 204.148438 C 200.097656 205.546875 199.3125 206.898438 198.558594 208.195312 C 198.375 208.523438 198.179688 208.839844 198.007812 209.164062 C 197.835938 209.488281 197.664062 209.808594 197.496094 210.125 C 197.15625 210.757812 196.828125 211.378906 196.507812 211.980469 C 196.1875 212.585938 195.871094 213.171875 195.570312 213.746094 C 195.417969 214.03125 195.269531 214.3125 195.121094 214.589844 C 194.984375 214.871094 194.851562 215.152344 194.714844 215.425781 C 194.183594 216.523438 193.6875 217.546875 193.226562 218.496094 C 192.769531 219.445312 192.335938 220.3125 192 221.121094 C 190.597656 224.320312 189.796875 226.152344 189.796875 226.152344 C 189.796875 226.152344 190.648438 224.34375 192.132812 221.183594 C 192.492188 220.382812 192.949219 219.53125 193.429688 218.597656 C 193.914062 217.660156 194.4375 216.652344 195 215.570312 C 195.136719 215.300781 195.28125 215.027344 195.425781 214.75 C 195.578125 214.476562 195.734375 214.199219 195.894531 213.917969 C 196.210938 213.355469 196.539062 212.777344 196.875 212.183594 C 197.214844 211.589844 197.558594 210.980469 197.910156 210.359375 C 198.089844 210.050781 198.265625 209.734375 198.445312 209.414062 C 198.628906 209.097656 198.832031 208.785156 199.023438 208.464844 C 199.808594 207.195312 200.628906 205.867188 201.472656 204.496094 C 202.339844 203.136719 203.285156 201.761719 204.230469 200.335938 C 204.46875 199.980469 204.707031 199.621094 204.945312 199.257812 C 205.191406 198.902344 205.453125 198.550781 205.707031 198.191406 C 206.21875 197.476562 206.738281 196.757812 207.261719 196.027344 C 207.523438 195.660156 207.789062 195.292969 208.050781 194.925781 L 208.449219 194.371094 L 208.867188 193.828125 C 209.429688 193.101562 209.992188 192.367188 210.5625 191.625 C 211.136719 190.890625 211.691406 190.128906 212.296875 189.402344 C 212.898438 188.667969 213.503906 187.929688 214.113281 187.1875 C 214.417969 186.816406 214.726562 186.445312 215.03125 186.074219 C 215.335938 185.695312 215.648438 185.328125 215.972656 184.964844 C 216.609375 184.234375 217.25 183.5 217.898438 182.761719 C 220.476562 179.816406 223.226562 176.9375 226.03125 174.117188 C 226.726562 173.40625 227.457031 172.730469 228.167969 172.039062 C 228.886719 171.351562 229.589844 170.652344 230.316406 169.980469 C 231.046875 169.3125 231.773438 168.644531 232.503906 167.980469 C 232.867188 167.648438 233.226562 167.316406 233.589844 166.984375 C 233.960938 166.660156 234.328125 166.339844 234.699219 166.019531 C 235.4375 165.375 236.171875 164.738281 236.902344 164.101562 C 237.632812 163.460938 238.386719 162.863281 239.121094 162.246094 C 239.863281 161.640625 240.585938 161.019531 241.328125 160.4375 C 242.070312 159.851562 242.808594 159.269531 243.539062 158.691406 C 244.265625 158.109375 245.003906 157.558594 245.734375 157.007812 C 246.464844 156.457031 247.1875 155.914062 247.902344 155.375 C 248.628906 154.847656 249.347656 154.332031 250.058594 153.820312 C 250.414062 153.5625 250.765625 153.308594 251.113281 153.058594 C 251.472656 152.808594 251.824219 152.566406 252.175781 152.324219 C 252.875 151.839844 253.566406 151.359375 254.25 150.890625 C 254.9375 150.429688 255.617188 149.980469 256.285156 149.539062 C 257.613281 148.640625 258.9375 147.832031 260.1875 147.027344 C 262.71875 145.46875 265.050781 144.0625 267.160156 142.890625 C 269.261719 141.707031 271.117188 140.71875 272.65625 139.941406 C 273.695312 139.40625 275.535156 138.515625 276.621094 137.992188 C 277.167969 137.726562 277.753906 137.542969 278.347656 137.421875 C 278.351562 137.421875 278.355469 137.421875 278.355469 137.421875 C 285.839844 135.871094 287.386719 128.390625 284.164062 124.386719 " fill-opacity="1" fill-rule="nonzero"/></g><g fill="#ff8a00" fill-opacity="0.302"><g transform="translate(48.810682, 240.402336)"><g><path d="M 2.84375 -49.890625 L 12.125 -49.890625 C 15.6875 -49.890625 18.414062 -48.890625 20.3125 -46.890625 C 22.21875 -44.898438 23.171875 -41.742188 23.171875 -37.421875 L 23.171875 -32.4375 C 23.171875 -30.34375 22.976562 -28.664062 22.59375 -27.40625 C 22.21875 -26.144531 21.816406 -25.132812 21.390625 -24.375 C 20.859375 -23.519531 20.265625 -22.878906 19.609375 -22.453125 L 24.234375 0 L 16.03125 0 L 12.125 -19.953125 L 10.6875 -19.953125 L 10.6875 0 L 2.84375 0 Z M 12.125 -27.09375 C 13.019531 -27.09375 13.773438 -27.472656 14.390625 -28.234375 C 15.015625 -28.992188 15.328125 -30.273438 15.328125 -32.078125 L 15.328125 -37.78125 C 15.328125 -39.582031 15.015625 -40.863281 14.390625 -41.625 C 13.773438 -42.382812 13.019531 -42.765625 12.125 -42.765625 L 10.6875 -42.765625 L 10.6875 -27.09375 Z M 12.125 -27.09375 "/></g></g></g><g fill="#ff8a00" fill-opacity="0.302"><g transform="translate(77.107922, 240.402336)"><g><path d="M 7.125 -49.890625 L 17.8125 -49.890625 L 23.875 0 L 16.03125 0 L 15.046875 -9.984375 L 9.125 -9.984375 L 8.203125 0 L 0.359375 0 Z M 14.328125 -17.46875 L 12.6875 -33.859375 C 12.539062 -35.472656 12.441406 -36.910156 12.390625 -38.171875 C 12.347656 -39.429688 12.304688 -40.609375 12.265625 -41.703125 L 11.96875 -41.703125 C 11.925781 -40.609375 11.859375 -39.429688 11.765625 -38.171875 C 11.671875 -36.910156 11.550781 -35.472656 11.40625 -33.859375 L 9.84375 -17.46875 Z M 14.328125 -17.46875 "/></g></g></g><g fill="#ff8a00" fill-opacity="0.302"><g transform="translate(104.336013, 240.402336)"><g><path d="M 3.921875 -49.890625 L 12.828125 -49.890625 L 15.6875 -28.875 L 16.6875 -21.390625 L 16.890625 -21.390625 C 16.984375 -22.242188 17.078125 -23.097656 17.171875 -23.953125 C 17.273438 -24.710938 17.375 -25.519531 17.46875 -26.375 C 17.5625 -27.226562 17.675781 -28.0625 17.8125 -28.875 L 21.03125 -49.890625 L 29.9375 -49.890625 L 31.359375 0 L 23.515625 0 L 23.515625 -22.8125 C 23.515625 -24.039062 23.515625 -25.472656 23.515625 -27.109375 C 23.515625 -28.753906 23.539062 -30.316406 23.59375 -31.796875 C 23.644531 -33.503906 23.691406 -35.257812 23.734375 -37.0625 L 23.515625 -37.0625 L 19.25 -8.546875 L 13.90625 -8.546875 L 9.984375 -37.0625 L 9.765625 -37.0625 C 9.765625 -35.257812 9.789062 -33.503906 9.84375 -31.796875 C 9.882812 -30.316406 9.914062 -28.753906 9.9375 -27.109375 C 9.96875 -25.472656 9.984375 -24.039062 9.984375 -22.8125 L 9.984375 0 L 2.140625 0 Z M 3.921875 -49.890625 "/></g></g></g><g fill="#ff8a00" fill-opacity="0.302"><g transform="translate(140.83003, 240.402336)"><g><path d="M 7.125 -49.890625 L 17.8125 -49.890625 L 23.875 0 L 16.03125 0 L 15.046875 -9.984375 L 9.125 -9.984375 L 8.203125 0 L 0.359375 0 Z M 14.328125 -17.46875 L 12.6875 -33.859375 C 12.539062 -35.472656 12.441406 -36.910156 12.390625 -38.171875 C 12.347656 -39.429688 12.304688 -40.609375 12.265625 -41.703125 L 11.96875 -41.703125 C 11.925781 -40.609375 11.859375 -39.429688 11.765625 -38.171875 C 11.671875 -36.910156 11.550781 -35.472656 11.40625 -33.859375 L 9.84375 -17.46875 Z M 14.328125 -17.46875 "/></g></g></g><g fill="#ff8a00" fill-opacity="0.502"><g transform="translate(51.392923, 239.710419)"><g><path d="M 2.84375 -49.890625 L 12.125 -49.890625 C 15.6875 -49.890625 18.414062 -48.890625 20.3125 -46.890625 C 22.21875 -44.898438 23.171875 -41.742188 23.171875 -37.421875 L 23.171875 -32.4375 C 23.171875 -30.34375 22.976562 -28.664062 22.59375 -27.40625 C 22.21875 -26.144531 21.816406 -25.132812 21.390625 -24.375 C 20.859375 -23.519531 20.265625 -22.878906 19.609375 -22.453125 L 24.234375 0 L 16.03125 0 L 12.125 -19.953125 L 10.6875 -19.953125 L 10.6875 0 L 2.84375 0 Z M 12.125 -27.09375 C 13.019531 -27.09375 13.773438 -27.472656 14.390625 -28.234375 C 15.015625 -28.992188 15.328125 -30.273438 15.328125 -32.078125 L 15.328125 -37.78125 C 15.328125 -39.582031 15.015625 -40.863281 14.390625 -41.625 C 13.773438 -42.382812 13.019531 -42.765625 12.125 -42.765625 L 10.6875 -42.765625 L 10.6875 -27.09375 Z M 12.125 -27.09375 "/></g></g></g><g fill="#ff8a00" fill-opacity="0.502"><g transform="translate(79.690163, 239.710419)"><g><path d="M 7.125 -49.890625 L 17.8125 -49.890625 L 23.875 0 L 16.03125 0 L 15.046875 -9.984375 L 9.125 -9.984375 L 8.203125 0 L 0.359375 0 Z M 14.328125 -17.46875 L 12.6875 -33.859375 C 12.539062 -35.472656 12.441406 -36.910156 12.390625 -38.171875 C 12.347656 -39.429688 12.304688 -40.609375 12.265625 -41.703125 L 11.96875 -41.703125 C 11.925781 -40.609375 11.859375 -39.429688 11.765625 -38.171875 C 11.671875 -36.910156 11.550781 -35.472656 11.40625 -33.859375 L 9.84375 -17.46875 Z M 14.328125 -17.46875 "/></g></g></g><g fill="#ff8a00" fill-opacity="0.502"><g transform="translate(106.918255, 239.710419)"><g><path d="M 3.921875 -49.890625 L 12.828125 -49.890625 L 15.6875 -28.875 L 16.6875 -21.390625 L 16.890625 -21.390625 C 16.984375 -22.242188 17.078125 -23.097656 17.171875 -23.953125 C 17.273438 -24.710938 17.375 -25.519531 17.46875 -26.375 C 17.5625 -27.226562 17.675781 -28.0625 17.8125 -28.875 L 21.03125 -49.890625 L 29.9375 -49.890625 L 31.359375 0 L 23.515625 0 L 23.515625 -22.8125 C 23.515625 -24.039062 23.515625 -25.472656 23.515625 -27.109375 C 23.515625 -28.753906 23.539062 -30.316406 23.59375 -31.796875 C 23.644531 -33.503906 23.691406 -35.257812 23.734375 -37.0625 L 23.515625 -37.0625 L 19.25 -8.546875 L 13.90625 -8.546875 L 9.984375 -37.0625 L 9.765625 -37.0625 C 9.765625 -35.257812 9.789062 -33.503906 9.84375 -31.796875 C 9.882812 -30.316406 9.914062 -28.753906 9.9375 -27.109375 C 9.96875 -25.472656 9.984375 -24.039062 9.984375 -22.8125 L 9.984375 0 L 2.140625 0 Z M 3.921875 -49.890625 "/></g></g></g><g fill="#ff8a00" fill-opacity="0.502"><g transform="translate(143.412271, 239.710419)"><g><path d="M 7.125 -49.890625 L 17.8125 -49.890625 L 23.875 0 L 16.03125 0 L 15.046875 -9.984375 L 9.125 -9.984375 L 8.203125 0 L 0.359375 0 Z M 14.328125 -17.46875 L 12.6875 -33.859375 C 12.539062 -35.472656 12.441406 -36.910156 12.390625 -38.171875 C 12.347656 -39.429688 12.304688 -40.609375 12.265625 -41.703125 L 11.96875 -41.703125 C 11.925781 -40.609375 11.859375 -39.429688 11.765625 -38.171875 C 11.671875 -36.910156 11.550781 -35.472656 11.40625 -33.859375 L 9.84375 -17.46875 Z M 14.328125 -17.46875 "/></g></g></g><g fill="#ffffff" fill-opacity="1"><g transform="translate(53.975165, 239.018513)"><g><path d="M 2.84375 -49.890625 L 12.125 -49.890625 C 15.6875 -49.890625 18.414062 -48.890625 20.3125 -46.890625 C 22.21875 -44.898438 23.171875 -41.742188 23.171875 -37.421875 L 23.171875 -32.4375 C 23.171875 -30.34375 22.976562 -28.664062 22.59375 -27.40625 C 22.21875 -26.144531 21.816406 -25.132812 21.390625 -24.375 C 20.859375 -23.519531 20.265625 -22.878906 19.609375 -22.453125 L 24.234375 0 L 16.03125 0 L 12.125 -19.953125 L 10.6875 -19.953125 L 10.6875 0 L 2.84375 0 Z M 12.125 -27.09375 C 13.019531 -27.09375 13.773438 -27.472656 14.390625 -28.234375 C 15.015625 -28.992188 15.328125 -30.273438 15.328125 -32.078125 L 15.328125 -37.78125 C 15.328125 -39.582031 15.015625 -40.863281 14.390625 -41.625 C 13.773438 -42.382812 13.019531 -42.765625 12.125 -42.765625 L 10.6875 -42.765625 L 10.6875 -27.09375 Z M 12.125 -27.09375 "/></g></g></g><g fill="#ffffff" fill-opacity="1"><g transform="translate(82.272405, 239.018513)"><g><path d="M 7.125 -49.890625 L 17.8125 -49.890625 L 23.875 0 L 16.03125 0 L 15.046875 -9.984375 L 9.125 -9.984375 L 8.203125 0 L 0.359375 0 Z M 14.328125 -17.46875 L 12.6875 -33.859375 C 12.539062 -35.472656 12.441406 -36.910156 12.390625 -38.171875 C 12.347656 -39.429688 12.304688 -40.609375 12.265625 -41.703125 L 11.96875 -41.703125 C 11.925781 -40.609375 11.859375 -39.429688 11.765625 -38.171875 C 11.671875 -36.910156 11.550781 -35.472656 11.40625 -33.859375 L 9.84375 -17.46875 Z M 14.328125 -17.46875 "/></g></g></g><g fill="#ffffff" fill-opacity="1"><g transform="translate(109.500496, 239.018513)"><g><path d="M 3.921875 -49.890625 L 12.828125 -49.890625 L 15.6875 -28.875 L 16.6875 -21.390625 L 16.890625 -21.390625 C 16.984375 -22.242188 17.078125 -23.097656 17.171875 -23.953125 C 17.273438 -24.710938 17.375 -25.519531 17.46875 -26.375 C 17.5625 -27.226562 17.675781 -28.0625 17.8125 -28.875 L 21.03125 -49.890625 L 29.9375 -49.890625 L 31.359375 0 L 23.515625 0 L 23.515625 -22.8125 C 23.515625 -24.039062 23.515625 -25.472656 23.515625 -27.109375 C 23.515625 -28.753906 23.539062 -30.316406 23.59375 -31.796875 C 23.644531 -33.503906 23.691406 -35.257812 23.734375 -37.0625 L 23.515625 -37.0625 L 19.25 -8.546875 L 13.90625 -8.546875 L 9.984375 -37.0625 L 9.765625 -37.0625 C 9.765625 -35.257812 9.789062 -33.503906 9.84375 -31.796875 C 9.882812 -30.316406 9.914062 -28.753906 9.9375 -27.109375 C 9.96875 -25.472656 9.984375 -24.039062 9.984375 -22.8125 L 9.984375 0 L 2.140625 0 Z M 3.921875 -49.890625 "/></g></g></g><g fill="#ffffff" fill-opacity="1"><g transform="translate(145.994513, 239.018513)"><g><path d="M 7.125 -49.890625 L 17.8125 -49.890625 L 23.875 0 L 16.03125 0 L 15.046875 -9.984375 L 9.125 -9.984375 L 8.203125 0 L 0.359375 0 Z M 14.328125 -17.46875 L 12.6875 -33.859375 C 12.539062 -35.472656 12.441406 -36.910156 12.390625 -38.171875 C 12.347656 -39.429688 12.304688 -40.609375 12.265625 -41.703125 L 11.96875 -41.703125 C 11.925781 -40.609375 11.859375 -39.429688 11.765625 -38.171875 C 11.671875 -36.910156 11.550781 -35.472656 11.40625 -33.859375 L 9.84375 -17.46875 Z M 14.328125 -17.46875 "/></g></g></g><g fill="#ff8a00" fill-opacity="0.302"><g transform="translate(197.174497, 240.402336)"><g><path d="M 2.84375 -49.890625 L 12.125 -49.890625 C 15.6875 -49.890625 18.414062 -48.890625 20.3125 -46.890625 C 22.21875 -44.898438 23.171875 -41.742188 23.171875 -37.421875 L 23.171875 -32.4375 C 23.171875 -30.34375 22.976562 -28.664062 22.59375 -27.40625 C 22.21875 -26.144531 21.816406 -25.132812 21.390625 -24.375 C 20.859375 -23.519531 20.265625 -22.878906 19.609375 -22.453125 L 24.234375 0 L 16.03125 0 L 12.125 -19.953125 L 10.6875 -19.953125 L 10.6875 0 L 2.84375 0 Z M 12.125 -27.09375 C 13.019531 -27.09375 13.773438 -27.472656 14.390625 -28.234375 C 15.015625 -28.992188 15.328125 -30.273438 15.328125 -32.078125 L 15.328125 -37.78125 C 15.328125 -39.582031 15.015625 -40.863281 14.390625 -41.625 C 13.773438 -42.382812 13.019531 -42.765625 12.125 -42.765625 L 10.6875 -42.765625 L 10.6875 -27.09375 Z M 12.125 -27.09375 "/></g></g></g><g fill="#ff8a00" fill-opacity="0.302"><g transform="translate(225.471737, 240.402336)"><g><path d="M 2.84375 -49.890625 L 18.171875 -49.890625 L 18.171875 -42.40625 L 10.6875 -42.40625 L 10.6875 -28.875 L 17.46875 -28.875 L 17.46875 -21.390625 L 10.6875 -21.390625 L 10.6875 -7.484375 L 18.53125 -7.484375 L 18.53125 0 L 2.84375 0 Z M 2.84375 -49.890625 "/></g></g></g><g fill="#ff8a00" fill-opacity="0.302"><g transform="translate(248.423246, 240.402336)"><g><path d="M 7.125 -49.890625 L 17.8125 -49.890625 L 23.875 0 L 16.03125 0 L 15.046875 -9.984375 L 9.125 -9.984375 L 8.203125 0 L 0.359375 0 Z M 14.328125 -17.46875 L 12.6875 -33.859375 C 12.539062 -35.472656 12.441406 -36.910156 12.390625 -38.171875 C 12.347656 -39.429688 12.304688 -40.609375 12.265625 -41.703125 L 11.96875 -41.703125 C 11.925781 -40.609375 11.859375 -39.429688 11.765625 -38.171875 C 11.671875 -36.910156 11.550781 -35.472656 11.40625 -33.859375 L 9.84375 -17.46875 Z M 14.328125 -17.46875 "/></g></g></g><g fill="#ff8a00" fill-opacity="0.302"><g transform="translate(275.651337, 240.402336)"><g><path d="M 2.84375 -49.890625 L 10.6875 -49.890625 L 10.6875 -7.484375 L 18.53125 -7.484375 L 18.53125 0 L 2.84375 0 Z M 2.84375 -49.890625 "/></g></g></g><g fill="#ff8a00" fill-opacity="0.302"><g transform="translate(297.177318, 240.402336)"><g><path d="M 3.921875 -49.890625 L 12.828125 -49.890625 L 15.6875 -28.875 L 16.6875 -21.390625 L 16.890625 -21.390625 C 16.984375 -22.242188 17.078125 -23.097656 17.171875 -23.953125 C 17.273438 -24.710938 17.375 -25.519531 17.46875 -26.375 C 17.5625 -27.226562 17.675781 -28.0625 17.8125 -28.875 L 21.03125 -49.890625 L 29.9375 -49.890625 L 31.359375 0 L 23.515625 0 L 23.515625 -22.8125 C 23.515625 -24.039062 23.515625 -25.472656 23.515625 -27.109375 C 23.515625 -28.753906 23.539062 -30.316406 23.59375 -31.796875 C 23.644531 -33.503906 23.691406 -35.257812 23.734375 -37.0625 L 23.515625 -37.0625 L 19.25 -8.546875 L 13.90625 -8.546875 L 9.984375 -37.0625 L 9.765625 -37.0625 C 9.765625 -35.257812 9.789062 -33.503906 9.84375 -31.796875 C 9.882812 -30.316406 9.914062 -28.753906 9.9375 -27.109375 C 9.96875 -25.472656 9.984375 -24.039062 9.984375 -22.8125 L 9.984375 0 L 2.140625 0 Z M 3.921875 -49.890625 "/></g></g></g><g fill="#ff8a00" fill-opacity="0.502"><g transform="translate(194.592256, 239.710419)"><g><path d="M 2.84375 -49.890625 L 12.125 -49.890625 C 15.6875 -49.890625 18.414062 -48.890625 20.3125 -46.890625 C 22.21875 -44.898438 23.171875 -41.742188 23.171875 -37.421875 L 23.171875 -32.4375 C 23.171875 -30.34375 22.976562 -28.664062 22.59375 -27.40625 C 22.21875 -26.144531 21.816406 -25.132812 21.390625 -24.375 C 20.859375 -23.519531 20.265625 -22.878906 19.609375 -22.453125 L 24.234375 0 L 16.03125 0 L 12.125 -19.953125 L 10.6875 -19.953125 L 10.6875 0 L 2.84375 0 Z M 12.125 -27.09375 C 13.019531 -27.09375 13.773438 -27.472656 14.390625 -28.234375 C 15.015625 -28.992188 15.328125 -30.273438 15.328125 -32.078125 L 15.328125 -37.78125 C 15.328125 -39.582031 15.015625 -40.863281 14.390625 -41.625 C 13.773438 -42.382812 13.019531 -42.765625 12.125 -42.765625 L 10.6875 -42.765625 L 10.6875 -27.09375 Z M 12.125 -27.09375 "/></g></g></g><g fill="#ff8a00" fill-opacity="0.502"><g transform="translate(222.889496, 239.710419)"><g><path d="M 2.84375 -49.890625 L 18.171875 -49.890625 L 18.171875 -42.40625 L 10.6875 -42.40625 L 10.6875 -28.875 L 17.46875 -28.875 L 17.46875 -21.390625 L 10.6875 -21.390625 L 10.6875 -7.484375 L 18.53125 -7.484375 L 18.53125 0 L 2.84375 0 Z M 2.84375 -49.890625 "/></g></g></g><g fill="#ff8a00" fill-opacity="0.502"><g transform="translate(245.841004, 239.710419)"><g><path d="M 7.125 -49.890625 L 17.8125 -49.890625 L 23.875 0 L 16.03125 0 L 15.046875 -9.984375 L 9.125 -9.984375 L 8.203125 0 L 0.359375 0 Z M 14.328125 -17.46875 L 12.6875 -33.859375 C 12.539062 -35.472656 12.441406 -36.910156 12.390625 -38.171875 C 12.347656 -39.429688 12.304688 -40.609375 12.265625 -41.703125 L 11.96875 -41.703125 C 11.925781 -40.609375 11.859375 -39.429688 11.765625 -38.171875 C 11.671875 -36.910156 11.550781 -35.472656 11.40625 -33.859375 L 9.84375 -17.46875 Z M 14.328125 -17.46875 "/></g></g></g><g fill="#ff8a00" fill-opacity="0.502"><g transform="translate(273.069096, 239.710419)"><g><path d="M 2.84375 -49.890625 L 10.6875 -49.890625 L 10.6875 -7.484375 L 18.53125 -7.484375 L 18.53125 0 L 2.84375 0 Z M 2.84375 -49.890625 "/></g></g></g><g fill="#ff8a00" fill-opacity="0.502"><g transform="translate(294.595077, 239.710419)"><g><path d="M 3.921875 -49.890625 L 12.828125 -49.890625 L 15.6875 -28.875 L 16.6875 -21.390625 L 16.890625 -21.390625 C 16.984375 -22.242188 17.078125 -23.097656 17.171875 -23.953125 C 17.273438 -24.710938 17.375 -25.519531 17.46875 -26.375 C 17.5625 -27.226562 17.675781 -28.0625 17.8125 -28.875 L 21.03125 -49.890625 L 29.9375 -49.890625 L 31.359375 0 L 23.515625 0 L 23.515625 -22.8125 C 23.515625 -24.039062 23.515625 -25.472656 23.515625 -27.109375 C 23.515625 -28.753906 23.539062 -30.316406 23.59375 -31.796875 C 23.644531 -33.503906 23.691406 -35.257812 23.734375 -37.0625 L 23.515625 -37.0625 L 19.25 -8.546875 L 13.90625 -8.546875 L 9.984375 -37.0625 L 9.765625 -37.0625 C 9.765625 -35.257812 9.789062 -33.503906 9.84375 -31.796875 C 9.882812 -30.316406 9.914062 -28.753906 9.9375 -27.109375 C 9.96875 -25.472656 9.984375 -24.039062 9.984375 -22.8125 L 9.984375 0 L 2.140625 0 Z M 3.921875 -49.890625 "/></g></g></g><g fill="#ffffff" fill-opacity="1"><g transform="translate(192.010014, 239.018513)"><g><path d="M 2.84375 -49.890625 L 12.125 -49.890625 C 15.6875 -49.890625 18.414062 -48.890625 20.3125 -46.890625 C 22.21875 -44.898438 23.171875 -41.742188 23.171875 -37.421875 L 23.171875 -32.4375 C 23.171875 -30.34375 22.976562 -28.664062 22.59375 -27.40625 C 22.21875 -26.144531 21.816406 -25.132812 21.390625 -24.375 C 20.859375 -23.519531 20.265625 -22.878906 19.609375 -22.453125 L 24.234375 0 L 16.03125 0 L 12.125 -19.953125 L 10.6875 -19.953125 L 10.6875 0 L 2.84375 0 Z M 12.125 -27.09375 C 13.019531 -27.09375 13.773438 -27.472656 14.390625 -28.234375 C 15.015625 -28.992188 15.328125 -30.273438 15.328125 -32.078125 L 15.328125 -37.78125 C 15.328125 -39.582031 15.015625 -40.863281 14.390625 -41.625 C 13.773438 -42.382812 13.019531 -42.765625 12.125 -42.765625 L 10.6875 -42.765625 L 10.6875 -27.09375 Z M 12.125 -27.09375 "/></g></g></g><g fill="#ffffff" fill-opacity="1"><g transform="translate(220.307254, 239.018513)"><g><path d="M 2.84375 -49.890625 L 18.171875 -49.890625 L 18.171875 -42.40625 L 10.6875 -42.40625 L 10.6875 -28.875 L 17.46875 -28.875 L 17.46875 -21.390625 L 10.6875 -21.390625 L 10.6875 -7.484375 L 18.53125 -7.484375 L 18.53125 0 L 2.84375 0 Z M 2.84375 -49.890625 "/></g></g></g><g fill="#ffffff" fill-opacity="1"><g transform="translate(243.258763, 239.018513)"><g><path d="M 7.125 -49.890625 L 17.8125 -49.890625 L 23.875 0 L 16.03125 0 L 15.046875 -9.984375 L 9.125 -9.984375 L 8.203125 0 L 0.359375 0 Z M 14.328125 -17.46875 L 12.6875 -33.859375 C 12.539062 -35.472656 12.441406 -36.910156 12.390625 -38.171875 C 12.347656 -39.429688 12.304688 -40.609375 12.265625 -41.703125 L 11.96875 -41.703125 C 11.925781 -40.609375 11.859375 -39.429688 11.765625 -38.171875 C 11.671875 -36.910156 11.550781 -35.472656 11.40625 -33.859375 L 9.84375 -17.46875 Z M 14.328125 -17.46875 "/></g></g></g><g fill="#ffffff" fill-opacity="1"><g transform="translate(270.486854, 239.018513)"><g><path d="M 2.84375 -49.890625 L 10.6875 -49.890625 L 10.6875 -7.484375 L 18.53125 -7.484375 L 18.53125 0 L 2.84375 0 Z M 2.84375 -49.890625 "/></g></g></g><g fill="#ffffff" fill-opacity="1"><g transform="translate(292.012835, 239.018513)"><g><path d="M 3.921875 -49.890625 L 12.828125 -49.890625 L 15.6875 -28.875 L 16.6875 -21.390625 L 16.890625 -21.390625 C 16.984375 -22.242188 17.078125 -23.097656 17.171875 -23.953125 C 17.273438 -24.710938 17.375 -25.519531 17.46875 -26.375 C 17.5625 -27.226562 17.675781 -28.0625 17.8125 -28.875 L 21.03125 -49.890625 L 29.9375 -49.890625 L 31.359375 0 L 23.515625 0 L 23.515625 -22.8125 C 23.515625 -24.039062 23.515625 -25.472656 23.515625 -27.109375 C 23.515625 -28.753906 23.539062 -30.316406 23.59375 -31.796875 C 23.644531 -33.503906 23.691406 -35.257812 23.734375 -37.0625 L 23.515625 -37.0625 L 19.25 -8.546875 L 13.90625 -8.546875 L 9.984375 -37.0625 L 9.765625 -37.0625 C 9.765625 -35.257812 9.789062 -33.503906 9.84375 -31.796875 C 9.882812 -30.316406 9.914062 -28.753906 9.9375 -27.109375 C 9.96875 -25.472656 9.984375 -24.039062 9.984375 -22.8125 L 9.984375 0 L 2.140625 0 Z M 3.921875 -49.890625 "/></g></g></g><path stroke-linecap="butt" transform="matrix(0.75, 0.000083696, -0.000083696, 0.75, 46.364087, 244.411479)" fill="none" stroke-linejoin="miter" d="M -0.000795618 2.498236 L 404.014856 2.500025 " stroke="#ffffff" stroke-width="5" stroke-opacity="1" stroke-miterlimit="4"/><path stroke-linecap="round" transform="matrix(0.75, 0.000083696, -0.000083696, 0.75, 46.364087, 244.411479)" fill-opacity="1" fill="#ffffff" fill-rule="nonzero" stroke-linejoin="round" d="M 405.264019 -5.000114 L 415.264857 2.49877 L 405.265693 9.999886 Z M 405.264019 -5.000114 " stroke="#ffffff" stroke-width="5" stroke-opacity="1" stroke-miterlimit="4"/></svg>