<?xml version="1.0" encoding="UTF-8"?> <!-- Generator: Adobe Illustrator 21.1.0, SVG Export Plug-In . SVG Version: 6.00 Build 0) --> <svg xmlns="http://www.w3.org/2000/svg" xmlns:xlink="http://www.w3.org/1999/xlink" version="1.1" id="Слой_1" x="0px" y="0px" viewBox="0 0 510.9 459.8" style="enable-background:new 0 0 510.9 459.8;" xml:space="preserve"> <style type="text/css"> .st0{fill:#FFFFFF;} .st1{fill:#3F5970;} .st2{fill:#223341;} .st3{fill:#DD612A;} .st4{fill:#BF4121;} .st5{fill:#EDBE31;} .st6{fill:#E2992F;} .st7{fill:#9EC2D4;} .st8{fill:#3B5E8B;} .st9{fill:#253A54;} .st10{fill:#D7EAF9;} .st11{fill:#4674B7;} .st12{fill:#65ADBC;} .st13{fill:#8AE0FA;} .st14{fill:#93CDEC;} .st15{fill:#B4D8E7;} .st16{fill:#909090;} .st17{fill:#95989A;} .st18{fill:#5693A1;} .st19{fill:#EDDAA2;} .st20{clip-path:url(#SVGID_2_);} .st21{fill:#6C9EAE;} .st22{fill:#F9ECC6;} .st23{fill:#CDC9B9;} .st24{fill-rule:evenodd;clip-rule:evenodd;fill:#254264;} .st25{fill-rule:evenodd;clip-rule:evenodd;fill:#D8D9DA;} .st26{fill-rule:evenodd;clip-rule:evenodd;fill:#FFFFFF;} .st27{fill-rule:evenodd;clip-rule:evenodd;fill:#2E527A;} .st28{fill-rule:evenodd;clip-rule:evenodd;fill:#203856;} </style> <g> <g> <g> <path class="st0" d="M377,398.7l-2-2.3c43.3-36.8,68.1-90.4,68.1-147.1c0-51.5-20.1-100-56.5-136.4 c-36.4-36.4-84.9-56.5-136.4-56.5s-100,20.1-136.4,56.5c-36.4,36.4-56.5,84.9-56.5,136.4c0,27.7,5.7,54.3,17,79.3 c10.9,24.2,26.4,45.5,46.1,63.4l-2.1,2.3c-20-18.2-35.7-39.9-46.8-64.4c-11.5-25.4-17.3-52.5-17.3-80.6 c0-52.4,20.4-101.6,57.4-138.6s86.3-57.4,138.6-57.4s101.6,20.4,138.6,57.4c37,37,57.4,86.3,57.4,138.6 C446.1,306.9,420.9,361.4,377,398.7z"></path> </g> <g> <g> <path class="st0" d="M325.4,42.6c-0.5-0.2-1-0.3-1.4-0.5l0.3-0.7c0.5,0.2,1,0.3,1.4,0.5L325.4,42.6z"></path> </g> <g> <path class="st0" d="M158.2,450c-0.9-0.4-1.9-0.9-2.8-1.3l0.3-0.7c0.9,0.4,1.8,0.9,2.8,1.3L158.2,450z M152.7,447.4 c-0.9-0.5-1.8-0.9-2.7-1.4l0.3-0.7c0.9,0.5,1.8,0.9,2.7,1.4L152.7,447.4z M147.3,444.6c-0.9-0.5-1.8-1-2.7-1.4l0.4-0.7 c0.9,0.5,1.8,1,2.7,1.4L147.3,444.6z M141.9,441.7c-0.9-0.5-1.8-1-2.7-1.5l0.4-0.7c0.9,0.5,1.8,1,2.6,1.5L141.9,441.7z M136.6,438.6c-0.9-0.5-1.7-1.1-2.6-1.6l0.4-0.7c0.9,0.5,1.7,1.1,2.6,1.6L136.6,438.6z M131.4,435.4c-0.9-0.5-1.7-1.1-2.6-1.7 l0.4-0.6c0.8,0.6,1.7,1.1,2.6,1.7L131.4,435.4z M126.3,432c-0.8-0.6-1.7-1.2-2.5-1.7l0.4-0.6c0.8,0.6,1.7,1.2,2.5,1.7L126.3,432 z M121.3,428.5c-0.8-0.6-1.7-1.2-2.5-1.8l0.5-0.6c0.8,0.6,1.6,1.2,2.5,1.8L121.3,428.5z M116.4,424.8c-0.8-0.6-1.6-1.2-2.4-1.9 l0.5-0.6c0.8,0.6,1.6,1.3,2.4,1.9L116.4,424.8z M111.5,421.1c-0.8-0.6-1.6-1.3-2.4-1.9l0.5-0.6c0.8,0.7,1.6,1.3,2.4,1.9 L111.5,421.1z M106.8,417.1c-0.8-0.7-1.5-1.3-2.3-2l0.5-0.6c0.8,0.7,1.5,1.3,2.3,2L106.8,417.1z M102.2,413.1 c-0.8-0.7-1.5-1.4-2.3-2.1l0.5-0.6c0.7,0.7,1.5,1.4,2.3,2.1L102.2,413.1z M97.7,408.9c-0.7-0.7-1.5-1.4-2.2-2.1l0.5-0.5 c0.7,0.7,1.5,1.4,2.2,2.1L97.7,408.9z M93.4,404.6c-0.7-0.7-1.4-1.5-2.1-2.2l0.6-0.5c0.7,0.7,1.4,1.5,2.1,2.2L93.4,404.6z M89.1,400.2c-0.7-0.7-1.4-1.5-2.1-2.2l0.6-0.5c0.7,0.8,1.4,1.5,2.1,2.2L89.1,400.2z M85,395.7c-0.7-0.8-1.4-1.5-2-2.3l0.6-0.5 c0.7,0.8,1.3,1.5,2,2.3L85,395.7z M81,391.1c-0.7-0.8-1.3-1.6-2-2.4l0.6-0.5c0.6,0.8,1.3,1.6,1.9,2.4L81,391.1z M77.1,386.3 c-0.6-0.8-1.3-1.6-1.9-2.4l0.6-0.5c0.6,0.8,1.2,1.6,1.9,2.4L77.1,386.3z M73.3,381.4c-0.6-0.8-1.2-1.6-1.8-2.5l0.6-0.5 c0.6,0.8,1.2,1.6,1.8,2.5L73.3,381.4z M69.7,376.5c-0.6-0.8-1.2-1.7-1.8-2.5l0.6-0.4c0.6,0.8,1.2,1.7,1.7,2.5L69.7,376.5z M66.3,371.4c-0.6-0.9-1.1-1.7-1.7-2.6l0.6-0.4c0.6,0.9,1.1,1.7,1.7,2.6L66.3,371.4z M62.9,366.3c-0.5-0.9-1.1-1.7-1.6-2.6 l0.7-0.4c0.5,0.9,1.1,1.7,1.6,2.6L62.9,366.3z M59.8,361c-0.5-0.9-1-1.8-1.5-2.7l0.7-0.4c0.5,0.9,1,1.8,1.5,2.6L59.8,361z M56.7,355.7c-0.5-0.9-1-1.8-1.5-2.7l0.7-0.4c0.5,0.9,1,1.8,1.5,2.7L56.7,355.7z M53.8,350.3c-0.5-0.9-0.9-1.8-1.4-2.7l0.7-0.3 c0.5,0.9,0.9,1.8,1.4,2.7L53.8,350.3z M51.1,344.8c-0.4-0.9-0.9-1.8-1.3-2.8l0.7-0.3c0.4,0.9,0.9,1.8,1.3,2.8L51.1,344.8z M48.5,339.2c-0.4-0.9-0.8-1.9-1.2-2.8l0.7-0.3c0.4,0.9,0.8,1.9,1.2,2.8L48.5,339.2z M46.1,333.6c-0.4-0.9-0.8-1.9-1.2-2.8 l0.7-0.3c0.4,0.9,0.8,1.9,1.1,2.8L46.1,333.6z M43.8,327.9c-0.4-1-0.7-1.9-1.1-2.9l0.7-0.3c0.4,1,0.7,1.9,1.1,2.9L43.8,327.9z M41.7,322.1c-0.3-1-0.7-1.9-1-2.9l0.7-0.2c0.3,1,0.7,1.9,1,2.9L41.7,322.1z M39.8,316.3c-0.3-1-0.6-2-0.9-2.9l0.7-0.2 c0.3,1,0.6,2,0.9,2.9L39.8,316.3z M38,310.4c-0.3-1-0.6-2-0.8-3l0.7-0.2c0.3,1,0.5,2,0.8,3L38,310.4z M36.4,304.4 c-0.3-1-0.5-2-0.7-3l0.7-0.2c0.2,1,0.5,2,0.7,3L36.4,304.4z M34.9,298.5c-0.2-1-0.4-2-0.7-3l0.8-0.2c0.2,1,0.4,2,0.7,3 L34.9,298.5z M33.6,292.5c-0.2-1-0.4-2-0.6-3l0.8-0.1c0.2,1,0.4,2,0.6,3L33.6,292.5z M32.5,286.4c-0.2-1-0.3-2-0.5-3l0.8-0.1 c0.2,1,0.3,2,0.5,3L32.5,286.4z M31.6,280.4c-0.1-1-0.3-2-0.4-3l0.8-0.1c0.1,1,0.3,2,0.4,3L31.6,280.4z M30.8,274.3 c-0.1-1-0.2-2-0.3-3l0.8-0.1c0.1,1,0.2,2,0.3,3L30.8,274.3z M30.2,268.2c-0.1-1-0.2-2-0.2-3.1l0.8-0.1c0.1,1,0.2,2,0.2,3 L30.2,268.2z M29.8,262.1c-0.1-1-0.1-2-0.2-3.1l0.8,0c0,1,0.1,2,0.2,3L29.8,262.1z M29.5,256c0-1-0.1-2-0.1-3.1l0.8,0 c0,1,0,2,0.1,3.1L29.5,256z M29.4,249.8l0-0.6c0-0.8,0-1.7,0-2.5l0.8,0c0,0.8,0,1.7,0,2.5l0,0.6L29.4,249.8z M30.2,243.7l-0.8,0 c0-1,0.1-2,0.1-3.1l0.8,0C30.3,241.7,30.3,242.7,30.2,243.7z M30.5,237.6l-0.8,0c0.1-1,0.1-2,0.2-3.1l0.8,0.1 C30.6,235.6,30.5,236.6,30.5,237.6z M30.9,231.5l-0.8-0.1c0.1-1,0.2-2,0.3-3.1l0.8,0.1C31,229.5,31,230.5,30.9,231.5z M31.5,225.5l-0.8-0.1c0.1-1,0.2-2,0.3-3l0.8,0.1C31.7,223.4,31.6,224.4,31.5,225.5z M32.2,219.4l-0.8-0.1c0.1-1,0.3-2,0.4-3 l0.8,0.1C32.5,217.4,32.3,218.4,32.2,219.4z M33.1,213.4l-0.8-0.1c0.2-1,0.3-2,0.5-3l0.8,0.1C33.4,211.3,33.3,212.3,33.1,213.4z M34.2,207.3l-0.8-0.1c0.2-1,0.4-2,0.6-3l0.8,0.2C34.6,205.3,34.4,206.3,34.2,207.3z M35.4,201.4l-0.7-0.2c0.2-1,0.5-2,0.7-3 l0.7,0.2C35.9,199.4,35.6,200.4,35.4,201.4z M36.8,195.4l-0.7-0.2c0.2-1,0.5-2,0.8-3l0.7,0.2C37.3,193.4,37.1,194.4,36.8,195.4z M38.4,189.5l-0.7-0.2c0.3-1,0.6-2,0.9-2.9l0.7,0.2C38.9,187.6,38.7,188.5,38.4,189.5z M40.1,183.7l-0.7-0.2 c0.3-1,0.6-1.9,0.9-2.9l0.7,0.2C40.7,181.7,40.4,182.7,40.1,183.7z M42,177.9l-0.7-0.2c0.3-1,0.7-1.9,1-2.9L43,175 C42.7,175.9,42.4,176.9,42,177.9z M44.1,172.1l-0.7-0.3c0.4-1,0.7-1.9,1.1-2.9l0.7,0.3C44.8,170.2,44.4,171.2,44.1,172.1z M46.3,166.4l-0.7-0.3c0.4-0.9,0.8-1.9,1.2-2.8l0.7,0.3C47.1,164.5,46.7,165.5,46.3,166.4z M48.7,160.8l-0.7-0.3 c0.4-0.9,0.8-1.9,1.2-2.8l0.7,0.3C49.5,159,49.1,159.9,48.7,160.8z M51.2,155.3l-0.7-0.3c0.4-0.9,0.9-1.8,1.3-2.8l0.7,0.3 C52.1,153.5,51.6,154.4,51.2,155.3z M53.9,149.8l-0.7-0.3c0.5-0.9,0.9-1.8,1.4-2.7l0.7,0.4C54.8,148,54.3,148.9,53.9,149.8z M56.7,144.4l-0.7-0.4c0.5-0.9,1-1.8,1.5-2.7l0.7,0.4C57.7,142.7,57.2,143.5,56.7,144.4z M59.7,139.1l-0.7-0.4 c0.5-0.9,1-1.8,1.6-2.6l0.7,0.4C60.7,137.4,60.2,138.2,59.7,139.1z M62.8,133.9l-0.7-0.4c0.5-0.9,1.1-1.7,1.6-2.6l0.6,0.4 C63.9,132.2,63.4,133,62.8,133.9z M66.1,128.8l-0.6-0.4c0.6-0.9,1.1-1.7,1.7-2.5l0.6,0.4C67.2,127.1,66.7,127.9,66.1,128.8z M69.5,123.7l-0.6-0.4c0.6-0.8,1.2-1.7,1.8-2.5l0.6,0.4C70.7,122,70.1,122.9,69.5,123.7z M73.1,118.7l-0.6-0.5 c0.6-0.8,1.2-1.6,1.8-2.4l0.6,0.5C74.3,117.1,73.7,117.9,73.1,118.7z M76.8,113.9l-0.6-0.5c0.6-0.8,1.3-1.6,1.9-2.4l0.6,0.5 C78,112.3,77.4,113.1,76.8,113.9z M80.6,109.1l-0.6-0.5c0.7-0.8,1.3-1.6,2-2.3l0.6,0.5C81.9,107.6,81.2,108.4,80.6,109.1z M84.5,104.5L84,104c0.7-0.8,1.3-1.5,2-2.3l0.6,0.5C85.9,103,85.2,103.7,84.5,104.5z M88.6,100l-0.6-0.5 c0.7-0.7,1.4-1.5,2.1-2.2l0.6,0.5C90,98.5,89.3,99.2,88.6,100z M92.8,95.5L92.3,95c0.7-0.7,1.4-1.5,2.2-2.2l0.5,0.5 C94.3,94.1,93.5,94.8,92.8,95.5z M97.2,91.2l-0.5-0.6c0.7-0.7,1.5-1.4,2.2-2.1l0.5,0.6C98.6,89.8,97.9,90.5,97.2,91.2z M101.6,87l-0.5-0.6c0.8-0.7,1.5-1.4,2.3-2.1l0.5,0.6C103.1,85.7,102.4,86.3,101.6,87z M106.2,83l-0.5-0.6 c0.8-0.7,1.5-1.3,2.3-2l0.5,0.6C107.7,81.6,106.9,82.3,106.2,83z M110.8,79l-0.5-0.6c0.8-0.6,1.6-1.3,2.4-1.9l0.5,0.6 C112.4,77.8,111.6,78.4,110.8,79z M115.6,75.2l-0.5-0.6c0.8-0.6,1.6-1.2,2.4-1.9l0.5,0.6C117.2,74,116.4,74.6,115.6,75.2z M120.5,71.6l-0.5-0.6c0.8-0.6,1.7-1.2,2.5-1.8l0.4,0.6C122.2,70.4,121.3,71,120.5,71.6z M125.5,68l-0.4-0.6 c0.8-0.6,1.7-1.2,2.5-1.7l0.4,0.6C127.2,66.9,126.3,67.4,125.5,68z M130.6,64.6l-0.4-0.6c0.9-0.6,1.7-1.1,2.6-1.7l0.4,0.6 C132.3,63.5,131.4,64.1,130.6,64.6z M135.8,61.4l-0.4-0.7c0.9-0.5,1.8-1.1,2.6-1.6l0.4,0.7C137.5,60.3,136.6,60.8,135.8,61.4z M141,58.3l-0.4-0.7c0.9-0.5,1.8-1,2.7-1.5l0.4,0.7C142.8,57.2,141.9,57.7,141,58.3z M146.4,55.3l-0.4-0.7 c0.9-0.5,1.8-1,2.7-1.4l0.4,0.7C148.2,54.3,147.3,54.8,146.4,55.3z M151.8,52.5l-0.3-0.7c0.9-0.5,1.8-0.9,2.8-1.4l0.3,0.7 C153.6,51.6,152.7,52,151.8,52.5z M157.3,49.8l-0.3-0.7c0.9-0.4,1.9-0.9,2.8-1.3l0.3,0.7C159.2,48.9,158.2,49.4,157.3,49.8z M162.9,47.3l-0.3-0.7c0.9-0.4,1.9-0.8,2.8-1.2l0.3,0.7C164.8,46.5,163.8,46.9,162.9,47.3z M168.6,44.9l-0.3-0.7 c1-0.4,1.9-0.8,2.9-1.1l0.3,0.7C170.5,44.2,169.5,44.6,168.6,44.9z M174.3,42.8L174,42c1-0.4,1.9-0.7,2.9-1l0.3,0.7 C176.2,42.1,175.2,42.4,174.3,42.8z M321.1,41c-1-0.3-1.9-0.6-2.9-1l0.2-0.7c1,0.3,1.9,0.6,2.9,1L321.1,41z M180.1,40.7 l-0.2-0.7c1-0.3,1.9-0.6,2.9-1l0.2,0.7C182,40.1,181,40.4,180.1,40.7z M315.3,39.1c-1-0.3-1.9-0.6-2.9-0.9l0.2-0.7 c1,0.3,2,0.6,2.9,0.9L315.3,39.1z M185.9,38.8l-0.2-0.7c1-0.3,2-0.6,2.9-0.9l0.2,0.7C187.9,38.3,186.9,38.6,185.9,38.8z M309.4,37.4c-1-0.3-2-0.5-2.9-0.8l0.2-0.7c1,0.3,2,0.5,3,0.8L309.4,37.4z M191.8,37.2l-0.2-0.7c1-0.3,2-0.5,3-0.8l0.2,0.7 C193.7,36.6,192.8,36.9,191.8,37.2z M303.5,35.9c-1-0.2-2-0.5-3-0.7l0.2-0.7c1,0.2,2,0.5,3,0.7L303.5,35.9z M197.7,35.6 l-0.2-0.7c1-0.2,2-0.5,3-0.7l0.2,0.7C199.7,35.1,198.7,35.4,197.7,35.6z M297.6,34.5c-1-0.2-2-0.4-3-0.6l0.2-0.8 c1,0.2,2,0.4,3,0.6L297.6,34.5z M203.6,34.2l-0.2-0.8c1-0.2,2-0.4,3-0.6l0.2,0.8C205.6,33.8,204.6,34,203.6,34.2z M291.6,33.2 c-1-0.2-2-0.4-3-0.6l0.1-0.8c1,0.2,2,0.4,3,0.6L291.6,33.2z M209.6,33l-0.1-0.8c1-0.2,2-0.4,3-0.5l0.1,0.8 C211.6,32.7,210.6,32.9,209.6,33z M285.6,32.2c-1-0.2-2-0.3-3-0.5l0.1-0.8c1,0.1,2,0.3,3,0.5L285.6,32.2z M215.6,32l-0.1-0.8 c1-0.2,2-0.3,3-0.5l0.1,0.8C217.7,31.7,216.7,31.9,215.6,32z M279.5,31.3c-1-0.1-2-0.3-3-0.4l0.1-0.8c1,0.1,2,0.2,3,0.4 L279.5,31.3z M221.7,31.1l-0.1-0.8c1-0.1,2-0.3,3-0.4l0.1,0.8C223.7,30.9,222.7,31,221.7,31.1z M273.5,30.6c-1-0.1-2-0.2-3-0.3 l0.1-0.8c1,0.1,2,0.2,3,0.3L273.5,30.6z M227.8,30.5l-0.1-0.8c1-0.1,2-0.2,3.1-0.3l0.1,0.8C229.8,30.3,228.8,30.3,227.8,30.5z M267.4,30c-1-0.1-2-0.2-3-0.2l0-0.8c1,0.1,2,0.1,3.1,0.2L267.4,30z M233.8,29.9l-0.1-0.8c1-0.1,2-0.1,3.1-0.2l0,0.8 C235.9,29.8,234.9,29.8,233.8,29.9z M261.3,29.6c-1-0.1-2-0.1-3-0.1l0-0.8c1,0,2,0.1,3.1,0.1L261.3,29.6z M239.9,29.6l0-0.8 c1,0,2-0.1,3.1-0.1l0,0.8C242,29.5,241,29.5,239.9,29.6z M255.2,29.4c-1,0-2,0-3.1,0l0-0.8c1,0,2,0,3.1,0L255.2,29.4z M246,29.4 l0-0.8c1,0,2,0,3.1,0l0,0.8C248.1,29.3,247.1,29.3,246,29.4z"></path> </g> <g> <path class="st0" d="M162.5,451.9c-0.5-0.2-0.9-0.4-1.4-0.6l0.3-0.7c0.5,0.2,0.9,0.4,1.4,0.6L162.5,451.9z"></path> </g> </g> <g> <g> <path class="st0" d="M411.3,161.9c-0.2-0.4-0.5-0.9-0.7-1.3l0.7-0.4c0.2,0.4,0.5,0.9,0.7,1.3L411.3,161.9z"></path> </g> <g> <path class="st0" d="M83.5,327.6c-0.4-0.9-0.9-1.9-1.3-2.8l0.7-0.3c0.4,0.9,0.8,1.9,1.3,2.8L83.5,327.6z M81,322 c-0.4-0.9-0.8-1.9-1.2-2.8l0.7-0.3c0.4,0.9,0.8,1.9,1.2,2.8L81,322z M78.7,316.3c-0.4-1-0.7-1.9-1.1-2.9l0.7-0.3 c0.4,1,0.7,1.9,1.1,2.9L78.7,316.3z M76.5,310.5c-0.3-1-0.7-1.9-1-2.9l0.7-0.2c0.3,1,0.7,1.9,1,2.9L76.5,310.5z M74.6,304.7 c-0.3-1-0.6-2-0.9-2.9l0.7-0.2c0.3,1,0.6,2,0.9,2.9L74.6,304.7z M72.8,298.8c-0.3-1-0.5-2-0.8-3l0.7-0.2c0.3,1,0.5,2,0.8,3 L72.8,298.8z M71.3,292.8c-0.2-1-0.5-2-0.7-3l0.7-0.2c0.2,1,0.5,2,0.7,3L71.3,292.8z M69.9,286.8c-0.2-1-0.4-2-0.6-3l0.8-0.1 c0.2,1,0.4,2,0.6,3L69.9,286.8z M68.8,280.7c-0.2-1-0.3-2-0.5-3l0.8-0.1c0.2,1,0.3,2,0.5,3L68.8,280.7z M67.8,274.6 c-0.1-1-0.3-2-0.4-3.1l0.8-0.1c0.1,1,0.3,2,0.4,3L67.8,274.6z M67.1,268.5c-0.1-1-0.2-2-0.3-3.1l0.8-0.1c0.1,1,0.2,2,0.3,3.1 L67.1,268.5z M66.5,262.4c-0.1-1-0.1-2-0.2-3.1l0.8,0c0.1,1,0.1,2,0.2,3.1L66.5,262.4z M66.2,256.2c0-1-0.1-2.1-0.1-3.1l0.8,0 c0,1,0.1,2,0.1,3.1L66.2,256.2z M66.1,250.1l0-0.8c0-0.8,0-1.5,0-2.3l0.8,0c0,0.8,0,1.5,0,2.3l0,0.8L66.1,250.1z M66.9,243.9 l-0.8,0c0-1,0.1-2.1,0.1-3.1l0.8,0C67,241.9,66.9,242.9,66.9,243.9z M67.2,237.8l-0.8,0c0.1-1,0.1-2,0.2-3.1l0.8,0.1 C67.3,235.8,67.3,236.8,67.2,237.8z M67.7,231.7l-0.8-0.1c0.1-1,0.2-2,0.3-3.1l0.8,0.1C67.9,229.7,67.8,230.7,67.7,231.7z M68.4,225.6l-0.8-0.1c0.1-1,0.3-2,0.4-3l0.8,0.1C68.6,223.6,68.5,224.6,68.4,225.6z M69.2,219.6l-0.8-0.1c0.2-1,0.3-2,0.5-3 l0.8,0.1C69.6,217.5,69.4,218.5,69.2,219.6z M70.3,213.5l-0.8-0.1c0.2-1,0.4-2,0.6-3l0.8,0.2C70.7,211.5,70.5,212.5,70.3,213.5z M71.6,207.5l-0.7-0.2c0.2-1,0.5-2,0.7-3l0.7,0.2C72.1,205.5,71.8,206.5,71.6,207.5z M73.1,201.6l-0.7-0.2c0.3-1,0.5-2,0.8-3 l0.7,0.2C73.6,199.6,73.4,200.6,73.1,201.6z M74.8,195.7l-0.7-0.2c0.3-1,0.6-2,0.9-2.9l0.7,0.2 C75.4,193.7,75.1,194.7,74.8,195.7z M76.7,189.9l-0.7-0.2c0.3-1,0.7-1.9,1-2.9l0.7,0.3C77.4,187.9,77,188.9,76.7,189.9z M78.8,184.1l-0.7-0.3c0.4-1,0.7-1.9,1.1-2.9l0.7,0.3C79.5,182.2,79.1,183.1,78.8,184.1z M81,178.4l-0.7-0.3 c0.4-0.9,0.8-1.9,1.2-2.8l0.7,0.3C81.8,176.5,81.4,177.5,81,178.4z M83.5,172.8l-0.7-0.3c0.4-0.9,0.9-1.9,1.3-2.8l0.7,0.3 C84.4,171,83.9,171.9,83.5,172.8z M86.1,167.3l-0.7-0.3c0.5-0.9,0.9-1.8,1.4-2.7l0.7,0.4C87.1,165.5,86.6,166.4,86.1,167.3z M89,161.9l-0.7-0.4c0.5-0.9,1-1.8,1.5-2.7l0.7,0.4C89.9,160.1,89.5,161,89,161.9z M409,157.9c-0.5-0.9-1-1.8-1.6-2.6l0.7-0.4 c0.5,0.9,1,1.8,1.6,2.7L409,157.9z M92,156.6l-0.7-0.4c0.5-0.9,1-1.8,1.6-2.6l0.7,0.4C93,154.8,92.5,155.7,92,156.6z M405.9,152.6c-0.5-0.9-1.1-1.7-1.6-2.6l0.6-0.4c0.6,0.9,1.1,1.7,1.6,2.6L405.9,152.6z M95.2,151.4l-0.6-0.4 c0.5-0.9,1.1-1.7,1.7-2.6l0.6,0.4C96.3,149.6,95.7,150.5,95.2,151.4z M402.5,147.5c-0.6-0.9-1.1-1.7-1.7-2.5l0.6-0.4 c0.6,0.8,1.2,1.7,1.7,2.5L402.5,147.5z M98.5,146.3l-0.6-0.4c0.6-0.8,1.2-1.7,1.8-2.5l0.6,0.4C99.7,144.6,99.1,145.4,98.5,146.3 z M399,142.4c-0.6-0.8-1.2-1.7-1.8-2.5l0.6-0.5c0.6,0.8,1.2,1.7,1.8,2.5L399,142.4z M102,141.3l-0.6-0.5 c0.6-0.8,1.2-1.6,1.8-2.5l0.6,0.5C103.3,139.6,102.6,140.4,102,141.3z M395.4,137.5c-0.6-0.8-1.3-1.6-1.9-2.4l0.6-0.5 c0.6,0.8,1.3,1.6,1.9,2.4L395.4,137.5z M105.7,136.4l-0.6-0.5c0.6-0.8,1.3-1.6,1.9-2.4l0.6,0.5 C107,134.8,106.4,135.6,105.7,136.4z M391.6,132.7c-0.7-0.8-1.3-1.6-2-2.3l0.6-0.5c0.7,0.8,1.3,1.6,2,2.4L391.6,132.7z M109.6,131.6l-0.6-0.5c0.7-0.8,1.3-1.6,2-2.3l0.6,0.5C110.9,130.1,110.2,130.8,109.6,131.6z M387.6,128.1 c-0.7-0.8-1.4-1.5-2-2.3l0.6-0.5c0.7,0.8,1.4,1.5,2.1,2.3L387.6,128.1z M113.6,127l-0.6-0.5c0.7-0.8,1.4-1.5,2.1-2.3l0.6,0.5 C115,125.5,114.3,126.2,113.6,127z M383.5,123.5c-0.7-0.7-1.4-1.5-2.1-2.2l0.5-0.5c0.7,0.7,1.4,1.5,2.1,2.2L383.5,123.5z M117.8,122.5l-0.6-0.5c0.7-0.7,1.4-1.5,2.1-2.2l0.5,0.5C119.2,121,118.5,121.8,117.8,122.5z M379.2,119.1 c-0.7-0.7-1.5-1.4-2.2-2.1l0.5-0.6c0.7,0.7,1.5,1.4,2.2,2.1L379.2,119.1z M122.1,118.1l-0.5-0.5c0.7-0.7,1.5-1.4,2.2-2.1 l0.5,0.6C123.5,116.7,122.8,117.4,122.1,118.1z M374.8,114.9c-0.7-0.7-1.5-1.4-2.3-2.1l0.5-0.6c0.8,0.7,1.5,1.4,2.3,2.1 L374.8,114.9z M126.5,113.9l-0.5-0.6c0.8-0.7,1.5-1.4,2.3-2.1l0.5,0.6C128,112.6,127.3,113.2,126.5,113.9z M370.2,110.8 c-0.8-0.7-1.5-1.3-2.3-2l0.5-0.6c0.8,0.7,1.6,1.3,2.3,2L370.2,110.8z M131.1,109.9l-0.5-0.6c0.8-0.7,1.6-1.3,2.4-2l0.5,0.6 C132.7,108.6,131.9,109.2,131.1,109.9z M365.5,106.9c-0.8-0.6-1.6-1.3-2.4-1.9l0.5-0.6c0.8,0.6,1.6,1.3,2.4,1.9L365.5,106.9z M135.9,106l-0.5-0.6c0.8-0.6,1.6-1.3,2.4-1.9l0.5,0.6C137.5,104.7,136.7,105.3,135.9,106z M360.7,103.1 c-0.8-0.6-1.6-1.2-2.5-1.8l0.5-0.6c0.8,0.6,1.7,1.2,2.5,1.8L360.7,103.1z M140.7,102.2l-0.5-0.6c0.8-0.6,1.7-1.2,2.5-1.8 l0.4,0.6C142.4,101,141.5,101.6,140.7,102.2z M355.7,99.5c-0.8-0.6-1.7-1.2-2.5-1.7l0.4-0.6c0.8,0.6,1.7,1.2,2.5,1.8L355.7,99.5 z M145.7,98.6l-0.4-0.6c0.8-0.6,1.7-1.2,2.5-1.7l0.4,0.6C147.4,97.5,146.5,98.1,145.7,98.6z M350.7,96c-0.9-0.6-1.7-1.1-2.6-1.7 l0.4-0.6c0.9,0.5,1.7,1.1,2.6,1.7L350.7,96z M150.8,95.2l-0.4-0.6c0.9-0.6,1.7-1.1,2.6-1.7l0.4,0.7 C152.5,94.1,151.6,94.7,150.8,95.2z M345.5,92.7c-0.9-0.5-1.7-1.1-2.6-1.6l0.4-0.7c0.9,0.5,1.8,1,2.6,1.6L345.5,92.7z M156,92 l-0.4-0.7c0.9-0.5,1.8-1,2.7-1.6l0.4,0.7C157.8,90.9,156.9,91.5,156,92z M340.2,89.6c-0.9-0.5-1.8-1-2.7-1.5l0.4-0.7 c0.9,0.5,1.8,1,2.7,1.5L340.2,89.6z M161.3,88.9l-0.4-0.7c0.9-0.5,1.8-1,2.7-1.5l0.4,0.7C163.1,87.9,162.2,88.4,161.3,88.9z M334.9,86.7c-0.9-0.5-1.8-0.9-2.7-1.4l0.3-0.7c0.9,0.5,1.8,0.9,2.7,1.4L334.9,86.7z M166.7,86l-0.4-0.7 c0.9-0.5,1.8-0.9,2.8-1.4l0.3,0.7C168.6,85.1,167.6,85.6,166.7,86z M329.4,84c-0.9-0.4-1.8-0.9-2.8-1.3l0.3-0.7 c0.9,0.4,1.9,0.9,2.8,1.3L329.4,84z M172.2,83.3l-0.3-0.7c0.9-0.4,1.9-0.9,2.8-1.3L175,82C174.1,82.5,173.2,82.9,172.2,83.3z M323.8,81.4c-0.9-0.4-1.9-0.8-2.8-1.2l0.3-0.7c0.9,0.4,1.9,0.8,2.8,1.2L323.8,81.4z M177.9,80.8l-0.3-0.7 c0.9-0.4,1.9-0.8,2.8-1.2l0.3,0.7C179.7,80,178.8,80.4,177.9,80.8z M318.2,79.1c-0.9-0.4-1.9-0.7-2.8-1.1l0.3-0.7 c1,0.4,1.9,0.7,2.9,1.1L318.2,79.1z M183.5,78.5l-0.3-0.7c1-0.4,1.9-0.7,2.9-1.1l0.3,0.7C185.5,77.7,184.5,78.1,183.5,78.5z M312.5,76.9c-1-0.3-1.9-0.7-2.9-1l0.2-0.7c1,0.3,1.9,0.7,2.9,1L312.5,76.9z M189.3,76.3l-0.3-0.7c1-0.3,1.9-0.7,2.9-1l0.2,0.7 C191.2,75.7,190.3,76,189.3,76.3z M306.7,74.9c-1-0.3-1.9-0.6-2.9-0.9l0.2-0.7c1,0.3,2,0.6,2.9,0.9L306.7,74.9z M195.1,74.4 l-0.2-0.7c1-0.3,2-0.6,2.9-0.9l0.2,0.7C197.1,73.8,196.1,74.1,195.1,74.4z M300.9,73.1c-1-0.3-2-0.6-2.9-0.8l0.2-0.7 c1,0.3,2,0.5,3,0.8L300.9,73.1z M201,72.6l-0.2-0.7c1-0.3,2-0.5,3-0.8l0.2,0.7C203,72.1,202,72.4,201,72.6z M295,71.5 c-1-0.2-2-0.5-3-0.7l0.2-0.7c1,0.2,2,0.5,3,0.7L295,71.5z M207,71.1l-0.2-0.7c1-0.2,2-0.5,3-0.7l0.2,0.7 C208.9,70.6,207.9,70.9,207,71.1z M289,70.1c-1-0.2-2-0.4-3-0.6l0.1-0.8c1,0.2,2,0.4,3,0.6L289,70.1z M212.9,69.8l-0.2-0.8 c1-0.2,2-0.4,3-0.6l0.1,0.8C214.9,69.4,213.9,69.6,212.9,69.8z M283,68.9c-1-0.2-2-0.4-3-0.5l0.1-0.8c1,0.2,2,0.3,3,0.5 L283,68.9z M219,68.6l-0.1-0.8c1-0.2,2-0.3,3-0.5l0.1,0.8C221,68.3,220,68.5,219,68.6z M276.9,67.9c-1-0.1-2-0.3-3-0.4l0.1-0.8 c1,0.1,2,0.3,3,0.4L276.9,67.9z M225,67.7l-0.1-0.8c1-0.1,2-0.3,3.1-0.4l0.1,0.8C227,67.4,226,67.6,225,67.7z M270.9,67.2 c-1-0.1-2-0.2-3-0.3l0.1-0.8c1,0.1,2,0.2,3.1,0.3L270.9,67.2z M231.1,67l-0.1-0.8c1-0.1,2-0.2,3.1-0.3l0.1,0.8 C233.1,66.8,232.1,66.9,231.1,67z M264.8,66.6c-1-0.1-2-0.2-3.1-0.2l0-0.8c1,0.1,2,0.1,3.1,0.2L264.8,66.6z M237.2,66.4 l-0.1-0.8c1-0.1,2-0.1,3.1-0.2l0,0.8C239.2,66.3,238.2,66.4,237.2,66.4z M258.6,66.2c-1,0-2-0.1-3.1-0.1l0-0.8 c1,0,2.1,0.1,3.1,0.1L258.6,66.2z M243.3,66.1l0-0.8c1,0,2-0.1,3.1-0.1l0,0.8C245.4,66.1,244.3,66.1,243.3,66.1z M252.5,66 c-0.8,0-1.6,0-2.4,0l-0.7,0l0-0.8l0.7,0c0.8,0,1.6,0,2.4,0L252.5,66z"></path> </g> <g> <path class="st0" d="M85.6,331.9c-0.2-0.5-0.5-0.9-0.7-1.4l0.7-0.3c0.2,0.5,0.5,0.9,0.7,1.4L85.6,331.9z"></path> </g> </g> <g> <g> <path class="st0" d="M327.3,443.2l-0.3-0.7c0.5-0.2,0.9-0.4,1.4-0.6l0.3,0.7C328.3,442.8,327.8,443,327.3,443.2z"></path> </g> <g> <path class="st0" d="M331.6,441.5l-0.3-0.7c0.9-0.4,1.9-0.8,2.8-1.2l0.3,0.7C333.5,440.7,332.5,441.1,331.6,441.5z M337.2,439 l-0.3-0.7c0.9-0.4,1.9-0.9,2.8-1.3l0.3,0.7C339.1,438.1,338.1,438.6,337.2,439z M342.8,436.3l-0.3-0.7c0.9-0.5,1.8-0.9,2.7-1.4 l0.4,0.7C344.6,435.4,343.7,435.9,342.8,436.3z M348.2,433.5l-0.4-0.7c0.9-0.5,1.8-1,2.7-1.5l0.4,0.7 C350,432.6,349.1,433,348.2,433.5z M353.6,430.6l-0.4-0.7c0.9-0.5,1.8-1,2.6-1.5l0.4,0.7C355.4,429.5,354.5,430,353.6,430.6z M358.9,427.4l-0.4-0.7c0.9-0.5,1.7-1.1,2.6-1.6l0.4,0.6C360.6,426.3,359.8,426.9,358.9,427.4z M364.1,424.1l-0.4-0.6 c0.9-0.6,1.7-1.1,2.6-1.7l0.4,0.6C365.8,423,364.9,423.6,364.1,424.1z M369.2,420.7l-0.4-0.6c0.8-0.6,1.7-1.2,2.5-1.8l0.4,0.6 C370.9,419.5,370,420.1,369.2,420.7z M374.2,417.1l-0.5-0.6c0.8-0.6,1.6-1.2,2.4-1.8l0.5,0.6C375.8,415.9,375,416.5,374.2,417.1 z M379.1,413.4l-0.5-0.6c0.8-0.6,1.6-1.3,2.4-1.9l0.5,0.6C380.7,412.1,379.9,412.8,379.1,413.4z M383.8,409.5l-0.5-0.6 c0.8-0.7,1.6-1.3,2.3-2l0.5,0.6C385.4,408.2,384.6,408.9,383.8,409.5z M388.5,405.5L388,405c0.8-0.7,1.5-1.4,2.3-2l0.5,0.6 C390,404.2,389.2,404.8,388.5,405.5z M393,401.4l-0.5-0.6c0.7-0.7,1.5-1.4,2.2-2.1l0.5,0.6C394.5,400,393.8,400.7,393,401.4z M397.4,397.1l-0.5-0.5c0.7-0.7,1.4-1.4,2.2-2.2l0.5,0.5C398.9,395.7,398.1,396.4,397.4,397.1z M401.7,392.7l-0.6-0.5 c0.7-0.7,1.4-1.5,2.1-2.2l0.6,0.5C403.1,391.2,402.4,392,401.7,392.7z M405.9,388.2l-0.6-0.5c0.7-0.8,1.4-1.5,2-2.3l0.6,0.5 C407.2,386.7,406.5,387.4,405.9,388.2z M409.9,383.6l-0.6-0.5c0.7-0.8,1.3-1.6,2-2.4l0.6,0.5C411.2,382,410.5,382.8,409.9,383.6 z M413.8,378.8l-0.6-0.5c0.6-0.8,1.3-1.6,1.9-2.4l0.6,0.5C415,377.2,414.4,378,413.8,378.8z M417.5,374l-0.6-0.5 c0.6-0.8,1.2-1.6,1.8-2.5l0.6,0.5C418.7,372.3,418.1,373.1,417.5,374z M421.1,369l-0.6-0.4c0.6-0.8,1.2-1.7,1.7-2.5l0.6,0.4 C422.3,367.3,421.7,368.2,421.1,369z M424.5,363.9l-0.6-0.4c0.6-0.8,1.1-1.7,1.7-2.6l0.6,0.4 C425.7,362.2,425.1,363.1,424.5,363.9z M427.8,358.8l-0.7-0.4c0.5-0.9,1.1-1.7,1.6-2.6l0.7,0.4 C428.9,357,428.4,357.9,427.8,358.8z M431,353.5l-0.7-0.4c0.5-0.9,1-1.8,1.5-2.7l0.7,0.4C432,351.7,431.5,352.6,431,353.5z M434,348.2l-0.7-0.4c0.5-0.9,1-1.8,1.4-2.7l0.7,0.4C434.9,346.4,434.4,347.3,434,348.2z M436.8,342.7l-0.7-0.3 c0.5-0.9,0.9-1.8,1.3-2.7l0.7,0.3C437.7,340.9,437.2,341.8,436.8,342.7z M439.5,337.2l-0.7-0.3c0.4-0.9,0.9-1.8,1.3-2.8l0.7,0.3 C440.3,335.4,439.9,336.3,439.5,337.2z M442,331.6l-0.7-0.3c0.4-0.9,0.8-1.9,1.2-2.8l0.7,0.3C442.8,329.7,442.4,330.7,442,331.6 z M444.3,326l-0.7-0.3c0.4-0.9,0.7-1.9,1.1-2.8l0.7,0.3C445,324.1,444.7,325,444.3,326z M446.5,320.2l-0.7-0.3 c0.3-1,0.7-1.9,1-2.9l0.7,0.3C447.1,318.3,446.8,319.3,446.5,320.2z M448.4,314.5l-0.7-0.2c0.3-1,0.6-1.9,0.9-2.9l0.7,0.2 C449.1,312.5,448.8,313.5,448.4,314.5z M450.3,308.6l-0.7-0.2c0.3-1,0.6-1.9,0.8-2.9l0.7,0.2 C450.8,306.7,450.6,307.6,450.3,308.6z M451.9,302.7l-0.7-0.2c0.3-1,0.5-2,0.8-3l0.7,0.2C452.4,300.7,452.2,301.7,451.9,302.7z M453.4,296.8l-0.7-0.2c0.2-1,0.5-2,0.7-3l0.8,0.2C453.9,294.8,453.6,295.8,453.4,296.8z M454.7,290.8l-0.8-0.2 c0.2-1,0.4-2,0.6-3l0.8,0.1C455.1,288.8,454.9,289.8,454.7,290.8z M455.8,284.7l-0.8-0.1c0.2-1,0.3-2,0.5-3l0.8,0.1 C456.2,282.7,456,283.7,455.8,284.7z M456.8,278.7l-0.8-0.1c0.1-1,0.3-2,0.4-3l0.8,0.1C457.1,276.6,456.9,277.7,456.8,278.7z M457.5,272.6l-0.8-0.1c0.1-1,0.2-2,0.3-3l0.8,0.1C457.8,270.5,457.7,271.6,457.5,272.6z M458.1,266.5l-0.8-0.1 c0.1-1,0.2-2,0.2-3l0.8,0.1C458.3,264.4,458.2,265.4,458.1,266.5z M458.5,260.3l-0.8,0c0.1-1,0.1-2,0.1-3.1l0.8,0 C458.6,258.3,458.6,259.3,458.5,260.3z M458.8,254.2l-0.8,0c0-1,0-2,0-3.1l0.8,0C458.8,252.2,458.8,253.2,458.8,254.2z M458.1,248.1c0-1,0-2,0-3.1l0.8,0c0,1,0,2,0,3.1L458.1,248.1z M457.9,242c0-1-0.1-2-0.1-3.1l0.8,0c0,1,0.1,2,0.1,3.1L457.9,242 z M457.6,235.9c-0.1-1-0.1-2-0.2-3l0.8-0.1c0.1,1,0.2,2,0.2,3.1L457.6,235.9z M457.2,229.8c-0.1-1-0.2-2-0.3-3l0.8-0.1 c0.1,1,0.2,2,0.3,3.1L457.2,229.8z M456.5,223.7c-0.1-1-0.3-2-0.4-3l0.8-0.1c0.1,1,0.3,2,0.4,3L456.5,223.7z M455.7,217.6 c-0.2-1-0.3-2-0.5-3l0.8-0.1c0.2,1,0.3,2,0.5,3L455.7,217.6z M454.7,211.6c-0.2-1-0.4-2-0.6-3l0.8-0.1c0.2,1,0.4,2,0.6,3 L454.7,211.6z M453.5,205.6c-0.2-1-0.4-2-0.7-3l0.7-0.2c0.2,1,0.4,2,0.7,3L453.5,205.6z M452.1,199.6c-0.2-1-0.5-2-0.7-3 l0.7-0.2c0.3,1,0.5,2,0.8,3L452.1,199.6z M450.6,193.7c-0.3-1-0.6-2-0.8-2.9l0.7-0.2c0.3,1,0.6,2,0.8,3L450.6,193.7z M448.8,187.9c-0.3-1-0.6-2-0.9-2.9l0.7-0.2c0.3,1,0.6,2,0.9,2.9L448.8,187.9z M446.9,182c-0.3-1-0.7-1.9-1-2.9l0.7-0.3 c0.3,1,0.7,1.9,1,2.9L446.9,182z M444.9,176.2c-0.4-1-0.7-1.9-1.1-2.9l0.7-0.3c0.4,1,0.7,1.9,1.1,2.9L444.9,176.2z M442.6,170.5 c-0.4-0.9-0.8-1.9-1.2-2.8l0.7-0.3c0.4,0.9,0.8,1.9,1.2,2.8L442.6,170.5z M440.2,164.9c-0.4-0.9-0.8-1.9-1.3-2.8l0.7-0.3 c0.4,0.9,0.9,1.9,1.3,2.8L440.2,164.9z M437.7,159.3c-0.4-0.9-0.9-1.8-1.3-2.8l0.7-0.3c0.5,0.9,0.9,1.8,1.4,2.8L437.7,159.3z M434.9,153.8c-0.5-0.9-0.9-1.8-1.4-2.7l0.7-0.4c0.5,0.9,1,1.8,1.4,2.7L434.9,153.8z M432,148.4c-0.5-0.9-1-1.8-1.5-2.7l0.7-0.4 c0.5,0.9,1,1.8,1.5,2.7L432,148.4z M429,143.1c-0.5-0.9-1.1-1.8-1.6-2.6l0.7-0.4c0.5,0.9,1.1,1.7,1.6,2.6L429,143.1z M74.2,138.4l-0.6-0.4c0.5-0.9,1.1-1.7,1.7-2.6l0.6,0.4C75.3,136.7,74.7,137.5,74.2,138.4z M425.8,137.9 c-0.5-0.9-1.1-1.7-1.7-2.6l0.6-0.4c0.6,0.9,1.1,1.7,1.7,2.6L425.8,137.9z M77.5,133.3l-0.6-0.4c0.6-0.8,1.1-1.7,1.7-2.5l0.6,0.4 C78.6,131.6,78.1,132.4,77.5,133.3z M422.4,132.8c-0.6-0.8-1.2-1.7-1.7-2.5l0.6-0.4c0.6,0.8,1.2,1.7,1.7,2.5L422.4,132.8z M81,128.3l-0.6-0.4c0.6-0.8,1.2-1.7,1.8-2.5l0.6,0.5C82.2,126.6,81.6,127.4,81,128.3z M418.9,127.8c-0.6-0.8-1.2-1.7-1.8-2.5 l0.6-0.5c0.6,0.8,1.2,1.6,1.8,2.5L418.9,127.8z M84.6,123.3l-0.6-0.5c0.6-0.8,1.2-1.6,1.9-2.4l0.6,0.5 C85.9,121.7,85.2,122.5,84.6,123.3z M415.2,122.9c-0.6-0.8-1.2-1.6-1.9-2.4l0.6-0.5c0.6,0.8,1.3,1.6,1.9,2.4L415.2,122.9z M88.4,118.5l-0.6-0.5c0.6-0.8,1.3-1.6,1.9-2.4l0.6,0.5C89.7,117,89,117.7,88.4,118.5z M411.5,118.1c-0.6-0.8-1.3-1.6-1.9-2.4 l0.6-0.5c0.7,0.8,1.3,1.6,2,2.4L411.5,118.1z M92.3,113.8l-0.6-0.5c0.7-0.8,1.3-1.5,2-2.3l0.6,0.5 C93.6,112.3,93,113.1,92.3,113.8z M407.5,113.4c-0.7-0.8-1.3-1.5-2-2.3l0.6-0.5c0.7,0.8,1.4,1.5,2,2.3L407.5,113.4z M96.4,109.3 l-0.6-0.5c0.7-0.8,1.4-1.5,2.1-2.3l0.6,0.5C97.7,107.8,97,108.5,96.4,109.3z M403.5,108.8c-0.7-0.8-1.4-1.5-2.1-2.2l0.6-0.5 c0.7,0.7,1.4,1.5,2.1,2.2L403.5,108.8z M100.5,104.8l-0.6-0.5c0.7-0.7,1.4-1.5,2.1-2.2l0.5,0.5 C102,103.3,101.2,104.1,100.5,104.8z M399.3,104.4c-0.7-0.7-1.4-1.5-2.1-2.2l0.5-0.5c0.7,0.7,1.4,1.5,2.2,2.2L399.3,104.4z M104.9,100.5l-0.5-0.5c0.7-0.7,1.5-1.4,2.2-2.1l0.5,0.6C106.3,99.1,105.6,99.8,104.9,100.5z M394.9,100 c-0.7-0.7-1.5-1.4-2.2-2.1l0.5-0.6c0.7,0.7,1.5,1.4,2.2,2.1L394.9,100z M109.3,96.3l-0.5-0.6c0.8-0.7,1.5-1.4,2.3-2.1l0.5,0.6 C110.8,94.9,110,95.6,109.3,96.3z M390.5,95.8c-0.8-0.7-1.5-1.4-2.3-2l0.5-0.6c0.8,0.7,1.5,1.4,2.3,2.1L390.5,95.8z M113.8,92.2 l-0.5-0.6c0.8-0.7,1.5-1.3,2.3-2l0.5,0.6C115.4,90.9,114.6,91.5,113.8,92.2z M385.9,91.8c-0.8-0.7-1.5-1.3-2.3-2l0.5-0.6 c0.8,0.7,1.6,1.3,2.3,2L385.9,91.8z M118.5,88.2l-0.5-0.6c0.8-0.6,1.6-1.3,2.4-1.9l0.5,0.6C120.1,87,119.3,87.6,118.5,88.2z M381.2,87.9c-0.8-0.6-1.6-1.3-2.4-1.9l0.5-0.6c0.8,0.6,1.6,1.3,2.4,1.9L381.2,87.9z M123.3,84.4l-0.5-0.6 c0.8-0.6,1.6-1.2,2.4-1.9l0.5,0.6C124.9,83.2,124.1,83.8,123.3,84.4z M376.4,84.1c-0.8-0.6-1.6-1.2-2.4-1.8l0.5-0.6 c0.8,0.6,1.6,1.2,2.4,1.8L376.4,84.1z M128.2,80.8l-0.5-0.6c0.8-0.6,1.7-1.2,2.5-1.8l0.4,0.6C129.9,79.6,129,80.2,128.2,80.8z M371.5,80.4c-0.8-0.6-1.7-1.2-2.5-1.8l0.4-0.6c0.8,0.6,1.7,1.2,2.5,1.8L371.5,80.4z M133.2,77.3l-0.4-0.6 c0.8-0.6,1.7-1.1,2.6-1.7l0.4,0.6C134.9,76.1,134.1,76.7,133.2,77.3z M366.5,76.9c-0.8-0.6-1.7-1.1-2.5-1.7l0.4-0.6 c0.9,0.6,1.7,1.1,2.5,1.7L366.5,76.9z M138.3,73.9l-0.4-0.6c0.9-0.6,1.7-1.1,2.6-1.6l0.4,0.7C140.1,72.8,139.2,73.3,138.3,73.9z M361.4,73.6c-0.9-0.5-1.7-1.1-2.6-1.6l0.4-0.7c0.9,0.5,1.7,1.1,2.6,1.6L361.4,73.6z M143.5,70.7l-0.4-0.7 c0.9-0.5,1.8-1,2.6-1.6l0.4,0.7C145.3,69.6,144.4,70.1,143.5,70.7z M356.2,70.4c-0.9-0.5-1.8-1-2.6-1.5l0.4-0.7 c0.9,0.5,1.8,1,2.6,1.5L356.2,70.4z M148.8,67.6l-0.4-0.7c0.9-0.5,1.8-1,2.7-1.5l0.4,0.7C150.6,66.6,149.7,67.1,148.8,67.6z M350.9,67.4c-0.9-0.5-1.8-1-2.7-1.5l0.4-0.7c0.9,0.5,1.8,1,2.7,1.5L350.9,67.4z M154.2,64.7l-0.4-0.7c0.9-0.5,1.8-0.9,2.7-1.4 l0.3,0.7C156,63.8,155.1,64.2,154.2,64.7z M345.6,64.5c-0.9-0.5-1.8-0.9-2.7-1.4l0.3-0.7c0.9,0.5,1.8,0.9,2.7,1.4L345.6,64.5z M159.7,62l-0.3-0.7c0.9-0.4,1.8-0.9,2.8-1.3l0.3,0.7C161.5,61.1,160.6,61.5,159.7,62z M340.1,61.8c-0.9-0.4-1.8-0.9-2.8-1.3 l0.3-0.7c0.9,0.4,1.8,0.9,2.8,1.3L340.1,61.8z M165.3,59.4l-0.3-0.7c0.9-0.4,1.9-0.8,2.8-1.2l0.3,0.7 C167.1,58.5,166.2,59,165.3,59.4z M334.6,59.2c-0.9-0.4-1.9-0.8-2.8-1.2l0.3-0.7c0.9,0.4,1.9,0.8,2.8,1.2L334.6,59.2z M170.9,56.9l-0.3-0.7c0.9-0.4,1.9-0.8,2.9-1.2l0.3,0.7C172.8,56.2,171.8,56.6,170.9,56.9z M329,56.8c-0.9-0.4-1.9-0.8-2.8-1.1 l0.3-0.7c1,0.4,1.9,0.8,2.8,1.1L329,56.8z M176.6,54.7l-0.3-0.7c1-0.4,1.9-0.7,2.9-1.1l0.3,0.7C178.5,54,177.5,54.3,176.6,54.7z M323.3,54.6c-1-0.4-1.9-0.7-2.9-1.1l0.3-0.7c1,0.3,1.9,0.7,2.9,1.1L323.3,54.6z M182.3,52.6l-0.2-0.7c1-0.3,1.9-0.7,2.9-1 l0.2,0.7C184.3,52,183.3,52.3,182.3,52.6z M317.5,52.5c-1-0.3-1.9-0.7-2.9-1l0.2-0.7c1,0.3,1.9,0.6,2.9,1L317.5,52.5z M188.2,50.7l-0.2-0.7c1-0.3,2-0.6,2.9-0.9l0.2,0.7C190.1,50.1,189.1,50.4,188.2,50.7z M311.7,50.6c-1-0.3-1.9-0.6-2.9-0.9 L309,49c1,0.3,2,0.6,2.9,0.9L311.7,50.6z M194.1,49l-0.2-0.7c1-0.3,2-0.5,3-0.8l0.2,0.7C196,48.4,195,48.7,194.1,49z M305.9,48.9c-1-0.3-2-0.5-3-0.8l0.2-0.7c1,0.3,2,0.5,3,0.8L305.9,48.9z M200,47.4l-0.2-0.7c1-0.2,2-0.5,3-0.7l0.2,0.7 C202,46.9,201,47.2,200,47.4z M300,47.3c-1-0.2-2-0.5-3-0.7l0.2-0.7c1,0.2,2,0.5,3,0.7L300,47.3z M206,46l-0.2-0.8 c1-0.2,2-0.4,3-0.6l0.2,0.8C208,45.6,207,45.8,206,46z M294,46c-1-0.2-2-0.4-3-0.6l0.2-0.8c1,0.2,2,0.4,3,0.6L294,46z M212,44.8 l-0.1-0.8c1-0.2,2-0.4,3-0.5l0.1,0.8C214,44.4,213,44.6,212,44.8z M288,44.8c-1-0.2-2-0.4-3-0.5l0.1-0.8c1,0.2,2,0.3,3,0.5 L288,44.8z M218,43.8l-0.1-0.8c1-0.2,2-0.3,3-0.4l0.1,0.8C220,43.5,219,43.6,218,43.8z M282,43.7c-1-0.2-2-0.3-3-0.4l0.1-0.8 c1,0.1,2,0.3,3,0.4L282,43.7z M224.1,42.9l-0.1-0.8c1-0.1,2-0.2,3-0.4l0.1,0.8C226.1,42.7,225.1,42.8,224.1,42.9z M275.9,42.9 c-1-0.1-2-0.2-3-0.4l0.1-0.8c1,0.1,2,0.2,3,0.4L275.9,42.9z M230.2,42.3l-0.1-0.8c1-0.1,2-0.2,3.1-0.3l0.1,0.8 C232.2,42.1,231.2,42.2,230.2,42.3z M269.8,42.2c-1-0.1-2-0.2-3-0.3l0.1-0.8c1,0.1,2,0.2,3.1,0.3L269.8,42.2z M236.2,41.8 l-0.1-0.8c1-0.1,2-0.1,3.1-0.2l0,0.8C238.3,41.6,237.3,41.7,236.2,41.8z M263.7,41.8c-1-0.1-2-0.1-3.1-0.2l0-0.8 c1,0.1,2,0.1,3.1,0.2L263.7,41.8z M242.4,41.5l0-0.8c1,0,2-0.1,3.1-0.1l0,0.8C244.4,41.4,243.4,41.4,242.4,41.5z M257.6,41.5 c-1,0-2-0.1-3-0.1l0-0.8c1,0,2,0.1,3.1,0.1L257.6,41.5z M248.5,41.3l0-0.8c1,0,2,0,3.1,0l0,0.8 C250.5,41.3,249.5,41.3,248.5,41.3z"></path> </g> <g> <path class="st0" d="M71.7,142.4l-0.7-0.4c0.3-0.4,0.5-0.9,0.8-1.3l0.7,0.4C72.2,141.5,72,141.9,71.7,142.4z"></path> </g> </g> </g> <g> <polygon class="st0" points="489.2,356.5 498.7,356.1 493.6,348.1 "></polygon> <g> <path class="st0" d="M491.5,352.7l-2.8-1.2l0.3-0.7l2.8,1.2L491.5,352.7z M485.9,350.3l-2.8-1.2l0.3-0.7l2.8,1.2L485.9,350.3z M480.2,347.9l-2.8-1.2l0.3-0.7l2.8,1.2L480.2,347.9z M474.5,345.5l-2.8-1.2l0.3-0.7l2.8,1.2L474.5,345.5z M468.9,343.2L466,342 l0.3-0.7l2.8,1.2L468.9,343.2z M463.2,340.8l-2.8-1.2l0.3-0.7l2.8,1.2L463.2,340.8z M457.6,338.4l-2.8-1.2l0.3-0.7l2.8,1.2 L457.6,338.4z M451.9,336l-2.8-1.2l0.3-0.7l2.8,1.2L451.9,336z M446.2,333.7l-2.8-1.2l0.3-0.7l2.8,1.2L446.2,333.7z M440.6,331.3 l-2.8-1.2l0.3-0.7l2.8,1.2L440.6,331.3z M434.9,328.9l-2.8-1.2l0.3-0.7l2.8,1.2L434.9,328.9z M429.2,326.5l-2.8-1.2l0.3-0.7 l2.8,1.2L429.2,326.5z M423.6,324.2l-2.8-1.2l0.3-0.7l2.8,1.2L423.6,324.2z M417.9,321.8l-2.8-1.2l0.3-0.7l2.8,1.2L417.9,321.8z M412.3,319.4l-2.8-1.2l0.3-0.7l2.8,1.2L412.3,319.4z M406.6,317l-2.8-1.2l0.3-0.7l2.8,1.2L406.6,317z M400.9,314.7l-2.8-1.2 l0.3-0.7l2.8,1.2L400.9,314.7z M395.3,312.3l-2.8-1.2l0.3-0.7l2.8,1.2L395.3,312.3z M389.6,309.9l-2.8-1.2l0.3-0.7l2.8,1.2 L389.6,309.9z"></path> </g> <ellipse transform="matrix(0.7325 -0.6808 0.6808 0.7325 -106.4268 345.9332)" class="st0" cx="386.9" cy="308.4" rx="3.1" ry="3.1"></ellipse> </g> <polygon class="st0" points="323.1,45.8 327.8,37.5 332.6,45.8 "></polygon> <polygon class="st0" points="406.9,163.9 415.4,159.7 414.8,169.2 "></polygon> <polygon class="st0" points="75.9,144 68.2,149.6 67.2,140.1 "></polygon> <circle class="st0" cx="162.5" cy="451.5" r="2.8"></circle> <circle class="st0" cx="86" cy="331.7" r="2.8"></circle> <circle class="st0" cx="326.7" cy="442.9" r="2.8"></circle> <polygon class="st0" points="323.1,45.8 327.8,37.5 332.6,45.8 "></polygon> <polygon class="st0" points="406.9,163.9 415.4,159.7 414.8,169.2 "></polygon> <polygon class="st0" points="75.9,144 68.2,149.6 67.2,140.1 "></polygon> <circle class="st0" cx="162.5" cy="451.5" r="2.8"></circle> <circle class="st0" cx="86" cy="331.7" r="2.8"></circle> <circle class="st0" cx="326.7" cy="442.9" r="2.8"></circle> <g> <polygon class="st0" points="353,11.2 360.2,5 361.9,14.4 "></polygon> <g> <path class="st0" d="M311.2,116.3l-0.7-0.3l1.3-2.8l0.7,0.3L311.2,116.3z M313.7,110.7l-0.7-0.3l1.3-2.8l0.7,0.3L313.7,110.7z M316.2,105.1l-0.7-0.3l1.3-2.8l0.7,0.3L316.2,105.1z M318.8,99.5l-0.7-0.3l1.3-2.8l0.7,0.3L318.8,99.5z M321.3,93.9l-0.7-0.3 l1.3-2.8l0.7,0.3L321.3,93.9z M323.8,88.3l-0.7-0.3l1.3-2.8l0.7,0.3L323.8,88.3z M326.4,82.7l-0.7-0.3l1.3-2.8l0.7,0.3 L326.4,82.7z M328.9,77.1l-0.7-0.3l1.3-2.8l0.7,0.3L328.9,77.1z M331.4,71.5l-0.7-0.3l1.3-2.8l0.7,0.3L331.4,71.5z M333.9,65.9 l-0.7-0.3l1.3-2.8l0.7,0.3L333.9,65.9z M336.5,60.3l-0.7-0.3l1.3-2.8l0.7,0.3L336.5,60.3z M339,54.7l-0.7-0.3l1.3-2.8l0.7,0.3 L339,54.7z M341.5,49.1l-0.7-0.3l1.3-2.8l0.7,0.3L341.5,49.1z M344.1,43.5l-0.7-0.3l1.3-2.8l0.7,0.3L344.1,43.5z M346.6,37.9 l-0.7-0.3l1.3-2.8l0.7,0.3L346.6,37.9z M349.1,32.3l-0.7-0.3l1.3-2.8l0.7,0.3L349.1,32.3z M351.7,26.7l-0.7-0.3l1.3-2.8l0.7,0.3 L351.7,26.7z M354.2,21.2l-0.7-0.3l1.3-2.8l0.7,0.3L354.2,21.2z M356.7,15.6l-0.7-0.3l1.3-2.8l0.7,0.3L356.7,15.6z"></path> </g> <circle class="st0" cx="310.8" cy="116.1" r="3.1"></circle> </g> <g> <polygon class="st0" points="479.2,140.9 488.6,141.3 483.5,149.3 "></polygon> <g> <path class="st0" d="M377,189.3l-0.3-0.7l2.8-1.2l0.3,0.7L377,189.3z M382.6,187l-0.3-0.7l2.8-1.2l0.3,0.7L382.6,187z M388.3,184.6l-0.3-0.7l2.8-1.2l0.3,0.7L388.3,184.6z M394,182.2l-0.3-0.7l2.8-1.2l0.3,0.7L394,182.2z M399.6,179.8l-0.3-0.7 l2.8-1.2l0.3,0.7L399.6,179.8z M405.3,177.5l-0.3-0.7l2.8-1.2l0.3,0.7L405.3,177.5z M411,175.1l-0.3-0.7l2.8-1.2l0.3,0.7 L411,175.1z M416.6,172.7l-0.3-0.7l2.8-1.2l0.3,0.7L416.6,172.7z M422.3,170.3l-0.3-0.7l2.8-1.2l0.3,0.7L422.3,170.3z M427.9,168 l-0.3-0.7l2.8-1.2l0.3,0.7L427.9,168z M433.6,165.6l-0.3-0.7l2.8-1.2l0.3,0.7L433.6,165.6z M439.3,163.2l-0.3-0.7l2.8-1.2 l0.3,0.7L439.3,163.2z M444.9,160.8l-0.3-0.7l2.8-1.2l0.3,0.7L444.9,160.8z M450.6,158.5l-0.3-0.7l2.8-1.2l0.3,0.7L450.6,158.5z M456.3,156.1l-0.3-0.7l2.8-1.2l0.3,0.7L456.3,156.1z M461.9,153.7l-0.3-0.7l2.8-1.2l0.3,0.7L461.9,153.7z M467.6,151.3l-0.3-0.7 l2.8-1.2l0.3,0.7L467.6,151.3z M473.2,149l-0.3-0.7l2.8-1.2l0.3,0.7L473.2,149z M478.9,146.6l-0.3-0.7l2.8-1.2l0.3,0.7 L478.9,146.6z"></path> </g> <ellipse transform="matrix(0.6809 -0.7324 0.7324 0.6809 -18.1568 336.3032)" class="st0" cx="376.8" cy="189" rx="3.1" ry="3.1"></ellipse> </g> <g> <polygon class="st0" points="23.4,141.2 13.9,141.7 19,149.7 "></polygon> <g> <path class="st0" d="M125.6,189.7l-2.8-1.2l0.3-0.7l2.8,1.2L125.6,189.7z M119.9,187.3l-2.8-1.2l0.3-0.7l2.8,1.2L119.9,187.3z M114.3,185l-2.8-1.2l0.3-0.7l2.8,1.2L114.3,185z M108.6,182.6l-2.8-1.2l0.3-0.7l2.8,1.2L108.6,182.6z M102.9,180.2l-2.8-1.2 l0.3-0.7l2.8,1.2L102.9,180.2z M97.3,177.8l-2.8-1.2l0.3-0.7l2.8,1.2L97.3,177.8z M91.6,175.5l-2.8-1.2l0.3-0.7l2.8,1.2 L91.6,175.5z M85.9,173.1l-2.8-1.2l0.3-0.7l2.8,1.2L85.9,173.1z M80.3,170.7l-2.8-1.2l0.3-0.7l2.8,1.2L80.3,170.7z M74.6,168.3 l-2.8-1.2l0.3-0.7l2.8,1.2L74.6,168.3z M69,166l-2.8-1.2l0.3-0.7l2.8,1.2L69,166z M63.3,163.6l-2.8-1.2l0.3-0.7l2.8,1.2 L63.3,163.6z M57.6,161.2l-2.8-1.2l0.3-0.7l2.8,1.2L57.6,161.2z M52,158.8l-2.8-1.2l0.3-0.7l2.8,1.2L52,158.8z M46.3,156.5 l-2.8-1.2l0.3-0.7l2.8,1.2L46.3,156.5z M40.6,154.1l-2.8-1.2l0.3-0.7l2.8,1.2L40.6,154.1z M35,151.7l-2.8-1.2l0.3-0.7l2.8,1.2 L35,151.7z M29.3,149.3l-2.8-1.2l0.3-0.7l2.8,1.2L29.3,149.3z M23.7,147l-2.8-1.2l0.3-0.7l2.8,1.2L23.7,147z"></path> </g> <ellipse transform="matrix(0.7324 -0.6809 0.6809 0.7324 -95.2867 136.2767)" class="st0" cx="125.7" cy="189.4" rx="3.1" ry="3.1"></ellipse> </g> <g> <polygon class="st0" points="10.5,359.1 1,358.7 6.2,350.7 "></polygon> <g> <path class="st0" d="M8.2,355.3L8,354.5l2.8-1.2l0.3,0.7L8.2,355.3z M13.9,352.9l-0.3-0.7l2.8-1.2l0.3,0.7L13.9,352.9z M19.6,350.5l-0.3-0.7l2.8-1.2l0.3,0.7L19.6,350.5z M25.2,348.1l-0.3-0.7l2.8-1.2l0.3,0.7L25.2,348.1z M30.9,345.8l-0.3-0.7 l2.8-1.2l0.3,0.7L30.9,345.8z M36.6,343.4l-0.3-0.7l2.8-1.2l0.3,0.7L36.6,343.4z M42.2,341l-0.3-0.7l2.8-1.2l0.3,0.7L42.2,341z M47.9,338.6l-0.3-0.7l2.8-1.2l0.3,0.7L47.9,338.6z M53.5,336.3l-0.3-0.7l2.8-1.2l0.3,0.7L53.5,336.3z M59.2,333.9l-0.3-0.7 l2.8-1.2l0.3,0.7L59.2,333.9z M64.9,331.5l-0.3-0.7l2.8-1.2l0.3,0.7L64.9,331.5z M70.5,329.1l-0.3-0.7l2.8-1.2l0.3,0.7 L70.5,329.1z M76.2,326.8l-0.3-0.7l2.8-1.2l0.3,0.7L76.2,326.8z M81.9,324.4l-0.3-0.7l2.8-1.2l0.3,0.7L81.9,324.4z M87.5,322 l-0.3-0.7l2.8-1.2l0.3,0.7L87.5,322z M93.2,319.6l-0.3-0.7l2.8-1.2l0.3,0.7L93.2,319.6z M98.8,317.3l-0.3-0.7l2.8-1.2l0.3,0.7 L98.8,317.3z M104.5,314.9l-0.3-0.7l2.8-1.2l0.3,0.7L104.5,314.9z M110.2,312.5l-0.3-0.7l2.8-1.2l0.3,0.7L110.2,312.5z"></path> </g> <ellipse transform="matrix(0.6809 -0.7323 0.7323 0.6809 -191.7319 181.8612)" class="st0" cx="112.8" cy="311" rx="3.1" ry="3.1"></ellipse> </g> <g> <polygon class="st0" points="149.4,13.3 150.2,3.8 158,9.2 "></polygon> <g> <path class="st0" d="M193.4,117.4l-1.1-2.9l0.7-0.3l1.1,2.9L193.4,117.4z M191.3,111.6l-1.1-2.9l0.7-0.3l1.1,2.9L191.3,111.6z M189.1,105.9L188,103l0.7-0.3l1.1,2.9L189.1,105.9z M186.9,100.2l-1.1-2.9l0.7-0.3l1.1,2.9L186.9,100.2z M184.8,94.4l-1.1-2.9 l0.7-0.3l1.1,2.9L184.8,94.4z M182.6,88.7l-1.1-2.9l0.7-0.3l1.1,2.9L182.6,88.7z M180.4,82.9l-1.1-2.9l0.7-0.3l1.1,2.9 L180.4,82.9z M178.3,77.2l-1.1-2.9l0.7-0.3l1.1,2.9L178.3,77.2z M176.1,71.4l-1.1-2.9l0.7-0.3l1.1,2.9L176.1,71.4z M173.9,65.7 l-1.1-2.9l0.7-0.3l1.1,2.9L173.9,65.7z M171.8,59.9l-1.1-2.9l0.7-0.3l1.1,2.9L171.8,59.9z M169.6,54.2l-1.1-2.9l0.7-0.3l1.1,2.9 L169.6,54.2z M167.4,48.5l-1.1-2.9l0.7-0.3l1.1,2.9L167.4,48.5z M165.3,42.7l-1.1-2.9l0.7-0.3l1.1,2.9L165.3,42.7z M163.1,37 l-1.1-2.9l0.7-0.3l1.1,2.9L163.1,37z M160.9,31.2l-1.1-2.9l0.7-0.3l1.1,2.9L160.9,31.2z M158.8,25.5l-1.1-2.9l0.7-0.3l1.1,2.9 L158.8,25.5z M156.6,19.7l-1.1-2.9l0.7-0.3l1.1,2.9L156.6,19.7z M154.4,14l-1.1-2.9l0.7-0.3l1.1,2.9L154.4,14z"></path> </g> <ellipse transform="matrix(0.7071 -0.7071 0.7071 0.7071 -26.1481 171.3827)" class="st0" cx="193.8" cy="117.3" rx="3.1" ry="3.1"></ellipse> </g> <g> <g> <path class="st0" d="M89.9,340.2c-0.2-0.4-0.5-0.9-0.7-1.3l0.7-0.4c0.2,0.4,0.5,0.9,0.7,1.3L89.9,340.2z"></path> </g> <g> <path class="st0" d="M251,435.1c-0.8,0-1.6,0-2.4,0l0-0.8c0.8,0,1.6,0,2.4,0l0.7,0l0,0.8L251,435.1z M254.7,435.1l0-0.8 c1,0,2,0,3.1-0.1l0,0.8C256.8,435.1,255.7,435.1,254.7,435.1z M245.5,435.1c-1,0-2.1-0.1-3.1-0.1l0-0.8c1,0,2,0.1,3.1,0.1 L245.5,435.1z M260.9,434.9l0-0.8c1-0.1,2-0.1,3.1-0.2l0.1,0.8C262.9,434.8,261.9,434.8,260.9,434.9z M239.3,434.8 c-1-0.1-2-0.1-3.1-0.2l0.1-0.8c1,0.1,2,0.2,3.1,0.2L239.3,434.8z M267,434.5l-0.1-0.8c1-0.1,2-0.2,3.1-0.3l0.1,0.8 C269,434.3,268,434.4,267,434.5z M233.2,434.3c-1-0.1-2-0.2-3.1-0.3l0.1-0.8c1,0.1,2,0.2,3,0.3L233.2,434.3z M273.1,433.8 l-0.1-0.8c1-0.1,2-0.3,3-0.4l0.1,0.8C275.2,433.6,274.1,433.7,273.1,433.8z M227.1,433.6c-1-0.1-2-0.3-3-0.4l0.1-0.8 c1,0.1,2,0.3,3,0.4L227.1,433.6z M279.2,433l-0.1-0.8c1-0.2,2-0.3,3-0.5l0.1,0.8C281.2,432.7,280.2,432.8,279.2,433z M221,432.7 c-1-0.2-2-0.3-3-0.5l0.1-0.8c1,0.2,2,0.4,3,0.5L221,432.7z M285.3,431.9l-0.1-0.8c1-0.2,2-0.4,3-0.6l0.2,0.8 C287.3,431.6,286.3,431.8,285.3,431.9z M214.9,431.6c-1-0.2-2-0.4-3-0.6l0.2-0.7c1,0.2,2,0.4,3,0.6L214.9,431.6z M291.3,430.7 l-0.2-0.7c1-0.2,2-0.5,3-0.7l0.2,0.7C293.3,430.3,292.3,430.5,291.3,430.7z M208.9,430.3c-1-0.2-2-0.5-3-0.7l0.2-0.7 c1,0.2,2,0.5,3,0.7L208.9,430.3z M297.3,429.3l-0.2-0.7c1-0.3,2-0.5,3-0.8l0.2,0.7C299.3,428.7,298.3,429,297.3,429.3z M203,428.8c-1-0.3-2-0.5-3-0.8l0.2-0.7c1,0.3,2,0.6,2.9,0.8L203,428.8z M303.2,427.6l-0.2-0.7c1-0.3,2-0.6,2.9-0.9l0.2,0.7 C305.2,427,304.2,427.3,303.2,427.6z M197.1,427.1c-1-0.3-2-0.6-2.9-0.9l0.2-0.7c1,0.3,1.9,0.6,2.9,0.9L197.1,427.1z M309.1,425.8l-0.2-0.7c1-0.3,1.9-0.7,2.9-1l0.3,0.7C311.1,425.1,310.1,425.4,309.1,425.8z M191.2,425.2c-1-0.3-1.9-0.7-2.9-1 l0.3-0.7c1,0.3,1.9,0.7,2.9,1L191.2,425.2z M314.9,423.7l-0.3-0.7c1-0.4,1.9-0.7,2.9-1.1l0.3,0.7 C316.9,423,315.9,423.4,314.9,423.7z M185.5,423.1c-1-0.4-1.9-0.7-2.9-1.1l0.3-0.7c0.9,0.4,1.9,0.7,2.8,1.1L185.5,423.1z M320.7,421.5l-0.3-0.7c0.9-0.4,1.9-0.8,2.8-1.2l0.3,0.7C322.6,420.7,321.6,421.1,320.7,421.5z M179.8,420.9 c-0.9-0.4-1.9-0.8-2.8-1.2l0.3-0.7c0.9,0.4,1.9,0.8,2.8,1.2L179.8,420.9z M326.4,419l-0.3-0.7c0.9-0.4,1.9-0.8,2.8-1.3l0.3,0.7 C328.2,418.2,327.3,418.6,326.4,419z M174.1,418.4c-0.9-0.4-1.9-0.9-2.8-1.3l0.3-0.7c0.9,0.4,1.8,0.9,2.8,1.3L174.1,418.4z M331.9,416.4l-0.3-0.7c0.9-0.5,1.8-0.9,2.7-1.4l0.4,0.7C333.8,415.5,332.9,416,331.9,416.4z M168.6,415.7 c-0.9-0.5-1.8-0.9-2.7-1.4l0.4-0.7c0.9,0.5,1.8,0.9,2.7,1.4L168.6,415.7z M337.4,413.6l-0.4-0.7c0.9-0.5,1.8-1,2.7-1.5l0.4,0.7 C339.2,412.6,338.3,413.1,337.4,413.6z M163.2,412.9c-0.9-0.5-1.8-1-2.7-1.5l0.4-0.7c0.9,0.5,1.8,1,2.7,1.5L163.2,412.9z M342.8,410.6l-0.4-0.7c0.9-0.5,1.8-1,2.6-1.6l0.4,0.7C344.6,409.6,343.7,410.1,342.8,410.6z M157.8,409.9 c-0.9-0.5-1.8-1-2.6-1.6l0.4-0.7c0.9,0.5,1.7,1.1,2.6,1.6L157.8,409.9z M348.1,407.4l-0.4-0.7c0.9-0.5,1.7-1.1,2.6-1.6l0.4,0.6 C349.9,406.4,349,406.9,348.1,407.4z M152.6,406.7c-0.9-0.5-1.7-1.1-2.6-1.7l0.4-0.6c0.9,0.6,1.7,1.1,2.6,1.7L152.6,406.7z M353.3,404.1l-0.4-0.6c0.8-0.6,1.7-1.1,2.5-1.7l0.4,0.6C355,402.9,354.1,403.5,353.3,404.1z M147.4,403.3 c-0.8-0.6-1.7-1.2-2.5-1.8l0.4-0.6c0.8,0.6,1.7,1.2,2.5,1.7L147.4,403.3z M358.4,400.6l-0.4-0.6c0.8-0.6,1.7-1.2,2.5-1.8l0.5,0.6 C360,399.4,359.2,400,358.4,400.6z M142.4,399.7c-0.8-0.6-1.7-1.2-2.5-1.8l0.5-0.6c0.8,0.6,1.6,1.2,2.5,1.8L142.4,399.7z M363.3,396.9l-0.5-0.6c0.8-0.6,1.6-1.3,2.4-1.9l0.5,0.6C364.9,395.6,364.1,396.3,363.3,396.9z M137.5,396 c-0.8-0.6-1.6-1.3-2.4-1.9l0.5-0.6c0.8,0.6,1.6,1.3,2.4,1.9L137.5,396z M368.1,393.1l-0.5-0.6c0.8-0.7,1.6-1.3,2.3-2l0.5,0.6 C369.7,391.8,368.9,392.4,368.1,393.1z M132.7,392.1c-0.8-0.7-1.6-1.3-2.3-2l0.5-0.6c0.8,0.7,1.5,1.3,2.3,2L132.7,392.1z M372.8,389.1l-0.5-0.6c0.8-0.7,1.5-1.4,2.3-2l0.5,0.6C374.3,387.7,373.6,388.4,372.8,389.1z M128.1,388.1 c-0.8-0.7-1.5-1.4-2.3-2.1l0.5-0.6c0.7,0.7,1.5,1.4,2.3,2.1L128.1,388.1z M377.3,384.9l-0.5-0.6c0.7-0.7,1.5-1.4,2.2-2.1l0.5,0.5 C378.8,383.5,378.1,384.2,377.3,384.9z M123.6,383.9c-0.7-0.7-1.5-1.4-2.2-2.1l0.5-0.5c0.7,0.7,1.5,1.4,2.2,2.1L123.6,383.9z M381.7,380.6l-0.5-0.5c0.7-0.7,1.4-1.5,2.1-2.2l0.6,0.5C383.2,379.2,382.5,379.9,381.7,380.6z M119.2,379.6 c-0.7-0.7-1.4-1.5-2.1-2.2l0.6-0.5c0.7,0.7,1.4,1.5,2.1,2.2L119.2,379.6z M386,376.2l-0.6-0.5c0.7-0.7,1.4-1.5,2.1-2.3l0.6,0.5 C387.4,374.7,386.7,375.4,386,376.2z M115,375.1c-0.7-0.8-1.4-1.5-2.1-2.3l0.6-0.5c0.7,0.8,1.4,1.5,2,2.3L115,375.1z M390.1,371.6l-0.6-0.5c0.7-0.8,1.3-1.5,2-2.3l0.6,0.5C391.4,370,390.8,370.8,390.1,371.6z M110.9,370.5c-0.7-0.8-1.3-1.6-2-2.4 l0.6-0.5c0.7,0.8,1.3,1.6,2,2.3L110.9,370.5z M394,366.9l-0.6-0.5c0.6-0.8,1.3-1.6,1.9-2.4l0.6,0.5 C395.3,365.3,394.7,366.1,394,366.9z M107,365.7c-0.6-0.8-1.3-1.6-1.9-2.4l0.6-0.5c0.6,0.8,1.3,1.6,1.9,2.4L107,365.7z M397.8,362l-0.6-0.5c0.6-0.8,1.2-1.6,1.8-2.5l0.6,0.5C399.1,360.4,398.4,361.2,397.8,362z M103.2,360.9 c-0.6-0.8-1.2-1.7-1.8-2.5l0.6-0.4c0.6,0.8,1.2,1.7,1.8,2.5L103.2,360.9z M401.5,357.1l-0.6-0.4c0.6-0.8,1.2-1.7,1.7-2.5l0.6,0.4 C402.6,355.4,402,356.2,401.5,357.1z M99.6,355.9c-0.6-0.8-1.2-1.7-1.7-2.5l0.6-0.4c0.6,0.8,1.1,1.7,1.7,2.5L99.6,355.9z M404.9,352l-0.6-0.4c0.6-0.9,1.1-1.7,1.7-2.6l0.6,0.4C406,350.3,405.5,351.1,404.9,352z M96.2,350.7c-0.6-0.9-1.1-1.7-1.6-2.6 l0.7-0.4c0.5,0.9,1.1,1.7,1.6,2.6L96.2,350.7z M408.2,346.8l-0.7-0.4c0.5-0.9,1.1-1.7,1.6-2.6l0.7,0.4 C409.3,345.1,408.7,345.9,408.2,346.8z M93,345.5c-0.5-0.9-1-1.8-1.6-2.7l0.7-0.4c0.5,0.9,1,1.8,1.6,2.6L93,345.5z M411.3,341.5 l-0.7-0.4c0.5-0.9,1-1.8,1.5-2.7l0.7,0.4C412.3,339.7,411.8,340.6,411.3,341.5z M414.2,336.1l-0.7-0.4c0.5-0.9,0.9-1.8,1.4-2.7 l0.7,0.3C415.2,334.3,414.7,335.2,414.2,336.1z M417,330.6l-0.7-0.3c0.4-0.9,0.9-1.8,1.3-2.8l0.7,0.3 C417.9,328.8,417.4,329.7,417,330.6z M419.5,325.1l-0.7-0.3c0.4-0.9,0.8-1.9,1.2-2.8l0.7,0.3C420.4,323.2,420,324.1,419.5,325.1z M421.9,319.4l-0.7-0.3c0.4-0.9,0.8-1.9,1.1-2.9l0.7,0.3C422.7,317.5,422.3,318.5,421.9,319.4z M424.1,313.7l-0.7-0.3 c0.3-1,0.7-1.9,1-2.9l0.7,0.2C424.8,311.7,424.5,312.7,424.1,313.7z M426.1,307.8l-0.7-0.2c0.3-1,0.6-1.9,0.9-2.9l0.7,0.2 C426.7,305.9,426.4,306.9,426.1,307.8z M427.9,302l-0.7-0.2c0.3-1,0.6-2,0.8-3l0.7,0.2C428.5,300,428.2,301,427.9,302z M429.5,296l-0.7-0.2c0.2-1,0.5-2,0.7-3l0.7,0.2C430,294,429.7,295,429.5,296z M430.9,290l-0.8-0.2c0.2-1,0.4-2,0.6-3l0.8,0.1 C431.3,288,431.1,289,430.9,290z M432.1,284l-0.8-0.1c0.2-1,0.4-2,0.5-3l0.8,0.1C432.4,282,432.3,283,432.1,284z M433.1,277.9 l-0.8-0.1c0.1-1,0.3-2,0.4-3l0.8,0.1C433.4,275.9,433.2,276.9,433.1,277.9z M433.9,271.8l-0.8-0.1c0.1-1,0.2-2,0.3-3l0.8,0.1 C434.1,269.8,434,270.8,433.9,271.8z M434.4,265.7l-0.8-0.1c0.1-1,0.2-2,0.2-3.1l0.8,0C434.6,263.6,434.5,264.7,434.4,265.7z M434.8,259.5l-0.8,0c0-1,0.1-2,0.1-3.1l0.8,0C434.9,257.5,434.9,258.5,434.8,259.5z M435,253.4l-0.8,0c0-0.8,0-1.5,0-2.3l0-0.8 l0.8,0l0,0.8C435,251.9,435,252.6,435,253.4z M434.2,247.2c0-1-0.1-2-0.1-3.1l0.8,0c0,1,0.1,2.1,0.1,3.1L434.2,247.2z M434,241.1 c-0.1-1-0.1-2-0.2-3.1l0.8-0.1c0.1,1,0.1,2,0.2,3.1L434,241.1z M433.5,235c-0.1-1-0.2-2-0.3-3.1l0.8-0.1c0.1,1,0.2,2,0.3,3.1 L433.5,235z M432.9,228.9c-0.1-1-0.3-2-0.4-3l0.8-0.1c0.1,1,0.3,2,0.4,3.1L432.9,228.9z M432.1,222.8c-0.2-1-0.3-2-0.5-3l0.8-0.1 c0.2,1,0.3,2,0.5,3L432.1,222.8z M431,216.8c-0.2-1-0.4-2-0.6-3l0.8-0.2c0.2,1,0.4,2,0.6,3L431,216.8z M429.8,210.7 c-0.2-1-0.5-2-0.7-3l0.7-0.2c0.2,1,0.5,2,0.7,3L429.8,210.7z M428.3,204.8c-0.3-1-0.5-2-0.8-3l0.7-0.2c0.3,1,0.5,2,0.8,3 L428.3,204.8z M426.7,198.9c-0.3-1-0.6-2-0.9-2.9l0.7-0.2c0.3,1,0.6,2,0.9,2.9L426.7,198.9z M424.9,193c-0.3-1-0.7-1.9-1-2.9 l0.7-0.3c0.3,1,0.7,1.9,1,2.9L424.9,193z M422.8,187.2c-0.4-1-0.7-1.9-1.1-2.9l0.7-0.3c0.4,1,0.7,1.9,1.1,2.9L422.8,187.2z M420.6,181.5c-0.4-0.9-0.8-1.9-1.2-2.8l0.7-0.3c0.4,0.9,0.8,1.9,1.2,2.8L420.6,181.5z M418.2,175.9c-0.4-0.9-0.8-1.9-1.3-2.8 l0.7-0.3c0.4,0.9,0.9,1.9,1.3,2.8L418.2,175.9z"></path> </g> <g> <path class="st0" d="M415.5,170.2c-0.2-0.5-0.5-0.9-0.7-1.4l0.7-0.3c0.2,0.5,0.5,0.9,0.7,1.4L415.5,170.2z"></path> </g> </g> <g id="chemistry_1_"> <circle class="st1" cx="391.5" cy="103.1" r="37.8"></circle> <path class="st2" d="M398.8,74.5L392,99.4l3.2,3.2l-1.9,6.9l-8.3-8.3l-6.8,24.9l14.7,14.7c19.6-0.7,35.4-16.3,36.3-35.8 L398.8,74.5z"></path> <g> <path class="st0" d="M398.4,95.6V78h0.2c0.2,0,0.3-0.1,0.3-0.3v-3c0-0.2-0.1-0.3-0.3-0.3h-0.5h-13.2h-0.5c-0.2,0-0.3,0.1-0.3,0.3 v3c0,0.2,0.1,0.3,0.3,0.3h0.2v17.5c-6.9,2.7-11.8,9.5-11.8,17.4c0,10.3,8.4,18.7,18.7,18.7c10.3,0,18.7-8.4,18.7-18.7 C410.3,105.1,405.3,98.3,398.4,95.6z"></path> <path class="st3" d="M391.5,96.5c-9.1,0-16.5,7.4-16.5,16.5c0,9.1,7.4,16.5,16.5,16.5c9.1,0,16.5-7.4,16.5-16.5 C408,103.9,400.6,96.5,391.5,96.5z M387.2,121.8c-1.3,0-2.4-1.1-2.4-2.4c0-1.3,1.1-2.4,2.4-2.4c1.3,0,2.4,1.1,2.4,2.4 C389.6,120.8,388.5,121.8,387.2,121.8z M388.7,111.6c0-0.8,0.6-1.4,1.4-1.4c0.8,0,1.4,0.6,1.4,1.4c0,0.8-0.6,1.4-1.4,1.4 C389.4,113,388.7,112.4,388.7,111.6z M393,127.5c-1.3,0-2.4-1.1-2.4-2.4c0-1.3,1.1-2.4,2.4-2.4c1.3,0,2.4,1.1,2.4,2.4 C395.3,126.5,394.3,127.5,393,127.5z M396.7,112.3c-0.8,0-1.4-0.6-1.4-1.4c0-0.8,0.6-1.4,1.4-1.4c0.8,0,1.4,0.6,1.4,1.4 C398.1,111.7,397.5,112.3,396.7,112.3z"></path> <path class="st0" d="M396.2,97V76.3c0-0.1-0.1-0.3-0.2-0.3h-8.9c-0.1,0-0.2,0.1-0.2,0.3V97c-5.2,1.5-9.3,5.5-11,10.7h31.3 C405.5,102.6,401.4,98.6,396.2,97z"></path> <circle class="st4" cx="392.7" cy="102" r="3.4"></circle> <circle class="st4" cx="390.6" cy="87.7" r="2.4"></circle> <circle class="st3" cx="392" cy="77.4" r="1.4"></circle> </g> </g> <g id="Art_palette_1_"> <circle class="st5" cx="379.9" cy="397.9" r="40.6"></circle> <path class="st6" d="M398.7,376.6l3.9,3.9l-2.4,2.4l-0.3-0.3l-2.2,2.2l-8.3-8.3l-24,24l10,10l-8.8,8.8l18.9,18.9 c19.8-2.7,35-19.7,35-40.2c0-2.7-0.3-5.2-0.7-7.8l-17.3-17.3L398.7,376.6z"></path> <g> <path class="st0" d="M386.1,396.9c4.4-3.9,7.2-6,7-11.2c-0.2-7-4.7-14-18.3-13.5c-16.5,0.5-33.3,24.6-7,48.2 c10.2,9.1,23.9-1.9,18.6-11.2C384.9,406.3,382.5,400,386.1,396.9z M382.2,416c-1.2,2.8-4.1,4.3-6.4,3.2c-2.3-1-3.2-4.1-1.9-6.9 c1.2-2.8,4.1-4.3,6.4-3.2C382.5,410.1,383.4,413.2,382.2,416z"></path> <circle class="st7" cx="385" cy="381.7" r="3.4"></circle> <ellipse transform="matrix(0.7659 -0.6429 0.6429 0.7659 -156.1281 329.3674)" class="st3" cx="374.3" cy="379.1" rx="3.4" ry="3.4"></ellipse> <ellipse transform="matrix(0.1735 -0.9848 0.9848 0.1735 -77.0322 676.2168)" class="st4" cx="364.4" cy="384" rx="3.4" ry="3.4"></ellipse> <ellipse transform="matrix(0.8661 -0.4999 0.4999 0.8661 -148.8182 232.6886)" class="st8" cx="359.9" cy="394.1" rx="3.4" ry="3.4"></ellipse> <ellipse transform="matrix(0.342 -0.9397 0.9397 0.342 -141.4633 607.4409)" class="st9" cx="363" cy="404.7" rx="3.4" ry="3.4"></ellipse> <path class="st10" d="M403.2,411.7c-0.5,2.1-4.2,2.1-4.7,0c-0.7-3.8-1.3-6.1-2.2-9.9c3-0.3,6.1-0.3,9.1,0 C404.5,405.6,403.9,408,403.2,411.7z"></path> <path class="st9" d="M403.7,376.4c-0.3-5.7-5.4-5.7-5.7,0c-0.5,9.6-1,15.7-1.6,25.4c3,0,5.9,0,8.9,0 C404.7,392.1,404.3,386.1,403.7,376.4z"></path> <rect x="396.1" y="401.8" class="st9" width="9.5" height="1.4"></rect> <path class="st4" d="M397.1,417.1c0.9,1.3,3.8,4.1,2.2,6.2c0,0,4.7-2.9,5.8-6.6c0.3-0.8,0.4-1.6,0.3-2.5 c-0.2-2.5-2.4-4.4-4.9-4.2c-2.5,0.2-4.4,2.4-4.2,4.9C396.3,415.7,396.6,416.4,397.1,417.1z"></path> <path class="st3" d="M399.9,416.6c-2.3-4.3,0.7-6.7,0.7-6.7c0,0-0.1,0-0.1,0c-0.8,0.1-1.6,0.3-2.2,0.8c-1.3,0.9-2.2,2.5-2,4.2 c0.1,0.8,0.3,1.6,0.8,2.2c0.9,1.3,3.8,4.1,2.2,6.2C399.3,423.2,402.3,420.9,399.9,416.6z"></path> </g> </g> <g id="globe_1_"> <circle class="st0" cx="452.1" cy="235.3" r="40.6"></circle> <path class="st10" d="M467.4,214.9L456,226.4l-19.8-19.8l-2.8,2.8l2.9,2.9c-2.7,3.1-11.7,14.8-4.7,25.3l-0.8,0.8l2.5,2.5l-0.5,0.5 l4,4l-2,2l13.3,13.3l-2.6,2.6l-1.8-1.8l-2.8,2.8l11.4,11.4c1.8,0,3.6-0.1,5.3-0.4l0,0c2.8-0.4,5.6-1.1,8.2-2l0,0 c1.4-0.5,2.7-1.1,4-1.7l0,0c9.2-4.4,16.4-12.2,20.1-21.8c0,0,0-0.1,0-0.1c0.9-2.3,1.6-4.8,2.1-7.3c0-0.1,0-0.1,0-0.2 c0.1-0.8,0.3-1.7,0.4-2.5L467.4,214.9z"></path> <g> <g> <rect x="451" y="255.2" class="st2" width="5.3" height="5.7"></rect> <g> <path class="st1" d="M471.7,243.6c-0.5,0.7-1.1,1.4-1.8,2c-9,9-23.6,9-32.6,0c-9-9-9-23.6,0-32.6c0.6-0.6,1.3-1.2,2-1.8 l-2.3-2.3c-0.7,0.6-1.3,1.1-2,1.8c-10.3,10.3-10.3,26.9,0,37.2c10.3,10.3,26.9,10.3,37.2,0c0.6-0.6,1.2-1.3,1.8-2L471.7,243.6z "></path> </g> <rect x="436.9" y="207" transform="matrix(0.7071 -0.7071 0.7071 0.7071 -21.1166 371.6538)" class="st2" width="2.2" height="8.7"></rect> <circle class="st2" cx="434.8" cy="208.2" r="2"></circle> <path class="st1" d="M466.7,264.5c-0.1-2-1.7-3.6-3.8-3.6h-18.3c-2,0-3.7,1.6-3.8,3.6H466.7z"></path> <rect x="470.4" y="240.6" transform="matrix(0.7076 -0.7066 0.7066 0.7076 -35.1783 404.808)" class="st2" width="2.2" height="8.7"></rect> <circle class="st2" cx="474.8" cy="248" r="2"></circle> </g> <path class="st11" d="M439.8,215.3c-7.7,7.7-7.7,20.3,0,28c7.7,7.7,20.3,7.7,28,0c7.7-7.7,7.7-20.3,0-28 C460.1,207.6,447.5,207.6,439.8,215.3z"></path> <g> <g> <path class="st12" d="M471.5,220.5c0,0,0,0.1,0,0.1c0,0,0.1,0.1,0.1,0.2c0,0,0.3,0.7,0.6,1.4c0.3,0.8,0.8,2.9,0.8,3 c0,0.1-0.1,0.4-0.2,0.6c-0.1,0.2-0.3,0.6-0.4,0.6c-0.1,0-0.4,0-0.5-0.3c0,0,0,0-0.3-0.2c-0.1-0.1-0.1-0.1-0.1-0.1 c-0.2,0-0.4-0.2-0.6-0.3c-0.2-0.2-0.5-0.6-0.5-0.7c0.1-0.1,0-0.6-0.2-0.9c0,0,0,0,0-0.3c0-0.2,0-0.2,0-0.2c0.1,0,0.2,0,0.1-0.1 c-0.1-0.1-0.1-0.4,0-0.5c0-0.1,0.3-0.3,0.2-0.4c-0.1-0.1-0.2-0.5-0.1-0.7c0-0.1,0.2-0.5,0.1-0.5c-0.1-0.1,0.1-0.4,0.2-0.6 C470.9,220.6,471.4,220.5,471.5,220.5z"></path> </g> <g> <path class="st12" d="M434.8,234.4c-0.4-1.8-0.7-3.3-0.6-3.3c0,0,0.1-0.2,0.1-0.3c0-0.1,0.3-0.4,0.4-0.3 c0.1,0.1,0.2-0.1,0.1-0.3c-0.1-0.2-0.4-0.3-0.5-0.4c0-0.1-0.1-0.2,0-0.2c0.1,0,0.4-0.2,0.6-0.2c0.2,0,0.6,0.1,0.6,0.2 c0,0.1,0.3,0.1,0.2,0c0-0.1-0.2-0.4-0.2-0.3c-0.1,0-0.4-0.1-0.6-0.3c-0.2-0.2-0.3-0.9-0.2-0.9c0.1,0,0.4,0,0.4-0.2 c0-0.2,0.4-0.1,0.5-0.2c0-0.1,0.4-0.4,0.5-0.4c0.1,0,0.3,0.1,0.4,0c0.1-0.1,0.4-0.3,0.5-0.2c0.1,0,0.4,0.2,0.4,0.3 c0,0.1,0.2,0.2,0.3,0.2c0.1,0,0.4-0.2,0.5-0.1c0.1,0.1,0.2,0,0.2,0c0,0.1,0.2,0.3,0.2,0.4c0,0.1,0,0.2-0.1,0.2 c-0.1,0-0.3,0.2-0.2,0.2c0.1,0,0.4,0.3,0.4,0.4c0,0.1,0.3,0.4,0,0.5c-0.2,0-1,0.3-1.1,0.4c-0.1,0.1-0.3-0.2-0.1-0.7 c0,0,0,0-0.4-0.4c-0.2-0.3-0.2-0.3-0.2-0.3c-0.2,0-0.5,0.1-0.6,0.1c-0.1,0-0.2,0.3-0.3,0.4c-0.1,0-0.3,0.2-0.2,0.2 c0.1,0,0.3,0.1,0.4,0.2c0.1,0.1,0.3,0.5,0.2,0.7c-0.1,0.1-0.3,0.7-0.3,0.7c0,0,0.2,0.3,0.1,0.4c0,0.2,0.1,0.7,0.1,0.8 c0,0.1,0,0.5,0.1,0.6c0.1,0,0,0.1,0.1,0.1c0.1,0,0.5,0.3,0.7,0.2c0.2,0,0.6-0.1,0.6-0.2c0-0.1,0.2-0.1,0.2-0.1 c0-0.1,0.3,0,0.5,0.1c0.2,0.1,0.4,0.1,0.3,0c-0.1-0.2-0.2-0.5-0.2-0.5c0,0.1-0.2-0.1-0.1-0.1c0.1,0,0-0.4-0.1-0.6 c-0.2-0.2-0.9-0.9-0.9-1c0-0.1,0.2-0.2,0.3-0.1c0.1,0,0.2-0.2,0.4-0.2c0.1,0,0.4-0.2,0.5-0.1c0.1,0.1,0.4,0.3,0.5,0.3 c0.1-0.1,0.2-0.2,0.2-0.3c0-0.1,0-0.2,0.2-0.1c0.2,0.1,0.6,0.1,0.7,0.1c0,0,0.2,0.2,0.3,0.2c0.1,0,0.5,0.2,0.5,0.1 c0-0.1,0.3,0,0.4,0.1c0.1,0.1,0.6,0.6,0.7,0.6c0.1,0.1,0.5,0,0.5,0.1c0.1,0.1,0.2,0.3,0.1,0.3c-0.1,0-0.2,0.2-0.2,0.2 c0,0-0.2-0.1-0.2,0c0,0.1-0.3,0.1-0.3-0.1c0-0.2-0.3-0.6-0.3-0.4c0,0.2-0.4,0.5-0.3,0.5c0.1,0,0.2,0.3,0.1,0.3 c-0.1,0.1,0.1,0.3,0.2,0.3c0.1,0,0.4,0.1,0.4,0.2c0,0.2-0.1,0.5-0.1,0.5c0-0.1-0.2-0.1-0.3,0.1c-0.1,0.2-0.1,0.7,0,0.7 c0.1,0,0.2,0.3,0.2,0.4c0,0.1-0.1,0.6-0.1,0.7c0,0.1,0.4,0.5,0.4,0.5c0,0.1-0.1,0.2,0,0.3c0.1,0,0.2,0.5,0.1,0.7 c-0.1,0.2,0.2,0.9,0.3,0.9c0.1,0,0.3,0.2,0.4,0.2c0.1,0.1,0.3,0.4,0.2,0.5c-0.1,0-0.7-0.2-0.8-0.2c-0.1,0.1-0.5,0.3-0.5,0.4 c0,0,0,0.2-0.1,0.2c-0.1,0-0.5,0.4-0.5,0.6c0,0.1,0.1,0.8,0.4,1.3c0.3,0.5,1.1,0.1,1.1,0c-0.1-0.1-0.1-0.5,0-0.5 c0.1-0.1,0.4-0.2,0.5-0.1c0.1,0.2,0.5,0.5,0.6,0.3c0.1-0.1,0.6,0,0.8,0.2c0.1,0.2,0.6,0.4,0.6,0.3c0-0.1,0.2-0.4,0.2-0.4 c0.1,0,0.3,0,0.3-0.1c0-0.2-0.1-0.6-0.1-0.7c0-0.1,0.1-0.3,0.2-0.2c0.1,0,0.3-0.1,0.2-0.2c0-0.1,0.2-0.2,0.4-0.2 c0.1,0,0.5,0.1,0.5,0c0,0,0.2-0.2,0.4-0.2c0.2,0,0.8-0.2,0.9-0.1c0.1,0.1,0.8,0,1.1,0c0.3-0.1,0.8,0.3,0.8,0.2 c0.1,0,0.4-0.2,0.5-0.3c0.1-0.1,0.5-0.1,0.6-0.1c0.1-0.1,0.3-0.3,0.5-0.3c0.1-0.1,0.5-0.1,0.5-0.1c0-0.1,0.4,0,0.6,0.1 c0,0,0,0,0.2,0.2c0.1,0.1,0.1,0.1,0.1,0.1c0.1,0.1,0.2,0.3,0.2,0.3c0,0.1,0.1,0.4,0.1,0.6c0,0.1,0.2,0.4,0.2,0.4 c0,0,0,0.2,0,0.3c0.1,0.1,0.2,0.4,0.4,0.6c0.2,0.2,0.6,0.8,0.6,0.9c0,0.1-0.2,0.5-0.2,0.6c0,0.1,0.1,0.4,0.2,0.5 c0.1,0.1,0.2,0.4,0.2,0.5c0,0.1,0.3,0.6,0.3,0.7c0,0.1,0.1,0.3,0.1,0.4c0,0-0.1,0.2-0.1,0.2c-0.1,0.1-0.2,0.3,0,0.3 c0.1,0,0.4,0.5,0.4,0.6c0,0.1-0.2,0.6-0.1,0.7c0.1,0.1,0,0.6,0.2,0.7c0.2,0.1,0.5,0.5,0.6,0.5c0.1,0,0.4,0.3,0.4,0.3 c0,0.1,0,0.4,0,0.5c0,0.1,0.4,0.4,0.4,0.4c0.1,0,0.4,0.2,0.4,0.2c0.1,0,0.3,0,0.2,0.1c-0.1,0.1-0.3,0.4-0.4,0.4 c-0.1,0-0.3,0.1-0.3,0.1c0,0-0.1,0-0.1,0c0,0-0.3-0.2-0.5-0.3c-0.2-0.1-0.7-0.2-0.8-0.4c-0.2-0.1-0.8-0.6-0.9-0.7 c-0.1-0.1-0.3-0.3-0.3-0.3c-0.1,0-0.2-0.3-0.1-0.4c0-0.1-0.2-0.4-0.3-0.3c0,0.1-0.5-0.2-0.7-0.4c-0.3-0.3-0.6-1-0.8-1.2 c-0.2-0.1-0.5-0.7-0.6-0.7c-0.1,0-0.2-0.1-0.3-0.2c0-0.1-0.3-0.3-0.4-0.4c-0.2-0.1-0.8-0.3-1-0.3c-0.2,0-0.7,0-0.7-0.1 c0-0.1-0.3-0.2-0.5-0.1c-0.2,0.1-0.7-0.4-0.7-0.5c0-0.1,0-0.2-0.1-0.2c-0.1,0-0.5,0-0.6-0.1c-0.1-0.1-0.5-0.7-0.6-0.9 c0-0.1-0.3-0.5-0.3-0.6c0-0.1-0.2-0.2-0.3-0.3c-0.1,0-0.4-0.2-0.4-0.1c0,0.1-0.1,0.2-0.3,0.2c-0.2,0-0.6,0.2-0.7,0.1 c0,0-0.2-0.1-0.3-0.1c-0.1,0-0.4,0-0.5,0c-0.1,0-0.4,0.2-0.5,0.2c-0.1,0-0.6,0-0.8,0.1c-0.2,0.1-1.1,0.5-1.2,0.4 c-0.2-0.1-0.8-0.5-0.9-0.6c-0.2,0-0.6-0.1-0.6-0.1c-0.1-0.1-0.1,0.1,0,0.1c0.1,0,0.4,0.3,0.3,0.3c-0.1,0-0.4,0.1-0.5,0 c-0.2-0.1-0.6-0.1-0.7-0.1c0,0-0.2-0.2-0.4-0.3c-0.2-0.1-0.7-0.3-0.8-0.3C437.6,240.5,435.2,236.2,434.8,234.4z"></path> </g> <g> <path class="st12" d="M434.2,227.5c-0.1,0,0-0.6,0.1-1.3c0.1-0.8,0.7-2.8,0.7-2.9c0,0,0.1,0.1,0.1,0.3 c-0.1,0.1-0.1,0.6-0.1,0.6c0.1,0,0.1,0.3,0.1,0.4c0,0.1,0,0.5-0.1,0.6c0,0.1-0.3,0.6-0.3,0.8c0,0.2,0.3,0.6,0.2,0.7 c-0.1,0.1-0.2,0.2-0.1,0.1c0-0.1,0.2,0.1,0.3,0.2c0,0.1-0.2,0.4-0.3,0.6c-0.1,0.2-0.6,0.7-0.6,0.7c0,0-0.1-0.1-0.1-0.1 c0-0.1,0.1-0.3,0.2-0.3C434.3,227.8,434.3,227.5,434.2,227.5z"></path> </g> <g> <path class="st12" d="M457.6,209.9c1.1,0.3,2,0.5,2,0.6c0,0.1,0.2,0.3,0.3,0.2c0.1,0,0.3-0.2,0.5-0.1c0.1,0,0.6,0.3,0.8,0.4 c0.2,0.1,0.6,0.8,0.7,1c0.1,0.2,0.2,0.8,0.2,0.9c0,0.1,0.2,0.6,0.5,0.8c0.3,0.2,0.4,1,0.3,1c-0.1,0-0.6-0.3-0.7-0.3 c-0.1,0-0.4-0.1-0.3,0c0.1,0.1,0.1,0.4,0.1,0.4c0,0-0.1,0.2,0,0.3c0,0.1,0.3,0.2,0.3,0.3c0.1,0,0.4,0.1,0.5,0.2 c0.1,0.1,0.4,0.2,0.5,0.4c0.1,0.2,0.4,0.6,0.4,0.7c0,0,0,0.3,0.1,0.5c0.1,0.2,0.1,0.9,0,1.1c-0.1,0.1,0,0.5,0,0.4 c0,0,0.2,0,0.3,0.1c0.1,0.1,0.3,0.6,0.6,0.9c0.3,0.3,0.1,1.1,0.1,1c-0.1,0-0.3-0.1-0.4-0.1c-0.1,0-0.4,0.1-0.4,0.2 c0.1,0.1,0.4,0.4,0.5,0.4c0.1,0,0.6,0.1,0.8,0.1c0.2,0,0.5,0.5,0.2,0.5c-0.2,0-1,0-1.1-0.1c-0.1-0.1-0.4-0.3-0.4-0.4 c0-0.1-0.2-0.3-0.3-0.3c-0.1,0-0.4-0.1-0.5-0.1c-0.1-0.1-0.3-0.2-0.4-0.1c-0.1,0.1-0.5,0-0.5,0c0-0.1-0.3-0.3-0.4-0.3 c-0.1,0-0.6,0-0.6,0.1c-0.1,0.1-0.1,0.5-0.1,0.6c0,0.1,0.3,0.5,0.3,0.6c0,0.1-0.2,0.3-0.1,0.3c0,0,0.1,0.2,0.1,0.2 c0,0,0,0.3,0.2,0.5c0.2,0.2,0.5,0.9,0.4,1c-0.1,0.1-0.3,0.1-0.4,0c-0.1-0.1-0.3-0.3-0.4-0.3c-0.1,0-0.6-0.2-0.7-0.3 c-0.2-0.1-0.7-0.3-0.8-0.3c-0.1,0-0.4-0.2-0.4-0.2c-0.1,0-0.3,0-0.4,0c0,0-0.2-0.2-0.6-0.2c0,0,0,0-0.3,0.4 c-0.1,0.1-0.1,0.1-0.1,0.1c-0.1,0-0.2,0-0.2,0.1c0,0.1-0.3,0.4-0.4,0.4c-0.1,0-0.5-0.2-0.7-0.2c-0.3,0-0.9,0.1-0.9,0.1 c0,0.1,0,0.2,0.1,0.3c0.1,0,0.4,0,0.5,0c0.1,0.1,0.5,0.2,0.5,0.1c0-0.1,0.4-0.3,0.5-0.2c0.2,0,0.6,0.3,0.6,0.4 c0,0.1,0.3,0.5,0.3,0.6c0,0.1-0.1,0.5-0.1,0.6c0,0.1,0,0.4-0.1,0.7c-0.1,0.3-0.5,0.8-0.7,0.8c-0.2-0.1-0.9-0.3-1.1-0.4 c-0.2-0.1-1-0.2-1.1-0.3c-0.1-0.1-0.4-0.1-0.3,0c0.1,0.1,0.4,0.3,0.5,0.3c0.1,0,0.5,0.1,0.7,0.1c0.2,0,0.8,0.4,1,0.4 c0.2,0,0.8,0.3,0.9,0.2c0.1-0.1,0.3-0.4,0.3-0.5c0-0.1,0.3-0.3,0.5-0.2c0.1,0.1,0.5,0.7,0.6,1c0.1,0.3,0.3,1.3,0.3,1.4 c0,0.1,0,0.5,0.1,0.7c0.1,0.2,0.5,0.9,0.9,1.1c0.3,0.3,1,1.3,1,1.6c0,0.3,0.6,1.3,0.6,1.4c0,0.1-0.1,0.3,0,0.4 c0.1,0.1,0.3,0.5,0.3,0.7c0,0.2,0.2,1,0.1,1.2c-0.1,0.3-0.8,0.9-1,0.7c-0.3-0.2-1.1-0.4-1.2-0.5c-0.1-0.1-0.5-0.4-0.8-0.5 c-0.2-0.1-1-0.4-1.2-0.6c-0.2-0.2-0.6-0.9-0.8-1c-0.2-0.1-0.8-0.4-1-0.5c-0.2-0.1-0.9-0.5-1-0.7c-0.1-0.2-0.7-0.7-0.7-0.6 c0,0.1-0.2,0.3-0.3,0.3c-0.1,0-0.5,0.2-0.6,0.1c0,0,0,0-0.1,0.1c-0.2,0.2-0.2,0.2-0.2,0.2c0.1,0.2,0.1,0.5,0,0.6 c-0.1,0.1-0.5,0.5-0.7,0.6c-0.2,0-0.9,0.1-1.1,0c-0.2-0.1-1-0.4-1.2-0.7c-0.3-0.3-1-1.1-1-1.3c0-0.2-0.4-0.9-0.3-1.3 c0,0,0,0-0.1-0.2c-0.1-0.3-0.1-0.3-0.1-0.3c-0.3-0.4-0.5-0.8-0.4-0.9c0-0.1,0-0.5,0.1-0.5c0.1-0.1,0.4-0.2,0.4-0.4 c0.1-0.2,0.6-0.9,0.7-1c0.1-0.2,0.5-0.5,0.5-0.5c0.1,0,0.1,0.2,0.2,0.2c0.1,0,0.5,0.2,0.7,0.1c0.3-0.1,0.9-0.2,0.8-0.3 c0-0.1,0.2-0.6,0.5-0.8c0.3-0.2,0.9-0.7,0.8-0.8c-0.1-0.1-0.2-0.5-0.2-0.6c-0.1-0.1-0.2-0.1-0.1,0c0.1,0.1-0.1,0.3-0.2,0.2 c0-0.1-0.4,0.2-0.6,0.5c0,0,0,0-0.3,0c-0.1,0-0.1,0-0.1,0c-0.1-0.1-0.3-0.1-0.3-0.2c-0.1-0.1-0.3-0.4-0.3-0.3 c0,0,0,0.2,0.2,0.3c0.1,0.1,0.4,0.4,0.5,0.4c0.1-0.1,0.3,0.2,0.2,0.2c-0.1,0.1-0.3,0-0.3,0c0,0-0.1,0-0.2,0.1 c-0.1,0.1-0.3,0.1-0.4,0c-0.1-0.1-0.3-0.3-0.4-0.3c0,0,0,0-0.1,0c-0.1,0-0.2-0.1-0.3-0.1c-0.4-0.1-0.4-0.1-0.4-0.1 c-0.4,0-0.6,0-0.3,0.1c0.3,0,0.8,0.2,0.7,0.2c-0.1,0,0,0.2,0,0.2c0,0,0.1,0.2,0.1,0.3c0,0.1,0.1,0.5,0,0.5 c-0.1,0-0.3-0.2-0.2-0.2c0.1-0.1-0.1-0.3-0.2-0.3c-0.1,0-0.5,0.1-0.6,0.1c-0.1,0-0.1,0.1,0.1,0.2c0.2,0.1-0.1,0.4-0.3,0.3 c-0.2-0.1-0.5-0.5-0.5-0.3c0,0.1-0.3,0.4-0.3,0.6c0,0.2,0,0.7,0.1,0.9c0.1,0.2,0.3,0.7,0.2,0.7c-0.1,0-0.3,0.3-0.4,0.3 c-0.1,0-0.4,0.2-0.5,0.2c-0.1-0.1-0.5-0.4-0.6-0.5c-0.1-0.1-0.2-0.6-0.1-0.8c0.1-0.2,0.5-0.4,0.5-0.5c0-0.1-0.1-0.2-0.3-0.2 c-0.1,0-0.5-0.2-0.5-0.1c-0.1,0.1-0.3,0.1-0.3,0c0-0.1,0-0.4,0-0.5c0-0.1,0.2-0.4,0.2-0.4c0,0-0.2,0-0.3,0.2 c-0.1,0.1-0.4,0.5-0.4,0.4c0-0.1,0-0.3-0.1-0.3c-0.1,0-0.3-0.4-0.3-0.5c0.1-0.1-0.1-0.3-0.2-0.3c0,0-0.3,0-0.4-0.2 c-0.1-0.1-0.5-0.6-0.5-0.7c0-0.1,0.2-0.3,0.3-0.2c0,0.1,0.1,0.2,0.1,0.2c0.1,0,0.4,0,0.5,0.1c0.1,0,0.6,0.4,0.6,0.4 c0.1,0,0.3,0.1,0.3,0.2c0,0.1,0.2,0.4,0.1,0.3c-0.1-0.1,0.2-0.5,0.1-0.5c0-0.1-0.1-0.4-0.1-0.5c0-0.1,0.2-0.4,0.1-0.4 c0-0.1-0.2,0-0.2-0.1c0-0.1-0.2-0.3-0.3-0.3c-0.1,0.1-0.5-0.1-0.6-0.2c-0.1-0.1-0.6-0.4-0.7-0.6c-0.1-0.2,0-0.7,0-0.7 c0,0-0.1-0.2-0.1-0.2c0,0,0.1-0.1,0.1-0.3c0-0.2-0.2-0.8-0.2-1c0-0.2,0-0.8,0-0.8c0-0.1,0.1-0.1,0.1-0.3c0-0.1,0.1-0.5,0.2-0.6 c0.1-0.1,0.4-0.3,0.5-0.3c0.1,0,0.5,0,0.6,0c0.1-0.1,0.6-0.2,0.8-0.3c0.2-0.1,0.7,0.1,0.7,0c0-0.1-0.2-0.6-0.2-0.6 c0.1,0,0.3-0.1,0.3-0.1c0.1,0.1,0.2,0.1,0.3-0.1c0-0.2,0.2-0.8,0.4-0.9c0.1-0.2,0.4-0.4,0.3-0.3c-0.1,0.1-0.3-0.3-0.1-0.3 c0.1,0,0.5-0.6,0.5-0.8c0-0.2,0-0.7,0-0.8c0.1,0,0.3-0.1,0.3-0.2c0-0.1,0.2-0.2,0.3-0.2c0.1,0.1,0.2,0.1,0.2,0 c0-0.1-0.1-0.3,0-0.3c0.1,0,0.4-0.2,0.3-0.1c-0.1,0-0.4-0.2-0.3-0.3c0-0.1,0.1-0.3,0.1-0.4c0-0.1,0-0.3,0-0.4 c0-0.1,0.1-0.4,0.3-0.6c0.1-0.1,0.2-0.5,0.3-0.5c0.1,0,0.2-0.1,0.2-0.2c0-0.1,0.2-0.4,0.1-0.5c-0.1-0.1,0-0.3,0.1-0.3 c0.1,0,0.4-0.2,0.5-0.3c0.1-0.1,0.4-0.4,0.5-0.4c0.1,0,0.5,0.2,0.5,0.3c0,0.1,0.4,0.2,0.6,0c0,0,0,0,0.1-0.1 c0.1,0,0.1-0.2,0.2-0.2c0.1-0.1,0.1-0.1,0.1-0.1C453.4,209.6,456.5,209.7,457.6,209.9z"></path> </g> <g> <path class="st12" d="M462.9,211.8c0.1,0.1,0.2,0.1,0.2,0.2c0,0,0,0-0.1,0c-0.1,0-0.2,0.1-0.1,0.2c0,0.1-0.3,0.1-0.4,0 c-0.1-0.1-0.4-0.5-0.3-0.5C462.3,211.6,462.8,211.7,462.9,211.8z"></path> </g> <g> <path class="st12" d="M466.4,218.4c0,0-0.1,0-0.1-0.1c0-0.1,0.1-0.3,0-0.4c-0.1-0.1-0.1-0.3,0-0.3c0.1,0,0.4,0.1,0.5,0 c0.1-0.1,0.3,0.3,0.2,0.4c-0.1,0.1-0.1,0.4-0.2,0.4C466.8,218.3,466.5,218.3,466.4,218.4z"></path> </g> <g> <path class="st12" d="M468.5,220.5c0.1,0,0.2,0.1,0.1,0.1c-0.1,0-0.3,0.1-0.3,0.2c0,0.1,0,0.1-0.3,0c-0.3-0.2-0.4-0.8-0.3-0.9 c0.1-0.1,0.5,0.1,0.4,0.2C468.2,220.2,468.4,220.5,468.5,220.5z"></path> </g> <g> <path class="st12" d="M467.4,220.4c0.1,0.1,0.2,0.3,0.3,0.4c0.1,0.1,0.1,0.5,0.1,0.5c0,0,0.1,0,0,0.1c0,0.1,0,0.2-0.2,0.2 c-0.1,0-0.6,0.4-0.7,0.3c-0.1,0-0.5-0.5-0.4-0.8c0.1-0.3-0.3-1.2-0.2-1.3c0.1-0.1,0.5,0,0.5,0 C467,219.9,467.3,220.3,467.4,220.4z"></path> </g> <g> <path class="st12" d="M468.4,222.2c0.1,0-0.1,0.1-0.3,0.2c-0.3,0.1-1,0.6-1,0.6c0-0.1,0-0.4,0.2-0.4 C467.6,222.4,468.4,222.2,468.4,222.2z"></path> </g> <g> <path class="st12" d="M464.3,217.1c0,0.1,0,0.2-0.1,0.1c-0.1-0.1-0.3-0.2-0.3-0.3C463.9,216.7,464.3,217,464.3,217.1z"></path> </g> <g> <path class="st12" d="M465.1,217.4c0.2-0.1,0.3-0.1,0.4,0c0.1,0.1,0.1,0.5,0,0.5C465.3,217.9,464.9,217.5,465.1,217.4z"></path> </g> <g> <path class="st12" d="M469.1,218.7c0.2,0.2-0.1,0.6-0.3,0.7C468.5,219.2,468.8,218.8,469.1,218.7z"></path> </g> <g> <path class="st12" d="M464.2,213.8c-0.1,0.2-0.1,0.3-0.2,0.4c0,0-0.1,0.2-0.2,0.3c0,0.1,0.1,0.5,0,0.5c-0.1,0-0.3-0.2-0.3-0.3 c0.1-0.1,0.1-0.1,0.1,0c-0.1,0.1-0.2-0.1-0.2-0.3c0-0.1,0.1-0.6,0.1-0.8c0-0.1,0.1-0.5,0-0.6c0,0-0.1-0.2-0.2-0.3 c-0.1-0.1-0.5-0.4-0.4-0.5c0,0,0.3,0,0.5,0.2C463.7,212.5,464.3,213.6,464.2,213.8z"></path> </g> <g> <path class="st12" d="M461.4,211.1c0.3,0.1,0.5,0.2,0.8,0.3C462,211.5,461.7,211.3,461.4,211.1z"></path> </g> <g> <path class="st12" d="M464.8,222.2c-0.3,0-0.5,0.1-0.4,0c0.1,0,0-0.2,0.1-0.2c0.1,0,0.4-0.1,0.6,0c0,0,0,0,0.2,0.1 c0.2,0,0.2,0,0.2,0c0.3,0,0.7,0,0.9,0.1c0.2,0.1,0.3,0.5,0.2,0.5C466.4,222.8,465.1,222.2,464.8,222.2z"></path> </g> <g> <path class="st12" d="M462,223.5c-0.1-0.2,0-0.3,0.1-0.3c0.1,0,0.4,0.2,0.5,0.3C462.6,223.6,462.1,223.7,462,223.5z"></path> </g> <g> <path class="st12" d="M462.7,230.8c0.1,0.2,0.2,0.3,0.2,0.3c0,0,0.1,0.2,0.1,0.2c0.1,0.1,0.2,0.3,0.3,0.4 c0.1,0.1,0.2,0.6,0.2,0.7c0,0.1-0.3,0.2-0.5,0.1c-0.1-0.1-0.6-0.4-0.6-0.5c0-0.1-0.2-0.3-0.3-0.4c-0.1,0-0.3-0.4-0.3-0.6 c0-0.1,0-0.6,0-0.8c-0.1-0.1-0.1-0.4,0-0.3C461.9,230.2,462.6,230.7,462.7,230.8z"></path> </g> <g> <path class="st12" d="M457.4,246.6c-0.2-0.2,0-0.4,0.2-0.2C457.5,246.5,457.4,246.5,457.4,246.6z"></path> </g> <g> <path class="st12" d="M441.2,226.7c0.1,0.2,0.1,0.4,0.1,0.5c0,0.1,0,0.3-0.1,0.3c-0.1,0-0.3,0.1-0.4,0.2 c-0.1,0.1-0.4,0-0.7-0.3c-0.3-0.3-1.1-0.5-1.1-0.6c0-0.1-0.2-0.2-0.2-0.4c0-0.1-0.1-0.3-0.2-0.3c-0.1,0.1-0.5-0.1-0.4-0.2 c0.1-0.1,0-0.2,0-0.2c0,0.1-0.3,0.2-0.4,0.1c-0.1-0.1-0.3-0.3-0.4-0.3c-0.1,0-0.5-0.3-0.6-0.2c-0.1,0.1-0.5,0.3-0.5,0.3 c0,0.1-0.3,0.3-0.4,0.3c-0.1,0.1-0.4-0.2-0.3-0.3c0.1-0.1,0.3-0.4,0.2-0.4c-0.1,0-0.3,0.2-0.4,0.3c-0.1,0-0.1,0.2-0.2,0.2 c-0.1,0-0.2,0.1-0.2-0.1c0-0.1,0.2-0.4,0.3-0.5c0.1-0.1,0.1-0.5,0-0.4c-0.1,0.1-0.2-0.4-0.1-0.7c0.1-0.3,0.6-1.2,0.8-1.4 c0.1-0.1,0.6-0.6,0.5-0.6c-0.1-0.1-0.2-0.3-0.2-0.5c0.1-0.1,0.5-0.6,0.7-0.8c0.2-0.2,0.4-0.7,0.5-0.7c0.1,0,0.3-0.1,0.3-0.2 c0.1-0.1,0.4-0.4,0.6-0.5c0.1-0.1,0.4,0,0.3,0.1c-0.1,0.1,0.1,0.5,0.2,0.4c0-0.1,0.4-0.4,0.5-0.4c0.1,0,0.3-0.1,0.4-0.2 c0.1-0.1,0.2,0.2,0.2,0.2c-0.1,0.1-0.1,0.4-0.1,0.5c0,0.1-0.1,0.3,0,0.3c0.1,0,0.3,0.3,0.3,0.4c0,0.1-0.1,0.2,0.1,0.1 c0.1-0.1,0.4,0.2,0.3,0.2c-0.1,0.1,0,0.5,0.3,0.6c0.3,0.2,0.2,0.7,0.3,0.7c0.1,0,0.2,0.2,0.2,0.2c-0.1,0-0.1,0,0,0 c0.1,0,0.1,0.3,0,0.4c-0.1,0.1-0.5,0.2-0.5,0.3c0,0.1,0,0.2,0.2,0.1c0.2,0,0.2-0.2,0.2,0c0,0.1,0.2,0.6,0.1,0.8 c0,0.2-0.2,0.7-0.2,0.7c0,0.1,0,0.4,0,0.5c0,0.1-0.3,0.3-0.3,0.4C440.8,225.9,441.2,226.5,441.2,226.7z"></path> </g> <g> <path class="st12" d="M442.2,217.8c0.1,0,0.2-0.1,0.3-0.1c0.1,0,0.2-0.2,0.4-0.2c0.2,0,0.6,0.4,0.4,0.5 c-0.1,0.1-0.5,0.2-0.4,0.4c0.1,0.1,0.3,0.5,0.2,0.6c-0.1,0.1-0.3,0-0.4,0c-0.1,0.1-0.3,0-0.3-0.1c0-0.1-0.2-0.4-0.3-0.3 c0,0.1-0.2,0.4-0.3,0.4c0,0-0.3-0.2-0.4-0.2c-0.1,0-0.3-0.2-0.2-0.4c0.1-0.2,0.4-0.2,0.3-0.3c-0.1,0,0-0.3,0.1-0.4 C441.8,217.6,442.1,217.8,442.2,217.8z"></path> </g> <g> <path class="st12" d="M441.8,217.3c0,0,0.1-0.3,0.3-0.5c0.2-0.2,0.9-0.7,0.9-0.6c0,0.1,0,0.5-0.3,0.6 C442.6,217.1,441.9,217.4,441.8,217.3z"></path> </g> <g> <path class="st12" d="M445.4,225.8c0.1,0.1,0.1,0.2,0,0.3c-0.1,0.1-0.2,0.3-0.3,0.2c-0.1-0.1-0.3-0.3-0.2-0.3 c0.1,0-0.1-0.3,0-0.4C444.9,225.5,445.4,225.7,445.4,225.8z"></path> </g> <g> <path class="st12" d="M443.3,224c-0.1,0.1-0.2,0.1-0.3,0.1c-0.1-0.1-0.4,0.1-0.4,0.1c0-0.1-0.1-0.3-0.1-0.2 c0,0.1-0.1,0.1-0.1,0c0-0.1-0.2-0.4-0.1-0.4c0.1,0,0.4-0.1,0.5-0.2c0.1-0.1,0.4-0.4,0.5-0.3c0.1,0,0.4,0.4,0.3,0.5 C443.4,223.6,443.3,223.9,443.3,224z"></path> </g> <g> <path class="st12" d="M446.8,215.6c0-0.1,0-0.4,0.1-0.6c0.1-0.2,0.4-0.8,0.4-0.9c0,0,0-0.1,0-0.2c0,0,0.2,0,0.3,0.1 c0.1,0.2-0.2,0.7-0.2,0.9c0,0.2-0.1,0.8,0,0.9c0.2,0.1,0.6,0.4,0.6,0.4c0,0-0.1,0.2-0.3,0.2c-0.1,0-0.6,0-0.6-0.1 C447.3,216.3,446.9,215.7,446.8,215.6z"></path> </g> <g> <path class="st12" d="M445.6,214.1c-0.3-0.3,0-0.8,0.4-0.5C445.8,213.8,446,214.1,445.6,214.1z"></path> </g> <g> <path class="st12" d="M448.8,211.1c-0.1-0.1,0-0.3,0.2-0.5s0.6-0.1,0.4,0C449.3,210.8,448.8,211.2,448.8,211.1z"></path> </g> <g> <path class="st12" d="M437,230.2c0.1,0,0,0.1-0.2,0.1c-0.2,0,0,0.5-0.1,0.6c-0.1,0.1-0.4-0.1-0.4-0.2c0-0.1,0-0.3,0.1-0.4 C436.5,230.3,436.9,230.1,437,230.2z"></path> </g> <g> <path class="st12" d="M445.5,237.2c0.1-0.1,0.1,0,0.2,0.1c0,0.1-0.2,0.3-0.2,0.3C445.4,237.5,445.4,237.2,445.5,237.2z"></path> </g> <g> <path class="st12" d="M444.3,238c-0.1,0.1-0.2,0.2-0.4,0.2c-0.1,0-0.5,0.2-0.5,0.3c0,0.1-0.3,0.3-0.3,0.2c0-0.1,0-0.4,0.1-0.5 c0.1-0.1,0.5-0.5,0.6-0.5c0.1,0,0.4-0.1,0.4-0.1c0.1,0,0.3,0,0.5-0.1c0.1-0.2,0.6,0.1,0.5,0.1c-0.1,0.1-0.1,0.3-0.2,0.3 c-0.1,0-0.4,0.2-0.4,0.1C444.4,238.1,444.3,237.9,444.3,238z"></path> </g> <g> <path class="st12" d="M444.4,238.5C444.5,238.5,444.5,238.5,444.4,238.5c0,0.1-0.1,0.3-0.2,0.3 C444.2,238.7,444.3,238.5,444.4,238.5z"></path> </g> <g> <path class="st12" d="M443.4,237.8c0,0-0.1,0-0.1,0c0,0-0.1-0.2,0-0.2C443.3,237.5,443.4,237.7,443.4,237.8z"></path> </g> <g> <path class="st12" d="M443.6,237.4c-0.1-0.1-0.1-0.2-0.1-0.2c0,0,0.1-0.1,0.2-0.1C443.7,237.2,443.7,237.5,443.6,237.4z"></path> </g> <g> <path class="st12" d="M444.2,237.5c0,0-0.1,0-0.1,0c0,0-0.1-0.2,0-0.2c0.1,0,0.3,0,0.4,0c0-0.1,0.1,0.1,0.1,0.2 C444.4,237.5,444.2,237.4,444.2,237.5z"></path> </g> <g> <path class="st12" d="M470.7,219.2c0.1,0.2,0.2,0.4,0.1,0.3c-0.1-0.1-0.4-0.2-0.6-0.2c-0.2,0-0.8,0.1-0.9,0.2 c0,0.1-0.2,0-0.1-0.1c0-0.1-0.1-0.2,0-0.2c0.1,0,0.2-0.2,0.3-0.3c0-0.1,0-0.3,0.1-0.3c0.1-0.1,0.3-0.2,0.3-0.3 C470,218.4,470.6,218.9,470.7,219.2z"></path> </g> </g> <path class="st10" d="M434.7,227.3C434.7,227.3,434.7,227.4,434.7,227.3C434.7,227.4,434.8,227.3,434.7,227.3z"></path> <path class="st10" d="M440.9,230.3c0,0,0,0.1,0,0.1C440.9,230.4,440.9,230.3,440.9,230.3z"></path> </g> </g> <circle class="st13" cx="107.1" cy="394.5" r="40.6"></circle> <path class="st14" d="M90.1,411.8l22.9,22.9c17.9-2.6,32-17,34.3-35l-22.6-22.6L90.1,411.8z"></path> <g id="magnifying_1_"> <circle class="st1" cx="47.5" cy="252.7" r="47.5"></circle> <path class="st2" d="M94.8,255.4l-34.3-34.3l0,0c0,0-0.1-0.1-0.1-0.1l-5.6-2.6c-0.2-0.1-0.5,0-0.6,0.2l-2.6,5.5l-0.2-0.1 c-0.3-0.1-0.6,0-0.7,0.3l-0.3,0.5c-0.1,0.3,0,0.6,0.2,0.7l0.2,0.1l-0.8,1.6c-0.1,0.2-0.1,0.4,0.1,0.5c0,0.1-0.1,0.1-0.1,0.2 l-1,2.1l-0.9-0.4c-0.3-0.1-0.6,0-0.8,0.3L40.9,244c-0.1,0.3,0,0.6,0.3,0.8l0.9,0.4l-0.7,1.5c-0.2,0.4-0.2,0.8,0,0.8l0.5,0.2 l-2.2,4.6c-0.1,0.3-0.1,0.5,0,0.6l0.1,0L53,266.1c-0.4,0.4-0.8,0.8-1.3,1.1l-4.3-4.3c0-0.1-0.1-0.1-0.2-0.2l-17.8-8.3 c-0.3-0.1-0.7,0.1-0.8,0.5l-0.2,0.5c-0.1,0.3-0.1,0.6,0,0.8l0,0l6,6l-2.6-1.2c-0.3-0.1-0.7,0.2-1,0.8l-0.3,0.7 c-0.3,0.6-0.3,1.2,0,1.3l0,0l12.9,12.9H27.1c-0.7,0-1.3,0.4-1.3,0.9v2.5h-0.6v1.8h0L43.4,300c1.3,0.1,2.7,0.2,4,0.2 C72.8,300.2,93.5,280.4,94.8,255.4z"></path> <g> <g> <path class="st10" d="M57.2,280.9v-3.3c0-0.5-0.6-0.9-1.3-0.9H27.1c-0.7,0-1.3,0.4-1.3,0.9v3.3H57.2z"></path> <rect x="25.3" y="280.1" class="st7" width="32.5" height="1.8"></rect> <g> <path class="st6" d="M56.5,240.5c-1-0.5-2-0.8-3.1-1l-4,8.6c2.4-2.1,4.9-3,6.9-2.1c3.4,1.6,3.8,8,0.8,14.3 c-2.9,6.3-8.1,10.1-11.5,8.5c-2-0.9-2.9-3.4-2.8-6.6l-4,8.6c0.8,0.7,1.8,1.2,2.8,1.7c7.9,3.7,17.6-0.5,21.7-9.3 C67.4,254.3,64.4,244.2,56.5,240.5z"></path> <path class="st6" d="M47.3,249.4c-0.2,0.4-0.5,0.6-0.7,0.5l-5.2-2.4c-0.2-0.1-0.2-0.5,0-0.8l8.7-18.6c0.2-0.4,0.5-0.6,0.7-0.5 l5.2,2.4c0.2,0.1,0.2,0.5,0,0.8L47.3,249.4z"></path> <path class="st6" d="M43.9,254.3c-0.1,0.3-0.3,0.4-0.5,0.4l-3.6-1.7c-0.1-0.1-0.1-0.3,0-0.6l6.1-13.1c0.1-0.3,0.3-0.4,0.5-0.4 l3.6,1.7c0.1,0.1,0.1,0.3,0,0.6L43.9,254.3z"></path> <path class="st0" d="M49.6,248c-0.1,0.3-0.5,0.4-0.8,0.3l-7.6-3.6c-0.3-0.1-0.4-0.5-0.3-0.8l6.6-14.1c0.1-0.3,0.5-0.4,0.8-0.3 l7.6,3.6c0.3,0.1,0.4,0.5,0.3,0.8L49.6,248z"></path> <path class="st0" d="M56.5,230.2c-0.1,0.2-0.4,0.3-0.6,0.2l-5.6-2.6c-0.2-0.1-0.3-0.4-0.2-0.6l4.1-8.7c0.1-0.2,0.4-0.3,0.6-0.2 l5.6,2.6c0.2,0.1,0.3,0.4,0.2,0.6L56.5,230.2z"></path> <path class="st6" d="M58.2,228.4c-0.1,0.3-0.4,0.4-0.7,0.3l-6.8-3.2c-0.3-0.1-0.4-0.4-0.2-0.7l0.3-0.5c0.1-0.3,0.4-0.4,0.7-0.3 l6.8,3.2c0.3,0.1,0.4,0.4,0.2,0.7L58.2,228.4z"></path> <path class="st6" d="M43.9,268.5c-0.1,0.3-0.5,0.4-0.8,0.3l-6.9-3.2c-0.3-0.1-0.4-0.5-0.3-0.8l0.2-0.3c0.1-0.3,0.5-0.4,0.8-0.3 l6.9,3.2c0.3,0.1,0.4,0.5,0.3,0.8L43.9,268.5z"></path> <path class="st10" d="M38.5,266.2c-0.3,0.6-0.7,0.9-1,0.8l-6.9-3.2c-0.3-0.1-0.3-0.7,0-1.3l0.3-0.7c0.3-0.6,0.7-0.9,1-0.8 l6.9,3.2c0.3,0.1,0.3,0.7,0,1.3L38.5,266.2z"></path> <path class="st6" d="M45.9,265c-0.3,0.6-0.7,0.9-1,0.8l-6.9-3.2c-0.3-0.1-0.3-0.7,0-1.3l0.3-0.7c0.3-0.6,0.7-0.9,1-0.8l6.9,3.2 c0.3,0.1,0.3,0.7,0,1.3L45.9,265z"></path> <ellipse transform="matrix(0.4234 -0.906 0.906 0.4234 -187.1794 187.4583)" class="st7" cx="53.7" cy="240.8" rx="4" ry="4"></ellipse> <ellipse transform="matrix(0.4235 -0.9059 0.9059 0.4235 -187.1726 187.4265)" class="st10" cx="53.7" cy="240.8" rx="3.2" ry="3.2"></ellipse> <path class="st10" d="M47.2,264.2c-0.2,0.4-0.6,0.6-0.8,0.5l-17.8-8.3c-0.3-0.1-0.4-0.6-0.2-0.9l0.2-0.5 c0.2-0.4,0.6-0.6,0.8-0.5l17.8,8.3c0.3,0.1,0.4,0.6,0.2,0.9L47.2,264.2z"></path> </g> <path class="st10" d="M55.4,278.6l-2.5-6.3c-0.7-1.7-1.7-3-3.5-3c-1.3,0-2.4,1.4-2.5,3l-0.5,6.3H55.4z"></path> <circle class="st6" cx="49.7" cy="271.9" r="1.9"></circle> </g> </g> </g> <g id="computer_1_"> <circle class="st15" cx="250.1" cy="47.5" r="47.5"></circle> <path class="st7" d="M297.6,47.5c0-3.3-0.3-6.4-1-9.5l-15.9-15.9L263,40l-8.6-8.6l-34.9,34.9L248.1,95c0.7,0,1.3,0.1,2,0.1 C276.4,95.1,297.6,73.8,297.6,47.5z"></path> <g> <g> <g> <path class="st16" d="M242.9,64c-0.7,2.7-1.3,5.4-2,8.1c6.1,0,12.3,0,18.4,0c-0.7-2.7-1.3-5.4-2-8.1 C252.5,64,247.7,64,242.9,64z"></path> <path class="st17" d="M250,72c3.1,0,6.2,0,9.3,0c-0.7-2.7-1.3-5.4-2-8.1c-2.4,0-4.9,0-7.3,0V72z"></path> <path class="st0" d="M260.5,71.9h-20.7c-0.5,0-1,0.5-1,1.1v0.4h22.6V73C261.4,72.4,261,71.9,260.5,71.9z"></path> <path class="st0" d="M219,60.8v4.4c0,0.9,0.7,1.5,1.5,1.5h59.1c0.9,0,1.5-0.7,1.5-1.5v-4.4H219z"></path> <path class="st2" d="M281.2,60.8V23.2c0-0.9-0.7-1.5-1.5-1.5h-59.1c-0.9,0-1.5,0.7-1.5,1.5v37.6H281.2z"></path> <rect x="221.6" y="24.1" class="st0" width="57.1" height="34.2"></rect> </g> </g> <g> <g> <rect x="227.3" y="30.1" class="st15" width="11.1" height="0.9"></rect> <rect x="264.8" y="30.1" class="st15" width="7.1" height="0.9"></rect> <rect x="255.9" y="30.1" class="st15" width="7.1" height="0.9"></rect> <rect x="247" y="30.1" class="st15" width="7.1" height="0.9"></rect> <g> <g> <rect x="227.3" y="34.4" class="st15" width="20.1" height="19.9"></rect> <path class="st15" d="M247.7,54.6h-20.6V34.2h20.6V54.6L247.7,54.6z M227.6,54.1h19.5V34.7h-19.5V54.1L227.6,54.1z"></path> </g> <g> <path class="st15" d="M247.4,54.6h-20.1c-0.1,0-0.2-0.1-0.2-0.1c0-0.1,0-0.2,0-0.3l20.1-19.9c0.1-0.1,0.2-0.1,0.3-0.1 c0.1,0,0.2,0.1,0.2,0.2v19.9C247.7,54.4,247.5,54.6,247.4,54.6L247.4,54.6z M227.9,54.1h19.2v-19L227.9,54.1L227.9,54.1z"></path> </g> <g> <path class="st15" d="M247.4,54.6h-20.1c-0.1,0-0.3-0.1-0.3-0.2V34.4c0-0.1,0.1-0.2,0.2-0.2c0.1,0,0.2,0,0.3,0.1l20.1,19.9 c0.1,0.1,0.1,0.2,0,0.3C247.6,54.5,247.5,54.6,247.4,54.6L247.4,54.6z M227.6,54.1h19.2l-19.2-19V54.1L227.6,54.1z"></path> </g> </g> <rect x="250.3" y="34.8" class="st3" width="11.9" height="1.5"></rect> <rect x="250.3" y="38.5" class="st15" width="21.5" height="0.9"></rect> <rect x="250.3" y="41.3" class="st15" width="18.3" height="0.9"></rect> <rect x="250.3" y="44.1" class="st15" width="20.3" height="0.9"></rect> <rect x="250.3" y="46.8" class="st15" width="15.8" height="0.9"></rect> <g> <rect x="250.3" y="50.3" class="st3" width="7" height="2.6"></rect> <rect x="251.5" y="51.2" class="st0" width="4.6" height="0.9"></rect> </g> </g> <g> <path class="st15" d="M274.2,24.4H226c-0.8,0-1.5,0.6-1.5,1.3v2.5h51.1v-2.5C275.6,25,275,24.4,274.2,24.4z"></path> <g> <ellipse class="st0" cx="226.7" cy="26.3" rx="0.8" ry="0.7"></ellipse> <ellipse class="st0" cx="229" cy="26.3" rx="0.8" ry="0.7"></ellipse> <ellipse class="st0" cx="231.3" cy="26.3" rx="0.8" ry="0.7"></ellipse> </g> <rect x="234.4" y="25.7" class="st0" width="39.2" height="1.3"></rect> </g> </g> </g> </g> <g id="icon_1_"> <g> <path class="st0" d="M506.1,173.7c0.5-0.4,0.9-0.9,1.3-1.3c0.3,0.1,0.5,0.2,0.8,0.2c1.3,0,2.3-1,2.3-2.3c0-0.6-0.2-1.1-0.5-1.5 c0.9-1.8,1.1-3.3,0.4-4.5c-0.7-1.3-2.3-1.9-4.6-1.9c-1.6,0-3.6,0.3-5.7,0.9c-1.3-5.1-3.5-8.5-6-8.5c-2.5,0-4.7,3.3-6,8.5 c-0.9-0.3-1.8-0.5-2.7-0.6c0-1.3-1-2.3-2.3-2.3c-1.2,0-2.2,0.9-2.3,2.1c-1.5,0.2-2.5,0.9-3,1.8c-1.3,2.2,0.5,5.8,4.3,9.4 c-3.8,3.7-5.6,7.2-4.3,9.4c0.7,1.3,2.3,1.9,4.6,1.9h0c1.6,0,3.6-0.3,5.7-0.9c0.2,0.8,0.4,1.6,0.7,2.3c-0.4,0.4-0.6,0.9-0.6,1.5 c0,1.3,1,2.3,2.3,2.3c0,0,0.1,0,0.1,0c1,1.5,2.2,2.4,3.5,2.4c2.5,0,4.7-3.3,6-8.5c2.1,0.6,4.1,0.9,5.7,0.9c2.3,0,3.9-0.7,4.6-1.9 C511.7,181,509.9,177.4,506.1,173.7z M505.8,163.5c1.3,0,3,0.2,3.6,1.3c0.4,0.8,0.3,1.9-0.3,3.2c-0.3-0.1-0.5-0.2-0.8-0.2 c-1.3,0-2.3,1-2.3,2.3c0,0.6,0.2,1.1,0.5,1.5c-0.4,0.4-0.8,0.8-1.2,1.2c-1.2-1.1-2.6-2.2-4.2-3.3c-0.1-1.9-0.4-3.6-0.7-5.2 C502.4,163.9,504.2,163.5,505.8,163.5z M497.1,178.9c-1,0.6-2,1.1-3,1.6c-1-0.5-2-1-3-1.6c-1-0.6-2-1.2-2.9-1.8 c-0.1-1.1-0.1-2.2-0.1-3.4c0-1.2,0-2.3,0.1-3.4c0.9-0.6,1.9-1.2,2.9-1.8c1-0.6,2-1.1,3-1.6c1,0.5,2,1,3,1.6c1,0.6,2,1.2,2.9,1.8 c0.1,1.1,0.1,2.2,0.1,3.4c0,1.2,0,2.3-0.1,3.4C499.1,177.7,498.1,178.3,497.1,178.9z M499.8,178.6c-0.1,1.4-0.3,2.8-0.6,4 c-1.2-0.4-2.5-0.9-3.8-1.5c0.7-0.4,1.5-0.8,2.2-1.2C498.4,179.5,499.1,179.1,499.8,178.6z M492.7,181.1c-1.3,0.6-2.6,1.1-3.8,1.5 c-0.3-1.2-0.5-2.6-0.6-4c0.7,0.5,1.4,0.9,2.2,1.3C491.2,180.4,492,180.8,492.7,181.1z M487,176.3c-1.2-0.8-2.3-1.7-3.2-2.5 c0.9-0.8,2-1.7,3.2-2.5c0,0.8-0.1,1.7-0.1,2.5C486.9,174.6,486.9,175.4,487,176.3z M488.3,168.8c0.1-1.4,0.3-2.8,0.6-4 c1.2,0.4,2.5,0.9,3.8,1.5c-0.7,0.4-1.5,0.8-2.2,1.2C489.8,167.9,489,168.4,488.3,168.8z M495.5,166.3c1.3-0.6,2.6-1.1,3.8-1.5 c0.3,1.2,0.5,2.6,0.6,4c-0.7-0.5-1.4-0.9-2.2-1.3C496.9,167.1,496.2,166.7,495.5,166.3z M501.2,171.2c1.2,0.8,2.3,1.7,3.2,2.5 c-0.9,0.8-2,1.7-3.2,2.5c0-0.8,0.1-1.7,0.1-2.5S501.2,172,501.2,171.2z M494.1,156c1.8,0,3.7,2.9,4.9,7.6c-1.6,0.5-3.2,1.2-4.9,2 c-1.7-0.8-3.3-1.5-4.9-2C490.3,158.9,492.3,156,494.1,156z M478.8,164.9c0.4-0.7,1.3-1.1,2.2-1.2c0.4,0.8,1.2,1.3,2.1,1.3 c0.9,0,1.6-0.5,2-1.2c0.9,0.2,1.8,0.4,2.7,0.7c-0.3,1.6-0.6,3.4-0.7,5.2c-1.5,1.1-2.9,2.2-4.2,3.3 C479.4,169.5,477.8,166.4,478.8,164.9z M482.4,183.9c-1.3,0-3-0.2-3.6-1.3c-0.9-1.6,0.6-4.7,4.2-8.1c1.2,1.1,2.6,2.2,4.2,3.3 c0.1,1.9,0.4,3.6,0.7,5.2C485.8,183.6,483.9,183.9,482.4,183.9z M494.1,191.4c-0.8,0-1.6-0.5-2.4-1.6c0.6-0.4,1.1-1.1,1.1-1.9 c0-1.3-1-2.3-2.3-2.3c-0.3,0-0.5,0-0.7,0.1c-0.2-0.6-0.4-1.3-0.5-2c1.6-0.5,3.2-1.2,4.9-2c1.7,0.8,3.3,1.5,4.9,2 C497.8,188.6,495.9,191.4,494.1,191.4z M509.4,182.6c-0.6,1.1-2.3,1.3-3.6,1.3c-1.6,0-3.4-0.3-5.4-0.9c0.3-1.6,0.6-3.4,0.7-5.2 c1.5-1.1,2.9-2.2,4.2-3.3C508.8,177.9,510.3,181,509.4,182.6z"></path> <circle class="st0" cx="494.1" cy="173.7" r="3.6"></circle> </g> <path class="st0" d="M137,44.3c0-4.4-5.1-8-11.3-8c0,0-0.1,0-0.1,0c0,0-0.1,0-0.1,0c-6.3,0-11.5,3.7-11.5,8.3 c0,3.3,2.7,6.2,6.6,7.6l0.1,5.6l3.5-4.9c0.4,0,0.8,0,1.2,0c6.3,0,11.5-3.7,11.5-8.3c0-0.1,0-0.1,0-0.2C137,44.4,137,44.4,137,44.3 z M133,41.5h-15v-1.4h15V41.5z M133,44.1h-15v-1.4h15V44.1z M133,46.7h-15v-1.4h15V46.7z M133,49.3h-15V48h15V49.3z"></path> <path class="st0" d="M313.5,16c0.5-1,0.8-2,0.9-3l2,0.3c0.2-1.3,0.1-2.5-0.1-3.8l-2,0.4c-0.2-1-0.6-2-1.1-2.9l1.7-1 c-0.7-1.1-1.5-2.1-2.5-2.9l-1.3,1.6c-0.1-0.1-0.3-0.2-0.4-0.3c-0.7-0.5-1.5-0.9-2.3-1.2l0.7-1.9c-1.2-0.4-2.5-0.6-3.7-0.6l0,2 c-1,0-2.1,0.2-3.1,0.5l-0.7-1.9c-1.2,0.4-2.3,1-3.3,1.9l1.3,1.6c-0.6,0.5-1.2,1.1-1.7,1.8c-0.1,0.2-0.2,0.4-0.4,0.6l-1.7-1.1 c-0.7,1.1-1.1,2.3-1.4,3.5l2,0.4c-0.2,1-0.3,2.1-0.1,3.1l-2,0.3c0.2,1.3,0.5,2.5,1.1,3.6l1.8-0.9c0.5,0.9,1.1,1.8,1.9,2.5 l-1.4,1.5c0.4,0.3,0.7,0.7,1.2,0.9c0.6,0.5,1.3,0.8,2,1.2l0.8-1.8c1,0.4,2,0.7,3,0.7l-0.2,2c1.3,0.1,2.5,0,3.8-0.4l-0.5-1.9 c1-0.3,2-0.7,2.8-1.3l1.2,1.7c1-0.7,2-1.6,2.7-2.7c0.3-0.5,0.6-0.9,0.9-1.4L313.5,16z M306.5,15.8l0-0.1c-0.4,0.1-0.9,0.2-1.4,0.1 l0,0.1c-0.5,0-0.9-0.1-1.4-0.3l0.1-0.1c-0.4-0.2-0.8-0.5-1.2-0.8l-0.1,0.1c-0.3-0.3-0.6-0.7-0.8-1.1l0.1-0.1 c-0.2-0.4-0.3-0.9-0.4-1.3l-0.1,0c-0.1-0.5-0.1-1,0-1.4l0.1,0c0.1-0.5,0.3-0.9,0.5-1.3l-0.1-0.1c0.1-0.1,0.1-0.2,0.2-0.3 c0.2-0.3,0.5-0.6,0.8-0.8l0.1,0.1c0.4-0.3,0.8-0.5,1.2-0.7l0-0.1c0.5-0.2,0.9-0.2,1.4-0.2v0.1c0.5,0,0.9,0.1,1.4,0.2l0-0.1 c0.4,0.1,0.7,0.3,1.1,0.5c0.1,0,0.1,0.1,0.2,0.2l-0.1,0.1c0.4,0.3,0.7,0.6,0.9,1l0.1-0.1c0.2,0.4,0.4,0.9,0.5,1.3l-0.1,0 c0.1,0.5,0.1,0.9,0.1,1.4l0.1,0c-0.1,0.5-0.2,0.9-0.4,1.3l-0.1-0.1c-0.1,0.2-0.2,0.4-0.3,0.5c-0.3,0.4-0.6,0.7-1,1l0.1,0.1 C307.3,15.5,306.9,15.7,306.5,15.8z"></path> <path class="st0" d="M12.4,299.4h-1.2H4.6v6.6v1.2v8.1v18.5h25.2v-18.5v-9.1v-6.9H12.4z M17,319.7h6.8v1H17V319.7z M13.6,313.9 l-1.3-1.9c0.2-0.2,0.3-0.4,0.4-0.7l2.3,0.3C14.8,312.6,14.3,313.3,13.6,313.9z M14.9,323h-3.1v-3.1 C13.5,319.9,14.9,321.3,14.9,323z M13,314.4c-0.6,0.4-1.3,0.6-2.1,0.6c-2.3,0-4.1-1.8-4.1-4.1c0-0.6,0.1-1.2,0.4-1.7l2,1.2 c-0.1,0.2-0.1,0.4-0.1,0.6c0,1,0.8,1.8,1.8,1.8c0.3,0,0.5-0.1,0.7-0.2L13,314.4z M7.7,308.5c0.7-0.9,1.7-1.6,2.9-1.7v2.3 c-0.4,0.1-0.7,0.3-1,0.6L7.7,308.5z M11,327.8c-2.3,0-4.1-1.8-4.1-4.1c0-2.2,1.7-3.9,3.8-4.1v4.3h4.3 C14.9,326.1,13.2,327.8,11,327.8z M15.1,310.9l-2.3-0.3c-0.1-0.8-0.7-1.4-1.4-1.6v-2.3C13.4,307,15.1,308.7,15.1,310.9 C15.1,310.9,15.1,310.9,15.1,310.9z M26.8,327H17v-1h9.8V327z M26.8,323.8H17v-1h9.8V323.8z M26.8,314.1H17v-1h9.8V314.1z M26.8,311H17v-1h9.8V311z M26.8,307.8H17v-1h9.8V307.8z"></path> <path class="st0" d="M117.1,444.6h-16.6c-1.2,0-2.2,1-2.2,2.2v10.9c0,1.2,1,2.2,2.2,2.2h16.6c1.2,0,2.2-1,2.2-2.2v-10.9 C119.2,445.6,118.3,444.6,117.1,444.6z M117.1,458h-16.6c-0.1,0-0.2,0-0.2-0.1l5.7-5.1l2.6,2.3c0.1,0.1,0.2,0.1,0.3,0.1 c0.1,0,0.2,0,0.3-0.1l2.6-2.3l5.7,5.1C117.3,457.9,117.2,458,117.1,458z M108.8,454.2l-8.5-7.6c0.1-0.1,0.1-0.1,0.2-0.1h16.6 c0.1,0,0.2,0,0.2,0.1L108.8,454.2z M100.1,447.7l5.1,4.5l-5.1,4.5V447.7z M112.3,452.2l5.1-4.5v9L112.3,452.2z"></path> </g> <g id="men_2_"> <g id="men_3_"> <circle class="st0" cx="106.8" cy="101.6" r="40.6"></circle> </g> <path class="st10" d="M147.4,101.8l-26.4-26.4l-11.4,11.4l-5.1-5.1L88.8,97.2l5.1,5.1l-0.4,0.4l10.4,10.4l-14.2,14.2l14.7,14.7 c0.7,0,1.5,0.1,2.2,0.1C129.1,142.2,147.3,124.1,147.4,101.8z"></path> <g> <g> <path class="st0" d="M125.6,121.6c0,7.8-5.3,8.1-11.9,8.1H99.9c-6.6,0-11.9-0.3-11.9-8.1l0,0c0-7.8,5.3-14.1,11.9-14.1h13.8 C120.2,107.5,125.6,113.8,125.6,121.6L125.6,121.6z"></path> <polygon class="st18" points="109.2,115.4 104.4,115.4 103.8,110.2 109.8,110.2 "></polygon> <polygon class="st18" points="104.4,116.1 109.2,116.1 109.8,129.8 103.8,129.8 "></polygon> <g> <g> <polygon class="st0" points="114.1,108.1 112.9,114.6 106.7,110.6 "></polygon> </g> <g> <polygon class="st0" points="99.4,108.1 100.6,114.6 106.7,110.6 "></polygon> </g> </g> <path class="st2" d="M98.7,107.6c-6,0.7-10.8,6.7-10.8,14c0,7.8,5.3,8.1,11.9,8.1h6.9C102.5,118.7,100,111.3,98.7,107.6z"></path> <path class="st2" d="M114.8,107.6c6,0.7,10.8,6.7,10.8,14c0,7.8-5.3,8.1-11.9,8.1h-6.9C109.5,122.4,113.2,112.8,114.8,107.6z"></path> <g> <path class="st19" d="M94.3,94.6c0,1.9-1.4,3.5-3.1,3.5c-1.7,0-3.1-1.6-3.1-3.5c0-1.9,1.4-3.5,3.1-3.5 C92.9,91.1,94.3,92.7,94.3,94.6z"></path> <path class="st19" d="M125.3,94.6c0,1.9-1.4,3.5-3.1,3.5c-1.7,0-3.1-1.6-3.1-3.5c0-1.9,1.4-3.5,3.1-3.5 C124,91.1,125.3,92.7,125.3,94.6z"></path> <path class="st19" d="M122.3,94.8c0,8.8-7.1,15.9-15.9,15.9l0,0c-8.8,0-15.9-7.1-15.9-15.9v-2c0-8.8,7.1-15.9,15.9-15.9l0,0 c8.8,0,15.9,7.1,15.9,15.9V94.8z"></path> </g> </g> <path class="st2" d="M120.4,93.8c0,2.2,0.6,3.2,1.4,2.2c0.8-0.9,1.4-3.5,1.4-5.6v-7.7c0-4.5-1.1-6.5-2.5-7.6 c-2.1-1.7-5-1.7-7.2-1.7h-10.3c-1.3,0-6.2-0.1-9,2.3c-2.9,2.4-3.7,5.7-3.7,8.5v7.3c0,2.2,0.9,4.5,2.1,5.3 c1.1,0.8,2.1-0.4,2.1-2.5v-2.2c0-2.2,0.8-4.9,1.9-6.2c1-1.2,3.6-2.3,5.8-2.3h0.1c2.2,0,3.9,0.9,3.9,1.9c0,1.1,1.7,1.3,3.7,0.5 l3.8-1.4c2-0.8,4.3-0.8,5.2-0.1c0.8,0.7,1.5,3,1.5,5.2V93.8z"></path> </g> </g> <g> <defs> <circle id="SVGID_1_" cx="251.7" cy="250.9" r="168.1"></circle> </defs> <clipPath id="SVGID_2_"> <use xlink:href="#SVGID_1_" style="overflow:visible;"></use> </clipPath> <g class="st20"> <path class="st21" d="M259.5,188.7c-0.4,0-0.7,0-1.1-0.1c-1.2-0.1-1.7-1.2-0.9-1.9c0.8-0.7,0.5-1.3,0.3-1.9 c-0.5-1.5-0.3-2.2,1.1-3c1.6-0.8,3.1-2,5-2.3c0.4-0.1,0.8-0.3,1,0c1.2,1.3,2.7,0.8,4.1,0.7c1.8-0.2,2.9,0.8,3.9,2 c0.5,0.7,0.2,1.4-0.6,1.8c-1.6,0.8-3.3,1.5-4.9,2.4c-1.7,1-3.4,1.6-5.4,1.6C261.2,188,260.4,188.9,259.5,188.7z"></path> <path d="M258.4,190.8c-0.2,0-0.5-0.2-0.9-0.2c-0.7-0.1-1-0.6-0.9-1.2c0.1-0.6,0.5-0.9,1.2-1c1.8-0.3,3.7-0.4,5.4-1.1 c2.1-0.9,4.1-1.8,6-2.9c2-1.2,4.2-2.2,6.4-3c0.6-0.2,1.3-0.4,1.6,0.3c0.3,0.6-0.1,1.1-0.6,1.5c-1.1,0.8-2.4,1.2-3.5,1.9 c-2.4,1.6-5.1,2.7-7.6,4C263.4,190.1,261,190.5,258.4,190.8z"></path> <path class="st22" d="M260.7,203.3c-0.8-0.5-1.3-1.4-1.3-2.4c0.1-1.8-0.2-2.1-2-2c-0.6,0-1.1,0.1-1.6,0.2 c-1.3,0.2-8.6-1.6-6.3-1.5c2.6,0.1,5.2-0.3,7.6-1.4c1.1-0.5,1.5-1.6,0.8-2.7c-0.3-0.4-0.6-0.9-0.9-1.3c-0.9-0.9-0.9-1.5,0-2.4 c0.5-0.5,1-1,1.6-1.5c1.3-1.3,1.2-1.9,0.2-3.5c-0.7-1-1.7-1.4-2.6-1.9c-0.8-0.4-1.6-1-2-1.8c-1.1-2.6-2.4-5.2-4.1-7.4 c-0.8-1.1-1.6-2.3-2-3.7c-0.7-2.6-1.9-5-3.3-7.3c-1.8-2.8-3.1-6.2-6.9-7.1c-0.1,0-0.3-0.2-0.4-0.3c-1.1-1.1-2.5-1.4-3.9-1.4 c-3.2,0-6.3-0.7-9.5-0.1c-1.7,0.3-3.4,0.1-5.2,0.6c-1.2,0.4-2.4,0.9-3.6,1.2c-1.4,0.5-2.9,0.9-4.3,1.3c-2.2,0.7-4,2.2-5.9,3.5 c-1.3,0.9-2.6,1.8-3.2,3.2c-1,2-2.7,3.5-3.5,5.7c-0.8,2.2-1.8,4.3-2.2,6.7c-0.2,1.5,0,3.1-0.3,4.6c-0.1,0.7-0.4,1.3-0.4,2 c0.2,1.9,0.3,3.7,0.3,5.6c0,1.9,0.6,3.5,1.5,5.2c1,2,1.5,4.2,2.7,6.1c0.8,1.2,1.9,2.1,2.7,3.2c1.3,2,3,3.8,4.9,5.2 c1.6,1.3,2.6,2.9,3.3,4.7c0.8,2.1,1.6,4.3,2.4,6.4c0.8,2.1,1.3,4.3,1.3,6.5c0,2.3-0.2,4.5-0.1,6.8c0,1,0.1,2.2,1.3,2.2 c1.3,0,1.3-1.1,1.3-2.2c0-0.3-0.1-0.7,0.5-0.8c2.8-0.1,5.5-0.4,8.2,0.2c3.4,0.8,6.9,0.8,10.3,1.4c1.8,0.3,1.9,0.2,1.9,2.1 c0,0.7,0.5,1,1,1c0.5,0,1.2-0.2,1.2-0.9c-0.1-1.6,0-3.2,0.4-4.7c0.3-1.4,0.5-2.8,0.9-4.2c0.6-2.3,1.8-4.3,3-6.4 c1.6-2.8,3.9-4.7,6.9-5.8c1.8-0.7,3.6-1.2,5.2-2.2c1.1-0.7,2.3-1.3,3.4-1.9C262.2,208.9,263.9,205.3,260.7,203.3z"></path> <path class="st21" d="M254.8,180.4c-1.3-0.8-2.6-1.3-3.8-2.3c-1.2-1-2.6-2-4-2.7c-1.4-0.7-2.7-1.4-3.6-2.7 c-0.6-0.9-1.2-2-1.9-2.8c-2.8-3.2-4.3-7-5.4-11l0,0c1.1-0.8,1.1-1.4,0-2.2c-0.1,0-0.2,0-0.2,0c-0.3,0.2-0.7,0.5-1,0.7l0,0h0 c-0.6,0.5-1.2,1-1.8,1.6c-2,2.1-4,4.1-6.4,5.8c-2,1.5-3.2,3.7-4.5,5.8c-1.7,2.9-1.7,5.8-0.7,8.9c0.3,1.1,0.9,2.1,1.3,3.2 c0.8,2.4,2.4,4.3,4.6,5.7c1.6,1,3.3,1,5,1.2c3,0.3,6,0.6,8.9-0.4c2.3-0.7,4.4-1.6,6.4-3c1.5-1.1,3-2.2,5-2.3c1,0,1.7-0.5,2.4-1 C256.2,182.1,256.1,181.1,254.8,180.4z"></path> <path class="st2" d="M243.6,146.4c-0.6-0.7-1.7-0.6-2.1-1.4c-0.4,0-0.8,0-1.2,0c-0.8,0.5-2.4-1.5-3.2-1.2c-0.4,0-0.6-0.4-1-0.2 c0,0-0.3,0.3-0.3,0.3c-0.5,0-1,0.1-1.4,0.3c-1.5,0.7-2.3,2.8-3.9,3.4c-1.9,0.7-4,1.1-6.1,1.3c-2.5,0.3-4.8,1.3-7.2,2 c-1.7,0.5-3.4,0.8-5,1.7c-2.2,1.2-4.4,2.2-6.5,3.6c-1.8,1.2-3.6,2.4-5.2,3.8c-1.1,0.9-1.9,2.1-3,3c-1.9,1.6-3.2,3.7-4.6,5.6 c-1,1.4-1.3,3.1-1.5,4.7c-0.2,1.4-0.4,2.8-0.1,4.3c0.2,0.8,0.7,1.6,0.4,2.4c-0.3,0.7,0,1.3,0.4,1.9c0.3,0.6-0.1,1.3,0.2,2 c-0.1,0.5,0.3,0.9,0.3,1.4c0.2,0.5,0,1,0.2,1.5c0.8,2.1,1.8,4.2,2.9,6.1c0.6,1.1,1,2.3,1.4,3.4c0.7,1.8,1.9,3.4,2.6,5.3 c0.5,1.2,1,2.5,2.1,3.3c1.1,0.8,2,1.8,2.9,2.9c1.1,1.4,1.8,3.2,3.1,4.6c-0.1,0.4,0.3,0.5,0.5,0.8l0,0c0.6,1.8,1.7,3.2,3,4.5 c0.4,0.4,0.8,0.6,1.5,0.5c2.2-0.2,5.7-3.6,6.1-5.9c0.1-0.4,0.2-0.7,0.4-1.1c0.5-1.3,1.8-2.1,2.1-3.4c0.6-2.7,0.2-5.4-1-7.9 c-0.2-0.4-0.4-0.6-0.9-0.6c-3.3,0-6.2-2.4-7-5.7c-0.4-1.6,0.3-3.7,1.5-4.1c1.6-0.6,3.3-0.5,4.9,0.2c1.5,0.7,2.5,2.2,4.1,2.8 c1,0.4,2.1,0.4,3-0.2c0.7-0.5,1.2-1.3,1-2.2c-0.4-1.6-1-3.1-2.4-4.1c-0.4-0.3-0.9-0.6-0.9-1.1c0-1.8-1-3.4-1.4-5.1 c-0.5-2.3-1.5-4.5-1.1-7c0.3-0.4,0.1-0.9,0.2-1.3l0,0c0-0.5,0.2-1,0.4-1.5c0.4-1,1.2-1.7,1.9-2.5c2-2.2,4-4.6,6.7-6.1 c0.6-0.3,1.3-0.5,1.8-0.9c1.6-1.5,3.5-2.6,5.3-3.9c0.4-0.3,0.7-0.5,0.4-1c-0.2-0.3,0.1-0.3,0.2-0.4c1.2-1.3,2.9-1.6,4.6-2 c0.5-0.1,0.8-0.2,0.8,0.5c0,0.6,0.5,1.2,1,1.1c0.7,0,1.2-0.5,1.4-1.3C246.7,150.9,245.7,148.5,243.6,146.4z"></path> <path d="M277.7,169.5c-1.1-2.6-2.3-5-4.6-6.8c-1.2-0.9-2.5-1.6-3.6-2.5c-2.8-2.5-6.3-3.5-9.6-5c-2.4-1.2-5.1-1.7-7.6-2.4 c-4-1.1-7.9-1.3-11.9-0.1c-3.4,1-5.9,3.5-8.7,5.6c-1.3,1-2.2,2.5-3.5,3.4c-3.4,2.4-5.6,5.8-7.4,9.4c-0.6,1.2-0.9,2-2.4,2.3 c-3.5,0.9-6.5,2.9-9.6,4.8c-1.5,0.9-2.7,2.1-4.2,3c-3.9,2.5-7.3,5.5-10.2,9.1c-0.3,0.3-0.5,0.6-0.5,1.1c0.1,1.3,0.2,2.5,0.7,3.8 c0.8,2,2.3,3.5,3.4,5.3c1.3,1.9,2.3,2,3.9,0.3c1.6-1.8,3.3-3.6,5.4-5c2.4-1.7,4.6-3.6,7-5.2c2.4-1.6,4.8-3.4,7.5-4.5 c0.6-0.2,1-0.5,1.5,0.3c1.2,2.3,3.5,3.2,5.7,3.6c2.5,0.6,5,1.3,7.8,1c3.7-0.4,7.1-1.4,10.2-3.2c3-1.7,6.1-3,9.4-3.9 c1.4-0.4,2.9-0.1,4.1-0.9c1-0.6,2.1-0.6,3.2-0.8c0.4,0,0.8,0,1.2-0.2c1.1-0.4,2.3-0.2,3.3,0.2c2,0.7,4,1,6.6,1 c0.7,0.2,1.8-0.3,2.8-1c2.2-1.5,2.3-3.9,2-6.1C279.2,173.9,278.6,171.7,277.7,169.5z M252.8,182.9c-3.2,1.6-6.6,2.8-9.8,4.7 c-1.9,1.1-4.1,1.3-6.3,1.3c-3.5,0.1-6.8-1-10-2.4c-1.5-0.6-1.8-2.1-2.6-3.2c-1.6-2.3-1.5-5-1.9-7.7c-0.2-1.5,0.3-2.8,0.6-4.2 c0.1-0.6,0.6-0.9,0.9-1.4c0.7-0.8,1.2-1.8,1.8-2.7c0.8-1.3,2.1-2.2,3-3.4c1.6-1.9,3.8-3,5.5-4.8c0.1-0.1,0.2-0.1,0.5-0.2 c-0.4,1.4-0.7,2.7-0.7,4.1c0,1.7,0.8,3.1,1.4,4.5c1.4,2.9,2.9,5.7,5.1,8.1c0.9,1,1.9,2,3.2,2.6c1.1,0.6,2.1,1.4,3.2,2.1 c1.8,1.1,3.8,1.3,5.8,1.7c0.3,0.1,0.8,0,0.8,0.4C253.6,182.8,253.1,182.8,252.8,182.9z"></path> <path class="st23" d="M252.1,175.3c-1.8-1.2-3.4-2.5-5-3.9c-2.3-1.9-4.5-4-5.3-7c-0.7-2.3-1.5-4.6-0.4-7c0.2-0.4,0.5-0.9,0.7-1.3 c0.2-0.4,0.4-0.9-0.1-1.2c-0.5-0.4-0.9,0-1.3,0.3c-0.2,0.2-0.4,0.4-0.6,0.6c-1.8,3.1-1.4,6.4-0.2,9.5c1.7,4.6,5.5,7.4,9.2,10.2 c0.7,0.5,1.5,0.8,2.4,0.8c0.3,0,0.9,0.2,1.1-0.4C252.7,175.7,252.3,175.4,252.1,175.3z"></path> <path class="st23" d="M265.4,175.7c-0.5,0.2-1,0.5-1,1.2c0,0.8,0.5,1.2,1.3,1.3c0.7,0.1,1-0.4,1-1 C266.6,176.4,266.1,176,265.4,175.7z"></path> <path class="st23" d="M259.1,175.6c-0.6-0.1-0.9,0.4-0.9,1c0,0.7,0.2,1.2,1,1.3c0.6,0,0.9-0.4,1-1 C260.3,176.1,259.8,175.7,259.1,175.6z"></path> <path class="st23" d="M270.8,176.7c-0.5,0.2-1,0.4-1.1,1.1c0,0.7,0.4,0.8,0.9,0.9c0.5,0.1,1.1-0.1,1.1-0.7 C271.8,177.4,271.5,176.9,270.8,176.7z"></path> <path class="st22" d="M368.1,201.4c1.5-0.3,2.9-1,4.4-0.5c1.2,0.4,1.8,1.5,1.5,2.7c-0.1,0.2-0.2,0.5-0.2,0.7 c-0.3,0.9-0.5,1.6,0.8,2.2c1,0.4,1.8,1.6,1.6,3c0,0.4-0.1,0.6,0.4,0.8c1.6,0.8,1.9,2,1.7,3.8c-0.5,3.7-2.3,6.9-4,10.1 c-0.9,1.7-2.4,3.1-4.2,4.2c-0.9,0.6-1.4,1.6-2.2,2.3c-2.1,2-4.4,3.7-7.1,5c-1.5,0.8-2.9,1.8-4.3,2.8c-0.4,0.3-0.8,0.5-1.2,0.8 c-0.5,0.3-0.9,0-1.3-0.2c-0.4-0.3-0.3-0.7-0.1-1.1c0.3-0.6,0.6-1.2,0.7-1.8c0.1-1.1-0.2-2-1-2.9c-1.5-1.6-3.2-3-4.3-4.9 c-0.3-0.5-0.5-0.8-1.2-0.6c-0.4,0.1-0.8,0.1-1-0.4c-0.3-0.6,0-0.8,0.4-1.1c1.8-1.4,3.1-3.4,4.9-4.8c0.5-0.4,0.8-1.1,0.8-1.8 c0-2-0.1-3.9-0.2-5.9c-0.2-2-0.2-4.1,0.1-6.1c0.1-0.6,0.6-1.1,0.9-1.7c0.9-1.4,1.7-2.8,2.3-4.4c0.3-0.8,0.9-1.3,1.4-1.9 c0.5-0.6,1.6,0.1,1.8,1.1c0.2,1.4-0.2,2.7-0.8,4c-0.3,0.7-0.8,1.4-0.8,2.2c0,0.3,0,0.7,0.4,0.8c0.6,0.2,0.3-0.4,0.5-0.6 c1-1.9,2.1-3.8,3.3-5.7c1-1.6,1.8-3.3,2.6-5c1.2-2.3,3.1-4,5.3-5.4c0.8-0.5,1.7-1.1,2.5-1.6c0.8-0.4,1.5-0.3,2.1,0.3 c0.6,0.6,0.4,1.2-0.1,1.8c-0.9,1.3-2.1,2.4-3,3.7C369.9,197,369,199.1,368.1,201.4z"></path> <path class="st2" d="M282.4,448.9c-0.3,0-0.7,0-1.1,0c-25.3,0-50.5,0-75.8,0c-1.1,0-1.5-0.4-1.6-1.3c-0.5-3.7-1.5-7.3-2.3-10.9 c-0.5-2.2-1-4.4-1.2-6.7c-0.2-1.8-0.4-3.7-1.1-5.5c-1.2-3.1-1.4-6.5-1.9-9.7c-0.7-4-1.5-8-2.2-12.1c-0.1-0.3-0.1-0.6-0.1-0.8 c0.6-3.8-0.2-7.7,0.2-11.5c0.4-3.2,0.3-6.4,1.1-9.5c0.4-1.5,1-3,1.1-4.6c0-1.1,0.7-1.8,1.7-2.1c2.2-0.7,4.3-1.8,6.6-2.5 c6.4-2,12.8-3.7,19.7-2.8c1.8,0.2,3.8-0.3,5.7-0.5c2-0.2,3.9-0.1,5.7,0.7c2.4,1,5,1.1,7.6,1.3c4,0.4,7.9,0.5,11.9,1.1 c4,0.6,8.1,1.4,12,2.4c1.8,0.4,3.5,1.5,5.2,2.3c1,0.4,1.9,1.1,3.1,0c0.7-0.7,1.6,0,1.9,1.1c0.7,2.7,0.6,5.4,0.4,8.1 c-0.2,2.6,0.1,5.2,0.4,7.7c0.3,2.8,0.7,5.5,0.7,8.3c0,0.9,0.4,1.9,0.6,2.8c1.4,5.6,1.5,11.3,1.8,17c0.2,4.4-0.2,8.7-0.3,13 c-0.1,3.5,0.3,7,0.4,10.5C282.5,446,282.8,447.4,282.4,448.9z"></path> <path class="st1" d="M358.6,236.8c-0.7-0.8-1.3-1.8-1.7-2.8c-0.3-0.8-0.6-1.7-1.2-2.4c-2-1.9-3.1-4.6-5-6.6 c-0.9-0.9-1.6-2-2.8-2.6c-2-1-4.5,0.2-5.9,1.9c-1.5,1.8-3.3,3.2-5.1,4.6c-3,2.4-6.6,3.9-9.9,5.9c-3.2,1.9-6.7,3-10.1,4.5 c-1.6,0.7-3.4,0.7-4.9,1.5c-3.8,2-8.1,2.6-12.2,3.7c-2.4,0.6-4.8,1.2-7.2,1.5c-1.9,0.2-3.7,0.6-5.6,0.6 c-3.7-0.1-7.5-0.1-11.2-0.5c-2.4-0.3-4.8-0.4-7.2-1c-2.5-0.6-4.8-1.5-7.3-2c-1.4-0.3-2.9-0.7-4.1-1.3c-1.7-0.9-3.4-1.5-5.2-2.1 c-2.1-1.8-4.3-3.5-7.1-4.4c-2.6-0.9-5.4-1.5-7.8-2.8c-3.4-1.8-7-2.4-10.6-3.2c-1.7-0.4-3.5-0.4-5.3-0.4c-2.3,0.1-4.6,0-6.8,0.6 c-2,0.6-4.1,0.9-5.8,1.8c-2.1,1.1-4.2,2.2-6,3.7c-2.6,2.2-5.1,4.7-6.9,7.7c-2.5,4.3-5.5,8.5-5.8,13.8c-0.2,2.3-0.1,4.6-0.1,7 c0,0.6,0.1,1.1-0.4,1.6c0,0.1,0,0.2,0,0.2c0,0.1,0.1,0.2,0.1,0.2c0.4,0.9,0.3,2,0.3,2.9c0,0.5-0.1,1,0.1,1.4 c0.6,2,0.2,4.1,0.6,6.1c0.8,4.2,1.6,8.4,3,12.5c1,2.8,1.8,5.7,2.3,8.7c0.6,3.7,1.1,7.3,1.5,11c0.2,2.1,0.9,4.2,0.9,6.3 c-0.1,4.8,1,9.5,0.8,14.3c-0.1,1.8-0.5,3.6-0.5,5.5c0,3.2-0.6,6.4-0.5,9.6c0,1-0.3,2-0.4,3.1c-0.2,1.3-0.4,2.6-0.1,3.9 c0.2,0.9-0.1,1.7-0.3,2.5c-0.6,2.7-0.5,5.4-0.7,8.1c-0.1,2.4,0.2,4.8,0,7.1c-0.1,2-0.2,4.1-1.1,6c-0.2,0.5,0,0.8,0.4,1.2 c1.7,1.5,3.7,2.5,5.8,3.1c1.3,0.4,2.2,1.4,3.5,1.7c2,0.6,3.9,1.7,6,2c2,0.3,4,0.6,6,0.6c2.1,0,4.1,0.5,6.2,0.8 c5.2,0.6,10.4,1.1,15.7,1.1c3.5,0,7-0.3,10.6,0.1c1.2,0.1,2.4-0.1,3.6-0.4c2.1-0.5,4.2-0.8,6.3-0.9c1.2,0,2.3-0.5,3.4-0.6 c2.2-0.1,4.4,0.2,6.5-0.7c2.8-1.1,5.8-1.4,8.7-1.9c1-0.2,1.8-1,2.9-0.9c0.4,0,0.3-0.5,0.4-0.8c0.4-1.2,0.3-2.4,0.3-3.6 c-0.2-2.5,0.1-5.1-0.2-7.6c-0.1-1.3,0.1-2.7,0.2-4.1c0.1-3.4-0.1-6.8-0.2-10.2c-0.1-5.5-1.9-10.6-2.3-16c-0.1-1.9-0.7-3.8-1-5.7 c-0.8-4.3-1.3-8.6-1.5-12.9c-0.2-4.1-0.6-8.1-1.3-12.1c-0.5-2.9-0.6-5.9-0.7-8.9c0-3.5-0.4-7.1-1.1-10.5c-0.1-0.3-0.1-0.7-0.2-1 c1.7,0.1,3.4,0.1,5.1,0.1c2.9,0,5.8,0.4,8.7-0.2c3.3-0.7,6.7-1.3,10-2.3c2.6-0.8,5.3-1.4,7.7-2.5c1.7-0.7,3.4-1.5,5.1-2.2 c1.8-0.7,3.4-2,5.2-2.9c2.2-1.1,4.5-2,6.5-3.6c1-0.8,2.1-1.7,3.2-2.4c2-1.3,3.9-2.6,5.8-4c1.9-1.5,3.7-3.2,5.6-4.7 c2.6-2.1,4.8-4.5,7.5-6.5c2.5-1.8,4.8-3.9,6.5-6.5c0.8-1.2,2.1-1.7,3.1-2.6c1.7-1.5,2.8-3.6,4.8-4.8 C360,240.4,359.9,238.4,358.6,236.8z"></path> </g> </g> <g> <path class="st24" d="M122.5,374.1c0-0.1,0.1-1,0.1-1.5c-0.2-1.3-8.3-0.9-8.1,0.5l0.2,1.2L122.5,374.1z"></path> <path class="st24" d="M88.1,383.2c-0.1-0.1-0.6-0.8-0.8-1.3c-0.5-1.2,6.8-4.8,7.3-3.6l0.5,1.2L88.1,383.2z"></path> <path class="st25" d="M105.3,378.1c-1.1,0.3-5.3,1.3-6,1.2c-0.8-0.1-3-0.9-3.6-0.8c-2.3,0-8.1,2.5-8.6,4.6c0,0-1.4,7.3-0.9,14.5 c0.5,7.1,2,11.5,3.2,13.2c1.2,1.7,2.1,2.3,3.3,2.1c1.2-0.2,2.5-0.9,4.6-3.3c2.1-2.4,2.9-4.8,5.8-6.8c2.1-1.5,5.9-2.6,7.8-3.1 c1.9-0.5,5.7-1.4,8.3-1.2c3.6,0.3,5.4,2.1,8.4,3.1c3,1,4.5,1,5.6,0.6c1.1-0.4,1.7-1.4,1.9-3.4c0.2-2.1-0.6-6.6-3.7-13.1 c-3.1-6.4-7.9-12.1-7.9-12.1c-1.5-1.5-7.7-0.9-9.8,0.2c-0.5,0.3-2.1,2-2.7,2.5C110.5,376.7,106.4,377.8,105.3,378.1z"></path> <path class="st26" d="M105.3,378.1c-1.1,0.3-5.3,1.3-6,1.2c-0.8-0.1-3-0.9-3.6-0.8c-2.3,0-8.1,2.5-8.6,4.6c0,0-1.4,7.3-0.9,14.5 c0.2,2.9,0.6,5.4,1,7.4c0.5,1.8,1.1,3,1.6,3.7c1.2,1.7,2.1,2.3,3.3,2.1c1.2-0.2,2.5-0.9,4.6-3.3c2.1-2.4,2.9-4.8,5.8-6.8 c2.1-1.5,5.9-2.6,7.8-3.1c1.9-0.5,5.7-1.4,8.3-1.2c3.6,0.3,5.4,2.1,8.4,3.1c3,1,4.5,1,5.6,0.6c1.1-0.4,1.7-1.4,1.9-3.4 c0.1-0.9,0-2.3-0.4-4.1c-0.6-2-1.5-4.3-2.7-6.9c-3.1-6.4-7.9-12.1-7.9-12.1c-1.5-1.5-7.7-0.9-9.8,0.2c-0.5,0.3-2.1,2-2.7,2.5 C110.5,376.7,106.4,377.8,105.3,378.1z"></path> <ellipse transform="matrix(0.9672 -0.254 0.254 0.9672 -95.3576 36.6485)" class="st24" cx="94.3" cy="387.7" rx="3.6" ry="3.6"></ellipse> <ellipse transform="matrix(0.9672 -0.254 0.254 0.9672 -95.3575 36.6484)" class="st27" cx="94.3" cy="387.7" rx="2.5" ry="2.5"></ellipse> <ellipse transform="matrix(0.9672 -0.2539 0.2539 0.9672 -95.5104 42.3088)" class="st24" cx="116.2" cy="391.2" rx="3.6" ry="3.6"></ellipse> <ellipse transform="matrix(0.9672 -0.2539 0.2539 0.9672 -95.526 42.3183)" class="st27" cx="116.2" cy="391.2" rx="2.5" ry="2.5"></ellipse> <ellipse transform="matrix(0.9672 -0.2539 0.2539 0.9672 -96.7475 39.192)" class="st28" cx="103.5" cy="394.4" rx="3.8" ry="3.8"></ellipse> <ellipse transform="matrix(0.9672 -0.2539 0.2539 0.9672 -96.7546 39.196)" class="st24" cx="103.5" cy="394.4" rx="3" ry="3"></ellipse> <path class="st27" d="M103.8,391.4c0.4,1.6,0.4,1.7,2.1,1.2c0.2,0.3,0.4,0.7,0.5,1.1c0.1,0.4,0.1,0.8,0.1,1.1 c-1.7,0.4-1.7,0.4-1.3,2.1c-0.3,0.2-0.6,0.4-1,0.5c-0.4,0.1-0.8,0.1-1.2,0.1c-0.4-1.6-0.4-1.7-2-1.2c-0.2-0.3-0.4-0.6-0.5-1 c-0.1-0.4-0.1-0.8-0.1-1.2c1.5-0.4,1.6-0.4,1.1-2c0.3-0.2,0.7-0.4,1.1-0.5C103.1,391.4,103.4,391.4,103.8,391.4z"></path> <g> <g> <path class="st27" d="M119.3,378.6c-0.9,0-1.7-0.6-1.9-1.4c-0.3-1,0.3-2.1,1.4-2.4c0.2,0,0.3-0.1,0.5-0.1c0.9,0,1.7,0.6,1.9,1.4 c0.1,0.5,0.1,1-0.2,1.5c-0.3,0.4-0.7,0.8-1.2,0.9C119.7,378.5,119.5,378.6,119.3,378.6z"></path> <ellipse transform="matrix(0.9673 -0.2538 0.2538 0.9673 -91.6791 42.6177)" class="st27" cx="119.3" cy="376.6" rx="1.8" ry="1.8"></ellipse> <path class="st27" d="M116.4,383.1c-0.9,0-1.7-0.6-1.9-1.4c-0.3-1,0.4-2.1,1.4-2.4c0.2,0,0.3-0.1,0.5-0.1c0.9,0,1.7,0.6,1.9,1.4 c0.3,1-0.4,2.1-1.4,2.4C116.7,383.1,116.6,383.1,116.4,383.1L116.4,383.1z"></path> <ellipse transform="matrix(0.9673 -0.2538 0.2538 0.9673 -92.9393 42.0249)" class="st27" cx="116.4" cy="381.2" rx="1.8" ry="1.8"></ellipse> <path class="st27" d="M121.3,385.9c-0.9,0-1.7-0.6-1.9-1.4c-0.1-0.5-0.1-1,0.2-1.5c0.3-0.4,0.7-0.8,1.2-0.9 c0.2,0,0.3-0.1,0.5-0.1c0.9,0,1.7,0.6,1.9,1.4c0.1,0.5,0.1,1-0.2,1.5c-0.3,0.4-0.7,0.8-1.2,0.9 C121.6,385.9,121.4,385.9,121.3,385.9z"></path> <ellipse transform="matrix(0.9673 -0.2538 0.2538 0.9673 -93.477 43.3448)" class="st27" cx="121.3" cy="384" rx="1.8" ry="1.8"></ellipse> <path class="st27" d="M123.9,381.2c-0.9,0-1.7-0.6-1.9-1.4c-0.3-1,0.4-2.1,1.4-2.4c0.2,0,0.3-0.1,0.5-0.1c0.9,0,1.7,0.6,1.9,1.5 c0.3,1-0.4,2.1-1.4,2.4C124.2,381.2,124.1,381.2,123.9,381.2z"></path> <ellipse transform="matrix(0.9673 -0.2538 0.2538 0.9673 -92.1989 43.8676)" class="st27" cx="123.9" cy="379.2" rx="1.8" ry="1.8"></ellipse> </g> </g> <g> <ellipse transform="matrix(0.9673 -0.2538 0.2538 0.9673 -94.6264 39.0774)" class="st24" cx="104.1" cy="386.3" rx="1" ry="1"></ellipse> <ellipse transform="matrix(0.9672 -0.2541 0.2541 0.9672 -94.1417 40.6307)" class="st24" cx="110.2" cy="384.7" rx="1" ry="1"></ellipse> </g> </g> </g> </svg> 